{"glyphs":{"0":{"ha":1042,"x_min":0,"x_max":868,"o":"m 174 868 l 174 1042 l 694 1042 l 694 868 l 174 868 m 347 1389 l 347 1563 l 521 1563 l 521 1389 l 347 1389 m 0 1042 l 0 1910 l 174 1910 l 174 1389 l 347 1389 l 347 1215 l 174 1215 l 174 1042 l 0 1042 m 694 1042 l 694 1563 l 521 1563 l 521 1736 l 694 1736 l 694 1910 l 868 1910 l 868 1042 l 694 1042 m 174 1910 l 174 2083 l 694 2083 l 694 1910 l 174 1910 z "},"1":{"ha":1042,"x_min":0,"x_max":868,"o":"m 0 868 l 0 1042 l 347 1042 l 347 1736 l 174 1736 l 174 1910 l 347 1910 l 347 2083 l 521 2083 l 521 1042 l 868 1042 l 868 868 l 0 868 z "},"2":{"ha":1042,"x_min":0,"x_max":868,"o":"m 0 868 l 0 1215 l 174 1215 l 174 1042 l 868 1042 l 868 868 l 0 868 m 174 1215 l 174 1389 l 347 1389 l 347 1215 l 174 1215 m 347 1389 l 347 1563 l 694 1563 l 694 1389 l 347 1389 m 0 1736 l 0 1910 l 174 1910 l 174 1736 l 0 1736 m 694 1563 l 694 1910 l 868 1910 l 868 1563 l 694 1563 m 174 1910 l 174 2083 l 694 2083 l 694 1910 l 174 1910 z "},"3":{"ha":1042,"x_min":0,"x_max":868,"o":"m 174 868 l 174 1042 l 694 1042 l 694 868 l 174 868 m 0 1042 l 0 1215 l 174 1215 l 174 1042 l 0 1042 m 694 1042 l 694 1389 l 868 1389 l 868 1042 l 694 1042 m 347 1389 l 347 1563 l 694 1563 l 694 1389 l 347 1389 m 0 1736 l 0 1910 l 174 1910 l 174 1736 l 0 1736 m 694 1563 l 694 1910 l 868 1910 l 868 1563 l 694 1563 m 174 1910 l 174 2083 l 694 2083 l 694 1910 l 174 1910 z "},"4":{"ha":1042,"x_min":0,"x_max":868,"o":"m 174 1563 l 174 1736 l 347 1736 l 347 1563 l 174 1563 m 347 1736 l 347 1910 l 521 1910 l 521 1736 l 347 1736 m 694 868 l 694 1215 l 0 1215 l 0 1563 l 174 1563 l 174 1389 l 694 1389 l 694 1910 l 521 1910 l 521 2083 l 868 2083 l 868 868 l 694 868 z "},"5":{"ha":1042,"x_min":0,"x_max":868,"o":"m 174 868 l 174 1042 l 694 1042 l 694 868 l 174 868 m 0 1042 l 0 1215 l 174 1215 l 174 1042 l 0 1042 m 694 1042 l 694 1563 l 868 1563 l 868 1042 l 694 1042 m 0 1563 l 0 2083 l 868 2083 l 868 1910 l 174 1910 l 174 1736 l 694 1736 l 694 1563 l 0 1563 z "},"6":{"ha":1042,"x_min":0,"x_max":868,"o":"m 174 868 l 174 1042 l 694 1042 l 694 868 l 174 868 m 694 1042 l 694 1389 l 868 1389 l 868 1042 l 694 1042 m 0 1042 l 0 1736 l 174 1736 l 174 1563 l 694 1563 l 694 1389 l 174 1389 l 174 1042 l 0 1042 m 174 1736 l 174 1910 l 347 1910 l 347 1736 l 174 1736 m 347 1910 l 347 2083 l 694 2083 l 694 1910 l 347 1910 z "},"7":{"ha":1042,"x_min":0,"x_max":868,"o":"m 347 868 l 347 1389 l 521 1389 l 521 868 l 347 868 m 521 1389 l 521 1563 l 694 1563 l 694 1389 l 521 1389 m 694 1563 l 694 1910 l 174 1910 l 174 1736 l 0 1736 l 0 2083 l 868 2083 l 868 1563 l 694 1563 z "},"8":{"ha":1042,"x_min":0,"x_max":868,"o":"m 174 868 l 174 1042 l 694 1042 l 694 868 l 174 868 m 0 1042 l 0 1389 l 174 1389 l 174 1042 l 0 1042 m 694 1042 l 694 1389 l 868 1389 l 868 1042 l 694 1042 m 174 1389 l 174 1563 l 694 1563 l 694 1389 l 174 1389 m 0 1563 l 0 1910 l 174 1910 l 174 1563 l 0 1563 m 694 1563 l 694 1910 l 868 1910 l 868 1563 l 694 1563 m 174 1910 l 174 2083 l 694 2083 l 694 1910 l 174 1910 z "},"9":{"ha":1042,"x_min":0,"x_max":868,"o":"m 174 868 l 174 1042 l 521 1042 l 521 868 l 174 868 m 521 1042 l 521 1215 l 694 1215 l 694 1042 l 521 1042 m 0 1563 l 0 1910 l 174 1910 l 174 1563 l 0 1563 m 694 1215 l 694 1389 l 174 1389 l 174 1563 l 694 1563 l 694 1910 l 868 1910 l 868 1215 l 694 1215 m 174 1910 l 174 2083 l 694 2083 l 694 1910 l 174 1910 z "}," ":{"ha":347,"x_min":0,"x_max":0,"o":""},"!":{"ha":347,"x_min":0,"x_max":174,"o":"m 0 868 l 0 1042 l 174 1042 l 174 868 l 0 868 m 0 1215 l 0 2083 l 174 2083 l 174 1215 l 0 1215 z "},"\"":{"ha":694,"x_min":0,"x_max":521,"o":"m 0 1736 l 0 2083 l 174 2083 l 174 1736 l 0 1736 m 347 1736 l 347 2083 l 521 2083 l 521 1736 l 347 1736 z "},"#":{"ha":1042,"x_min":0,"x_max":868,"o":"m 521 1389 l 521 1563 l 347 1563 l 347 1389 l 521 1389 m 174 868 l 174 1215 l 0 1215 l 0 1389 l 174 1389 l 174 1563 l 0 1563 l 0 1736 l 174 1736 l 174 2083 l 347 2083 l 347 1736 l 521 1736 l 521 2083 l 694 2083 l 694 1736 l 868 1736 l 868 1563 l 694 1563 l 694 1389 l 868 1389 l 868 1215 l 694 1215 l 694 868 l 521 868 l 521 1215 l 347 1215 l 347 868 l 174 868 z "},"$":{"ha":1042,"x_min":0,"x_max":868,"o":"m 347 868 l 347 1042 l 0 1042 l 0 1215 l 694 1215 l 694 1042 l 521 1042 l 521 868 l 347 868 m 694 1215 l 694 1389 l 868 1389 l 868 1215 l 694 1215 m 174 1389 l 174 1563 l 694 1563 l 694 1389 l 174 1389 m 0 1563 l 0 1736 l 174 1736 l 174 1563 l 0 1563 m 174 1736 l 174 1910 l 347 1910 l 347 2083 l 521 2083 l 521 1910 l 868 1910 l 868 1736 l 174 1736 z "},"%":{"ha":1042,"x_min":0,"x_max":868,"o":"m 0 868 l 0 1042 l 174 1042 l 174 868 l 0 868 m 694 868 l 694 1215 l 868 1215 l 868 868 l 694 868 m 174 1042 l 174 1389 l 347 1389 l 347 1042 l 174 1042 m 347 1389 l 347 1563 l 521 1563 l 521 1389 l 347 1389 m 521 1563 l 521 1910 l 694 1910 l 694 1563 l 521 1563 m 0 1736 l 0 2083 l 174 2083 l 174 1736 l 0 1736 m 694 1910 l 694 2083 l 868 2083 l 868 1910 l 694 1910 z "},"&":{"ha":1042,"x_min":0,"x_max":868,"o":"m 174 868 l 174 1042 l 521 1042 l 521 868 l 174 868 m 694 868 l 694 1042 l 868 1042 l 868 868 l 694 868 m 0 1042 l 0 1389 l 174 1389 l 174 1042 l 0 1042 m 694 1389 l 694 1563 l 868 1563 l 868 1389 l 694 1389 m 521 1042 l 521 1215 l 347 1215 l 347 1389 l 174 1389 l 174 1563 l 347 1563 l 347 1736 l 521 1736 l 521 1389 l 694 1389 l 694 1042 l 521 1042 m 174 1736 l 174 1910 l 347 1910 l 347 1736 l 174 1736 m 521 1736 l 521 1910 l 694 1910 l 694 1736 l 521 1736 m 347 1910 l 347 2083 l 521 2083 l 521 1910 l 347 1910 z "},"'":{"ha":347,"x_min":0,"x_max":174,"o":"m 0 1736 l 0 2083 l 174 2083 l 174 1736 l 0 1736 z "},"(":{"ha":868,"x_min":0,"x_max":694,"o":"m 347 868 l 347 1042 l 694 1042 l 694 868 l 347 868 m 174 1042 l 174 1215 l 347 1215 l 347 1042 l 174 1042 m 0 1215 l 0 1736 l 174 1736 l 174 1215 l 0 1215 m 174 1736 l 174 1910 l 347 1910 l 347 1736 l 174 1736 m 347 1910 l 347 2083 l 694 2083 l 694 1910 l 347 1910 z "},")":{"ha":868,"x_min":0,"x_max":694,"o":"m 0 868 l 0 1042 l 347 1042 l 347 868 l 0 868 m 347 1042 l 347 1215 l 521 1215 l 521 1042 l 347 1042 m 521 1215 l 521 1736 l 694 1736 l 694 1215 l 521 1215 m 347 1736 l 347 1910 l 521 1910 l 521 1736 l 347 1736 m 0 1910 l 0 2083 l 347 2083 l 347 1910 l 0 1910 z "},"*":{"ha":868,"x_min":0,"x_max":694,"o":"m 0 1563 l 0 1736 l 174 1736 l 174 1563 l 0 1563 m 521 1563 l 521 1736 l 694 1736 l 694 1563 l 521 1563 m 174 1736 l 174 1910 l 521 1910 l 521 1736 l 174 1736 m 0 1910 l 0 2083 l 174 2083 l 174 1910 l 0 1910 m 521 1910 l 521 2083 l 694 2083 l 694 1910 l 521 1910 z "},"+":{"ha":1042,"x_min":0,"x_max":868,"o":"m 347 868 l 347 1215 l 0 1215 l 0 1389 l 347 1389 l 347 1736 l 521 1736 l 521 1389 l 868 1389 l 868 1215 l 521 1215 l 521 868 l 347 868 z "},",":{"ha":347,"x_min":0,"x_max":174,"o":"m 0 694 l 0 1215 l 174 1215 l 174 694 l 0 694 z "},"-":{"ha":1042,"x_min":0,"x_max":868,"o":"m 0 1215 l 0 1389 l 868 1389 l 868 1215 l 0 1215 z "},".":{"ha":347,"x_min":0,"x_max":174,"o":"m 0 868 l 0 1215 l 174 1215 l 174 868 l 0 868 z "},"/":{"ha":1042,"x_min":0,"x_max":868,"o":"m 0 868 l 0 1042 l 174 1042 l 174 868 l 0 868 m 174 1042 l 174 1389 l 347 1389 l 347 1042 l 174 1042 m 347 1389 l 347 1563 l 521 1563 l 521 1389 l 347 1389 m 521 1563 l 521 1910 l 694 1910 l 694 1563 l 521 1563 m 694 1910 l 694 2083 l 868 2083 l 868 1910 l 694 1910 z "},":":{"ha":347,"x_min":0,"x_max":174,"o":"m 0 868 l 0 1215 l 174 1215 l 174 868 l 0 868 m 0 1563 l 0 1910 l 174 1910 l 174 1563 l 0 1563 z "},";":{"ha":347,"x_min":0,"x_max":174,"o":"m 0 694 l 0 1215 l 174 1215 l 174 694 l 0 694 m 0 1563 l 0 1910 l 174 1910 l 174 1563 l 0 1563 z "},"<":{"ha":868,"x_min":0,"x_max":694,"o":"m 521 868 l 521 1042 l 694 1042 l 694 868 l 521 868 m 347 1042 l 347 1215 l 521 1215 l 521 1042 l 347 1042 m 174 1215 l 174 1389 l 347 1389 l 347 1215 l 174 1215 m 0 1389 l 0 1563 l 174 1563 l 174 1389 l 0 1389 m 174 1563 l 174 1736 l 347 1736 l 347 1563 l 174 1563 m 347 1736 l 347 1910 l 521 1910 l 521 1736 l 347 1736 m 521 1910 l 521 2083 l 694 2083 l 694 1910 l 521 1910 z "},"=":{"ha":1042,"x_min":0,"x_max":868,"o":"m 0 1042 l 0 1215 l 868 1215 l 868 1042 l 0 1042 m 0 1563 l 0 1736 l 868 1736 l 868 1563 l 0 1563 z "},">":{"ha":868,"x_min":0,"x_max":694,"o":"m 0 868 l 0 1042 l 174 1042 l 174 868 l 0 868 m 174 1042 l 174 1215 l 347 1215 l 347 1042 l 174 1042 m 347 1215 l 347 1389 l 521 1389 l 521 1215 l 347 1215 m 521 1389 l 521 1563 l 694 1563 l 694 1389 l 521 1389 m 347 1563 l 347 1736 l 521 1736 l 521 1563 l 347 1563 m 174 1736 l 174 1910 l 347 1910 l 347 1736 l 174 1736 m 0 1910 l 0 2083 l 174 2083 l 174 1910 l 0 1910 z "},"?":{"ha":1042,"x_min":0,"x_max":868,"o":"m 347 868 l 347 1042 l 521 1042 l 521 868 l 347 868 m 347 1215 l 347 1389 l 521 1389 l 521 1215 l 347 1215 m 521 1389 l 521 1563 l 694 1563 l 694 1389 l 521 1389 m 0 1736 l 0 1910 l 174 1910 l 174 1736 l 0 1736 m 694 1563 l 694 1910 l 868 1910 l 868 1563 l 694 1563 m 174 1910 l 174 2083 l 694 2083 l 694 1910 l 174 1910 z "},"@":{"ha":1215,"x_min":0,"x_max":1042,"o":"m 174 868 l 174 1042 l 1042 1042 l 1042 868 l 174 868 m 0 1042 l 0 1910 l 174 1910 l 174 1042 l 0 1042 m 347 1215 l 347 1736 l 694 1736 l 694 1389 l 868 1389 l 868 1910 l 1042 1910 l 1042 1215 l 347 1215 m 174 1910 l 174 2083 l 868 2083 l 868 1910 l 174 1910 z "},"A":{"ha":1042,"x_min":0,"x_max":868,"o":"m 0 868 l 0 1910 l 174 1910 l 174 1736 l 694 1736 l 694 1910 l 868 1910 l 868 868 l 694 868 l 694 1563 l 174 1563 l 174 868 l 0 868 m 174 1910 l 174 2083 l 694 2083 l 694 1910 l 174 1910 z "},"B":{"ha":1042,"x_min":0,"x_max":868,"o":"m 694 1042 l 694 1563 l 868 1563 l 868 1042 l 694 1042 m 694 1736 l 694 1910 l 868 1910 l 868 1736 l 694 1736 m 0 868 l 0 2083 l 694 2083 l 694 1910 l 174 1910 l 174 1736 l 694 1736 l 694 1563 l 174 1563 l 174 1042 l 694 1042 l 694 868 l 0 868 z "},"C":{"ha":1042,"x_min":0,"x_max":868,"o":"m 174 868 l 174 1042 l 694 1042 l 694 868 l 174 868 m 694 1042 l 694 1215 l 868 1215 l 868 1042 l 694 1042 m 0 1042 l 0 1910 l 174 1910 l 174 1042 l 0 1042 m 694 1736 l 694 1910 l 868 1910 l 868 1736 l 694 1736 m 174 1910 l 174 2083 l 694 2083 l 694 1910 l 174 1910 z "},"D":{"ha":1042,"x_min":0,"x_max":868,"o":"m 694 1042 l 694 1910 l 868 1910 l 868 1042 l 694 1042 m 0 868 l 0 2083 l 694 2083 l 694 1910 l 174 1910 l 174 1042 l 694 1042 l 694 868 l 0 868 z "},"E":{"ha":1042,"x_min":0,"x_max":868,"o":"m 0 868 l 0 2083 l 868 2083 l 868 1910 l 174 1910 l 174 1736 l 521 1736 l 521 1563 l 174 1563 l 174 1042 l 868 1042 l 868 868 l 0 868 z "},"F":{"ha":1042,"x_min":0,"x_max":868,"o":"m 0 868 l 0 2083 l 868 2083 l 868 1910 l 174 1910 l 174 1736 l 521 1736 l 521 1563 l 174 1563 l 174 868 l 0 868 z "},"G":{"ha":1042,"x_min":0,"x_max":868,"o":"m 174 868 l 174 1042 l 694 1042 l 694 868 l 174 868 m 694 1042 l 694 1563 l 347 1563 l 347 1736 l 868 1736 l 868 1042 l 694 1042 m 0 1042 l 0 1910 l 174 1910 l 174 1042 l 0 1042 m 174 1910 l 174 2083 l 868 2083 l 868 1910 l 174 1910 z "},"H":{"ha":1042,"x_min":0,"x_max":868,"o":"m 0 868 l 0 2083 l 174 2083 l 174 1736 l 694 1736 l 694 2083 l 868 2083 l 868 868 l 694 868 l 694 1563 l 174 1563 l 174 868 l 0 868 z "},"I":{"ha":694,"x_min":0,"x_max":521,"o":"m 0 868 l 0 1042 l 174 1042 l 174 1910 l 0 1910 l 0 2083 l 521 2083 l 521 1910 l 347 1910 l 347 1042 l 521 1042 l 521 868 l 0 868 z "},"J":{"ha":1042,"x_min":0,"x_max":868,"o":"m 174 868 l 174 1042 l 694 1042 l 694 868 l 174 868 m 0 1042 l 0 1215 l 174 1215 l 174 1042 l 0 1042 m 694 1042 l 694 2083 l 868 2083 l 868 1042 l 694 1042 z "},"K":{"ha":1042,"x_min":0,"x_max":868,"o":"m 694 868 l 694 1389 l 868 1389 l 868 868 l 694 868 m 521 1389 l 521 1563 l 694 1563 l 694 1389 l 521 1389 m 521 1736 l 521 1910 l 694 1910 l 694 1736 l 521 1736 m 0 868 l 0 2083 l 174 2083 l 174 1736 l 521 1736 l 521 1563 l 174 1563 l 174 868 l 0 868 m 694 1910 l 694 2083 l 868 2083 l 868 1910 l 694 1910 z "},"L":{"ha":1042,"x_min":0,"x_max":868,"o":"m 0 868 l 0 2083 l 174 2083 l 174 1042 l 868 1042 l 868 868 l 0 868 z "},"M":{"ha":1042,"x_min":0,"x_max":868,"o":"m 347 1563 l 347 1736 l 521 1736 l 521 1563 l 347 1563 m 0 868 l 0 2083 l 174 2083 l 174 1910 l 347 1910 l 347 1736 l 174 1736 l 174 868 l 0 868 m 694 868 l 694 1736 l 521 1736 l 521 1910 l 694 1910 l 694 2083 l 868 2083 l 868 868 l 694 868 z "},"N":{"ha":1042,"x_min":0,"x_max":868,"o":"m 347 1563 l 347 1736 l 521 1736 l 521 1563 l 347 1563 m 0 868 l 0 2083 l 174 2083 l 174 1910 l 347 1910 l 347 1736 l 174 1736 l 174 868 l 0 868 m 694 868 l 694 1389 l 521 1389 l 521 1563 l 694 1563 l 694 2083 l 868 2083 l 868 868 l 694 868 z "},"O":{"ha":1042,"x_min":0,"x_max":868,"o":"m 174 868 l 174 1042 l 694 1042 l 694 868 l 174 868 m 0 1042 l 0 1910 l 174 1910 l 174 1042 l 0 1042 m 694 1042 l 694 1910 l 868 1910 l 868 1042 l 694 1042 m 174 1910 l 174 2083 l 694 2083 l 694 1910 l 174 1910 z "},"P":{"ha":1042,"x_min":0,"x_max":868,"o":"m 694 1736 l 694 1910 l 868 1910 l 868 1736 l 694 1736 m 0 868 l 0 2083 l 694 2083 l 694 1910 l 174 1910 l 174 1736 l 694 1736 l 694 1563 l 174 1563 l 174 868 l 0 868 z "},"Q":{"ha":1042,"x_min":0,"x_max":868,"o":"m 174 868 l 174 1042 l 521 1042 l 521 868 l 174 868 m 694 868 l 694 1042 l 868 1042 l 868 868 l 694 868 m 521 1042 l 521 1215 l 694 1215 l 694 1042 l 521 1042 m 0 1042 l 0 1910 l 174 1910 l 174 1042 l 0 1042 m 694 1215 l 694 1910 l 868 1910 l 868 1215 l 694 1215 m 174 1910 l 174 2083 l 694 2083 l 694 1910 l 174 1910 z "},"R":{"ha":1042,"x_min":0,"x_max":868,"o":"m 694 868 l 694 1563 l 868 1563 l 868 868 l 694 868 m 694 1736 l 694 1910 l 868 1910 l 868 1736 l 694 1736 m 0 868 l 0 2083 l 694 2083 l 694 1910 l 174 1910 l 174 1736 l 694 1736 l 694 1563 l 174 1563 l 174 868 l 0 868 z "},"S":{"ha":1042,"x_min":0,"x_max":868,"o":"m 174 868 l 174 1042 l 694 1042 l 694 868 l 174 868 m 0 1042 l 0 1215 l 174 1215 l 174 1042 l 0 1042 m 694 1042 l 694 1563 l 868 1563 l 868 1042 l 694 1042 m 174 1563 l 174 1736 l 694 1736 l 694 1563 l 174 1563 m 0 1736 l 0 1910 l 174 1910 l 174 1736 l 0 1736 m 174 1910 l 174 2083 l 868 2083 l 868 1910 l 174 1910 z "},"T":{"ha":1042,"x_min":0,"x_max":868,"o":"m 347 868 l 347 1910 l 0 1910 l 0 2083 l 868 2083 l 868 1910 l 521 1910 l 521 868 l 347 868 z "},"U":{"ha":1042,"x_min":0,"x_max":868,"o":"m 174 868 l 174 1042 l 694 1042 l 694 868 l 174 868 m 0 1042 l 0 2083 l 174 2083 l 174 1042 l 0 1042 m 694 1042 l 694 2083 l 868 2083 l 868 1042 l 694 1042 z "},"V":{"ha":1042,"x_min":0,"x_max":868,"o":"m 347 868 l 347 1042 l 521 1042 l 521 868 l 347 868 m 174 1042 l 174 1389 l 347 1389 l 347 1042 l 174 1042 m 521 1042 l 521 1389 l 694 1389 l 694 1042 l 521 1042 m 0 1389 l 0 2083 l 174 2083 l 174 1389 l 0 1389 m 694 1389 l 694 2083 l 868 2083 l 868 1389 l 694 1389 z "},"W":{"ha":1042,"x_min":0,"x_max":868,"o":"m 347 1215 l 347 1389 l 521 1389 l 521 1215 l 347 1215 m 0 868 l 0 2083 l 174 2083 l 174 1215 l 347 1215 l 347 1042 l 174 1042 l 174 868 l 0 868 m 694 868 l 694 1042 l 521 1042 l 521 1215 l 694 1215 l 694 2083 l 868 2083 l 868 868 l 694 868 z "},"X":{"ha":1042,"x_min":0,"x_max":868,"o":"m 0 868 l 0 1389 l 174 1389 l 174 868 l 0 868 m 694 868 l 694 1389 l 868 1389 l 868 868 l 694 868 m 174 1389 l 174 1563 l 347 1563 l 347 1389 l 174 1389 m 521 1389 l 521 1563 l 694 1563 l 694 1389 l 521 1389 m 347 1563 l 347 1736 l 521 1736 l 521 1563 l 347 1563 m 174 1736 l 174 1910 l 347 1910 l 347 1736 l 174 1736 m 521 1736 l 521 1910 l 694 1910 l 694 1736 l 521 1736 m 0 1910 l 0 2083 l 174 2083 l 174 1910 l 0 1910 m 694 1910 l 694 2083 l 868 2083 l 868 1910 l 694 1910 z "},"Y":{"ha":1042,"x_min":0,"x_max":868,"o":"m 347 868 l 347 1736 l 521 1736 l 521 868 l 347 868 m 174 1736 l 174 1910 l 347 1910 l 347 1736 l 174 1736 m 521 1736 l 521 1910 l 694 1910 l 694 1736 l 521 1736 m 0 1910 l 0 2083 l 174 2083 l 174 1910 l 0 1910 m 694 1910 l 694 2083 l 868 2083 l 868 1910 l 694 1910 z "},"Z":{"ha":1042,"x_min":0,"x_max":868,"o":"m 0 868 l 0 1215 l 174 1215 l 174 1042 l 868 1042 l 868 868 l 0 868 m 174 1215 l 174 1389 l 347 1389 l 347 1215 l 174 1215 m 347 1389 l 347 1563 l 521 1563 l 521 1389 l 347 1389 m 521 1563 l 521 1736 l 694 1736 l 694 1563 l 521 1563 m 694 1736 l 694 1910 l 0 1910 l 0 2083 l 868 2083 l 868 1736 l 694 1736 z "},"[":{"ha":694,"x_min":0,"x_max":521,"o":"m 0 868 l 0 2083 l 521 2083 l 521 1910 l 174 1910 l 174 1042 l 521 1042 l 521 868 l 0 868 z "},"\\":{"ha":1042,"x_min":0,"x_max":868,"o":"m 694 868 l 694 1042 l 868 1042 l 868 868 l 694 868 m 521 1042 l 521 1389 l 694 1389 l 694 1042 l 521 1042 m 347 1389 l 347 1563 l 521 1563 l 521 1389 l 347 1389 m 174 1563 l 174 1910 l 347 1910 l 347 1563 l 174 1563 m 0 1910 l 0 2083 l 174 2083 l 174 1910 l 0 1910 z "},"]":{"ha":694,"x_min":0,"x_max":521,"o":"m 0 868 l 0 1042 l 347 1042 l 347 1910 l 0 1910 l 0 2083 l 521 2083 l 521 868 l 0 868 z "},"^":{"ha":1042,"x_min":0,"x_max":868,"o":"m 0 1563 l 0 1736 l 174 1736 l 174 1563 l 0 1563 m 694 1563 l 694 1736 l 868 1736 l 868 1563 l 694 1563 m 174 1736 l 174 1910 l 347 1910 l 347 1736 l 174 1736 m 521 1736 l 521 1910 l 694 1910 l 694 1736 l 521 1736 m 347 1910 l 347 2083 l 521 2083 l 521 1910 l 347 1910 z "},"_":{"ha":1042,"x_min":0,"x_max":868,"o":"m 0 694 l 0 868 l 868 868 l 868 694 l 0 694 z "},"`":{"ha":521,"x_min":0,"x_max":347,"o":"m 174 1910 l 174 2083 l 347 2083 l 347 1910 l 174 1910 m 0 2083 l 0 2257 l 174 2257 l 174 2083 l 0 2083 z "},"a":{"ha":1042,"x_min":0,"x_max":868,"o":"m 0 1042 l 0 1215 l 174 1215 l 174 1042 l 0 1042 m 174 868 l 174 1042 l 694 1042 l 694 1215 l 174 1215 l 174 1389 l 694 1389 l 694 1563 l 868 1563 l 868 868 l 174 868 m 174 1563 l 174 1736 l 694 1736 l 694 1563 l 174 1563 z "},"b":{"ha":1042,"x_min":0,"x_max":868,"o":"m 694 1042 l 694 1563 l 868 1563 l 868 1042 l 694 1042 m 347 1563 l 347 1736 l 694 1736 l 694 1563 l 347 1563 m 0 868 l 0 2083 l 174 2083 l 174 1563 l 347 1563 l 347 1389 l 174 1389 l 174 1042 l 694 1042 l 694 868 l 0 868 z "},"c":{"ha":1042,"x_min":0,"x_max":868,"o":"m 174 868 l 174 1042 l 694 1042 l 694 868 l 174 868 m 694 1042 l 694 1215 l 868 1215 l 868 1042 l 694 1042 m 0 1042 l 0 1563 l 174 1563 l 174 1042 l 0 1042 m 694 1389 l 694 1563 l 868 1563 l 868 1389 l 694 1389 m 174 1563 l 174 1736 l 694 1736 l 694 1563 l 174 1563 z "},"d":{"ha":1042,"x_min":0,"x_max":868,"o":"m 0 1042 l 0 1563 l 174 1563 l 174 1042 l 0 1042 m 174 1563 l 174 1736 l 521 1736 l 521 1563 l 174 1563 m 174 868 l 174 1042 l 694 1042 l 694 1389 l 521 1389 l 521 1563 l 694 1563 l 694 2083 l 868 2083 l 868 868 l 174 868 z "},"e":{"ha":1042,"x_min":0,"x_max":868,"o":"m 174 868 l 174 1042 l 868 1042 l 868 868 l 174 868 m 0 1042 l 0 1563 l 174 1563 l 174 1389 l 694 1389 l 694 1563 l 868 1563 l 868 1215 l 174 1215 l 174 1042 l 0 1042 m 174 1563 l 174 1736 l 694 1736 l 694 1563 l 174 1563 z "},"f":{"ha":868,"x_min":0,"x_max":694,"o":"m 174 868 l 174 1563 l 0 1563 l 0 1736 l 174 1736 l 174 1910 l 347 1910 l 347 1736 l 694 1736 l 694 1563 l 347 1563 l 347 868 l 174 868 m 347 1910 l 347 2083 l 694 2083 l 694 1910 l 347 1910 z "},"g":{"ha":1042,"x_min":0,"x_max":868,"o":"m 0 694 l 0 868 l 694 868 l 694 694 l 0 694 m 0 1215 l 0 1563 l 174 1563 l 174 1215 l 0 1215 m 694 868 l 694 1042 l 174 1042 l 174 1215 l 694 1215 l 694 1563 l 174 1563 l 174 1736 l 868 1736 l 868 868 l 694 868 z "},"h":{"ha":1042,"x_min":0,"x_max":868,"o":"m 694 868 l 694 1563 l 868 1563 l 868 868 l 694 868 m 347 1563 l 347 1736 l 694 1736 l 694 1563 l 347 1563 m 0 868 l 0 2083 l 174 2083 l 174 1563 l 347 1563 l 347 1389 l 174 1389 l 174 868 l 0 868 z "},"i":{"ha":347,"x_min":0,"x_max":174,"o":"m 0 868 l 0 1736 l 174 1736 l 174 868 l 0 868 m 0 1910 l 0 2083 l 174 2083 l 174 1910 l 0 1910 z "},"j":{"ha":1042,"x_min":0,"x_max":868,"o":"m 174 694 l 174 868 l 694 868 l 694 694 l 174 694 m 0 868 l 0 1215 l 174 1215 l 174 868 l 0 868 m 694 868 l 694 1736 l 868 1736 l 868 868 l 694 868 m 694 1910 l 694 2083 l 868 2083 l 868 1910 l 694 1910 z "},"k":{"ha":868,"x_min":0,"x_max":694,"o":"m 521 868 l 521 1042 l 694 1042 l 694 868 l 521 868 m 347 1042 l 347 1215 l 521 1215 l 521 1042 l 347 1042 m 347 1389 l 347 1563 l 521 1563 l 521 1389 l 347 1389 m 521 1563 l 521 1736 l 694 1736 l 694 1563 l 521 1563 m 0 868 l 0 2083 l 174 2083 l 174 1389 l 347 1389 l 347 1215 l 174 1215 l 174 868 l 0 868 z "},"l":{"ha":521,"x_min":0,"x_max":347,"o":"m 174 868 l 174 1042 l 347 1042 l 347 868 l 174 868 m 0 1042 l 0 2083 l 174 2083 l 174 1042 l 0 1042 z "},"m":{"ha":1042,"x_min":0,"x_max":868,"o":"m 347 1215 l 347 1563 l 521 1563 l 521 1215 l 347 1215 m 694 868 l 694 1563 l 868 1563 l 868 868 l 694 868 m 0 868 l 0 1736 l 347 1736 l 347 1563 l 174 1563 l 174 868 l 0 868 m 521 1563 l 521 1736 l 694 1736 l 694 1563 l 521 1563 z "},"n":{"ha":1042,"x_min":0,"x_max":868,"o":"m 694 868 l 694 1563 l 868 1563 l 868 868 l 694 868 m 0 868 l 0 1736 l 694 1736 l 694 1563 l 174 1563 l 174 868 l 0 868 z "},"o":{"ha":1042,"x_min":0,"x_max":868,"o":"m 174 868 l 174 1042 l 694 1042 l 694 868 l 174 868 m 0 1042 l 0 1563 l 174 1563 l 174 1042 l 0 1042 m 694 1042 l 694 1563 l 868 1563 l 868 1042 l 694 1042 m 174 1563 l 174 1736 l 694 1736 l 694 1563 l 174 1563 z "},"p":{"ha":1042,"x_min":0,"x_max":868,"o":"m 694 1215 l 694 1563 l 868 1563 l 868 1215 l 694 1215 m 0 694 l 0 1736 l 174 1736 l 174 1563 l 347 1563 l 347 1389 l 174 1389 l 174 1215 l 694 1215 l 694 1042 l 174 1042 l 174 694 l 0 694 m 347 1563 l 347 1736 l 694 1736 l 694 1563 l 347 1563 z "},"q":{"ha":1042,"x_min":0,"x_max":868,"o":"m 0 1215 l 0 1563 l 174 1563 l 174 1215 l 0 1215 m 174 1563 l 174 1736 l 521 1736 l 521 1563 l 174 1563 m 694 694 l 694 1042 l 174 1042 l 174 1215 l 694 1215 l 694 1389 l 521 1389 l 521 1563 l 694 1563 l 694 1736 l 868 1736 l 868 694 l 694 694 z "},"r":{"ha":1042,"x_min":0,"x_max":868,"o":"m 694 1389 l 694 1563 l 868 1563 l 868 1389 l 694 1389 m 0 868 l 0 1736 l 174 1736 l 174 1563 l 347 1563 l 347 1389 l 174 1389 l 174 868 l 0 868 m 347 1563 l 347 1736 l 694 1736 l 694 1563 l 347 1563 z "},"s":{"ha":1042,"x_min":0,"x_max":868,"o":"m 0 868 l 0 1042 l 694 1042 l 694 868 l 0 868 m 694 1042 l 694 1215 l 868 1215 l 868 1042 l 694 1042 m 174 1215 l 174 1389 l 694 1389 l 694 1215 l 174 1215 m 0 1389 l 0 1563 l 174 1563 l 174 1389 l 0 1389 m 174 1563 l 174 1736 l 868 1736 l 868 1563 l 174 1563 z "},"t":{"ha":694,"x_min":0,"x_max":521,"o":"m 347 868 l 347 1042 l 521 1042 l 521 868 l 347 868 m 174 1042 l 174 1736 l 0 1736 l 0 1910 l 174 1910 l 174 2083 l 347 2083 l 347 1910 l 521 1910 l 521 1736 l 347 1736 l 347 1042 l 174 1042 z "},"u":{"ha":1042,"x_min":0,"x_max":868,"o":"m 0 1042 l 0 1736 l 174 1736 l 174 1042 l 0 1042 m 174 868 l 174 1042 l 694 1042 l 694 1736 l 868 1736 l 868 868 l 174 868 z "},"v":{"ha":1042,"x_min":0,"x_max":868,"o":"m 347 868 l 347 1042 l 521 1042 l 521 868 l 347 868 m 174 1042 l 174 1215 l 347 1215 l 347 1042 l 174 1042 m 521 1042 l 521 1215 l 694 1215 l 694 1042 l 521 1042 m 0 1215 l 0 1736 l 174 1736 l 174 1215 l 0 1215 m 694 1215 l 694 1736 l 868 1736 l 868 1215 l 694 1215 z "},"w":{"ha":1042,"x_min":0,"x_max":868,"o":"m 0 1042 l 0 1736 l 174 1736 l 174 1042 l 0 1042 m 174 868 l 174 1042 l 347 1042 l 347 1389 l 521 1389 l 521 1042 l 694 1042 l 694 1736 l 868 1736 l 868 868 l 174 868 z "},"x":{"ha":1042,"x_min":0,"x_max":868,"o":"m 0 868 l 0 1042 l 174 1042 l 174 868 l 0 868 m 694 868 l 694 1042 l 868 1042 l 868 868 l 694 868 m 174 1042 l 174 1215 l 347 1215 l 347 1042 l 174 1042 m 521 1042 l 521 1215 l 694 1215 l 694 1042 l 521 1042 m 347 1215 l 347 1389 l 521 1389 l 521 1215 l 347 1215 m 174 1389 l 174 1563 l 347 1563 l 347 1389 l 174 1389 m 521 1389 l 521 1563 l 694 1563 l 694 1389 l 521 1389 m 0 1563 l 0 1736 l 174 1736 l 174 1563 l 0 1563 m 694 1563 l 694 1736 l 868 1736 l 868 1563 l 694 1563 z "},"y":{"ha":1042,"x_min":0,"x_max":868,"o":"m 0 694 l 0 868 l 694 868 l 694 694 l 0 694 m 0 1215 l 0 1736 l 174 1736 l 174 1215 l 0 1215 m 694 868 l 694 1042 l 174 1042 l 174 1215 l 694 1215 l 694 1736 l 868 1736 l 868 868 l 694 868 z "},"z":{"ha":1042,"x_min":0,"x_max":868,"o":"m 0 868 l 0 1042 l 174 1042 l 174 1215 l 347 1215 l 347 1042 l 868 1042 l 868 868 l 0 868 m 347 1215 l 347 1389 l 521 1389 l 521 1215 l 347 1215 m 521 1389 l 521 1563 l 0 1563 l 0 1736 l 868 1736 l 868 1563 l 694 1563 l 694 1389 l 521 1389 z "},"{":{"ha":868,"x_min":0,"x_max":694,"o":"m 347 868 l 347 1042 l 694 1042 l 694 868 l 347 868 m 174 1042 l 174 1389 l 347 1389 l 347 1042 l 174 1042 m 0 1389 l 0 1563 l 174 1563 l 174 1389 l 0 1389 m 174 1563 l 174 1910 l 347 1910 l 347 1563 l 174 1563 m 347 1910 l 347 2083 l 694 2083 l 694 1910 l 347 1910 z "},"|":{"ha":347,"x_min":0,"x_max":174,"o":"m 0 694 l 0 2083 l 174 2083 l 174 694 l 0 694 z "},"}":{"ha":868,"x_min":0,"x_max":694,"o":"m 0 868 l 0 1042 l 347 1042 l 347 868 l 0 868 m 347 1042 l 347 1389 l 521 1389 l 521 1042 l 347 1042 m 521 1389 l 521 1563 l 694 1563 l 694 1389 l 521 1389 m 347 1563 l 347 1910 l 521 1910 l 521 1563 l 347 1563 m 0 1910 l 0 2083 l 347 2083 l 347 1910 l 0 1910 z "},"~":{"ha":1215,"x_min":0,"x_max":1042,"o":"m 0 1736 l 0 1910 l 174 1910 l 174 1736 l 0 1736 m 521 1736 l 521 1910 l 868 1910 l 868 1736 l 521 1736 m 174 1910 l 174 2083 l 521 2083 l 521 1910 l 174 1910 m 868 1910 l 868 2083 l 1042 2083 l 1042 1910 l 868 1910 z "},"¡":{"ha":347,"x_min":0,"x_max":174,"o":"m 0 868 l 0 1736 l 174 1736 l 174 868 l 0 868 m 0 1910 l 0 2083 l 174 2083 l 174 1910 l 0 1910 z "},"¢":{"ha":868,"x_min":0,"x_max":694,"o":"m 347 868 l 347 1042 l 174 1042 l 174 1215 l 694 1215 l 694 1042 l 521 1042 l 521 868 l 347 868 m 0 1215 l 0 1389 l 174 1389 l 174 1215 l 0 1215 m 174 1389 l 174 1563 l 347 1563 l 347 1736 l 521 1736 l 521 1563 l 694 1563 l 694 1389 l 174 1389 z "},"£":{"ha":1042,"x_min":0,"x_max":868,"o":"m 0 868 l 0 1042 l 174 1042 l 174 1389 l 0 1389 l 0 1563 l 174 1563 l 174 1910 l 347 1910 l 347 1563 l 694 1563 l 694 1389 l 347 1389 l 347 1042 l 868 1042 l 868 868 l 0 868 m 347 1910 l 347 2083 l 868 2083 l 868 1910 l 347 1910 z "},"¤":{"ha":1042,"x_min":0,"x_max":868,"o":"m 0 1042 l 0 1215 l 174 1215 l 174 1042 l 0 1042 m 694 1042 l 694 1215 l 868 1215 l 868 1042 l 694 1042 m 521 1389 l 521 1563 l 347 1563 l 347 1389 l 521 1389 m 174 1215 l 174 1736 l 694 1736 l 694 1215 l 174 1215 m 0 1736 l 0 1910 l 174 1910 l 174 1736 l 0 1736 m 694 1736 l 694 1910 l 868 1910 l 868 1736 l 694 1736 z "},"¥":{"ha":1042,"x_min":0,"x_max":868,"o":"m 347 868 l 347 1042 l 174 1042 l 174 1215 l 347 1215 l 347 1389 l 174 1389 l 174 1563 l 347 1563 l 347 1736 l 521 1736 l 521 1563 l 694 1563 l 694 1389 l 521 1389 l 521 1215 l 694 1215 l 694 1042 l 521 1042 l 521 868 l 347 868 m 174 1736 l 174 1910 l 347 1910 l 347 1736 l 174 1736 m 521 1736 l 521 1910 l 694 1910 l 694 1736 l 521 1736 m 0 1910 l 0 2083 l 174 2083 l 174 1910 l 0 1910 m 694 1910 l 694 2083 l 868 2083 l 868 1910 l 694 1910 z "},"¦":{"ha":347,"x_min":0,"x_max":174,"o":"m 0 868 l 0 1389 l 174 1389 l 174 868 l 0 868 m 0 1563 l 0 2083 l 174 2083 l 174 1563 l 0 1563 z "},"§":{"ha":1042,"x_min":0,"x_max":868,"o":"m 0 868 l 0 1042 l 694 1042 l 694 868 l 0 868 m 694 1042 l 694 1215 l 868 1215 l 868 1042 l 694 1042 m 174 1215 l 174 1389 l 694 1389 l 694 1215 l 174 1215 m 0 1389 l 0 1563 l 174 1563 l 174 1389 l 0 1389 m 694 1389 l 694 1563 l 868 1563 l 868 1389 l 694 1389 m 174 1563 l 174 1736 l 694 1736 l 694 1563 l 174 1563 m 0 1736 l 0 1910 l 174 1910 l 174 1736 l 0 1736 m 174 1910 l 174 2083 l 868 2083 l 868 1910 l 174 1910 z "},"¨":{"ha":868,"x_min":174,"x_max":694,"o":"m 174 1910 l 174 2083 l 347 2083 l 347 1910 l 174 1910 m 521 1910 l 521 2083 l 694 2083 l 694 1910 l 521 1910 z "},"©":{"ha":1389,"x_min":0,"x_max":1215,"o":"m 174 868 l 174 1042 l 1042 1042 l 1042 868 l 174 868 m 521 1215 l 521 1389 l 868 1389 l 868 1215 l 521 1215 m 347 1389 l 347 1563 l 521 1563 l 521 1389 l 347 1389 m 521 1563 l 521 1736 l 868 1736 l 868 1563 l 521 1563 m 0 1042 l 0 1910 l 174 1910 l 174 1042 l 0 1042 m 1042 1042 l 1042 1910 l 1215 1910 l 1215 1042 l 1042 1042 m 174 1910 l 174 2083 l 1042 2083 l 1042 1910 l 174 1910 z "},"ª":{"ha":694,"x_min":0,"x_max":521,"o":"m 0 1042 l 0 1215 l 521 1215 l 521 1042 l 0 1042 m 0 1563 l 0 1736 l 174 1736 l 174 1563 l 0 1563 m 174 1389 l 174 1563 l 347 1563 l 347 1736 l 174 1736 l 174 1910 l 0 1910 l 0 2083 l 347 2083 l 347 1910 l 521 1910 l 521 1389 l 174 1389 z "},"«":{"ha":868,"x_min":0,"x_max":694,"o":"m 174 868 l 174 1042 l 347 1042 l 347 868 l 174 868 m 521 868 l 521 1042 l 694 1042 l 694 868 l 521 868 m 0 1042 l 0 1389 l 174 1389 l 174 1042 l 0 1042 m 347 1042 l 347 1389 l 521 1389 l 521 1042 l 347 1042 m 174 1389 l 174 1563 l 347 1563 l 347 1389 l 174 1389 m 521 1389 l 521 1563 l 694 1563 l 694 1389 l 521 1389 z "},"¬":{"ha":868,"x_min":0,"x_max":694,"o":"m 521 1215 l 521 1563 l 0 1563 l 0 1736 l 694 1736 l 694 1215 l 521 1215 z "},"®":{"ha":1389,"x_min":0,"x_max":1215,"o":"m 174 868 l 174 1042 l 1042 1042 l 1042 868 l 174 868 m 694 1215 l 694 1389 l 868 1389 l 868 1215 l 694 1215 m 347 1215 l 347 1736 l 868 1736 l 868 1563 l 694 1563 l 694 1389 l 521 1389 l 521 1215 l 347 1215 m 0 1042 l 0 1910 l 174 1910 l 174 1042 l 0 1042 m 1042 1042 l 1042 1910 l 1215 1910 l 1215 1042 l 1042 1042 m 174 1910 l 174 2083 l 1042 2083 l 1042 1910 l 174 1910 z "},"¯":{"ha":1042,"x_min":0,"x_max":868,"o":"m 0 1910 l 0 2083 l 868 2083 l 868 1910 l 0 1910 z "},"°":{"ha":694,"x_min":0,"x_max":521,"o":"m 174 1563 l 174 1736 l 347 1736 l 347 1563 l 174 1563 m 0 1736 l 0 1910 l 174 1910 l 174 1736 l 0 1736 m 347 1736 l 347 1910 l 521 1910 l 521 1736 l 347 1736 m 174 1910 l 174 2083 l 347 2083 l 347 1910 l 174 1910 z "},"±":{"ha":1042,"x_min":0,"x_max":868,"o":"m 0 868 l 0 1042 l 868 1042 l 868 868 l 0 868 m 347 1215 l 347 1563 l 0 1563 l 0 1736 l 347 1736 l 347 2083 l 521 2083 l 521 1736 l 868 1736 l 868 1563 l 521 1563 l 521 1215 l 347 1215 z "},"²":{"ha":694,"x_min":0,"x_max":521,"o":"m 0 1389 l 0 1563 l 174 1563 l 174 1736 l 347 1736 l 347 1563 l 521 1563 l 521 1389 l 0 1389 m 347 1736 l 347 1910 l 521 1910 l 521 1736 l 347 1736 m 0 1910 l 0 2083 l 347 2083 l 347 1910 l 0 1910 z "},"³":{"ha":694,"x_min":0,"x_max":521,"o":"m 0 1389 l 0 1563 l 347 1563 l 347 1389 l 0 1389 m 347 1563 l 347 1736 l 174 1736 l 174 1910 l 0 1910 l 0 2083 l 347 2083 l 347 1910 l 521 1910 l 521 1563 l 347 1563 z "},"´":{"ha":521,"x_min":0,"x_max":347,"o":"m 0 1910 l 0 2083 l 174 2083 l 174 1910 l 0 1910 m 174 2083 l 174 2257 l 347 2257 l 347 2083 l 174 2083 z "},"µ":{"ha":1042,"x_min":0,"x_max":868,"o":"m 0 694 l 0 1736 l 174 1736 l 174 1042 l 521 1042 l 521 868 l 174 868 l 174 694 l 0 694 m 694 868 l 694 1042 l 521 1042 l 521 1215 l 694 1215 l 694 1736 l 868 1736 l 868 868 l 694 868 z "},"¶":{"ha":1042,"x_min":0,"x_max":868,"o":"m 694 868 l 694 1910 l 521 1910 l 521 1389 l 174 1389 l 174 1563 l 0 1563 l 0 1910 l 174 1910 l 174 2083 l 868 2083 l 868 868 l 694 868 z "},"·":{"ha":347,"x_min":0,"x_max":174,"o":"m 0 1215 l 0 1389 l 174 1389 l 174 1215 l 0 1215 z "},"¸":{"ha":694,"x_min":174,"x_max":521,"o":"m 174 521 l 174 694 l 347 694 l 347 868 l 521 868 l 521 521 l 174 521 z "},"¹":{"ha":694,"x_min":0,"x_max":521,"o":"m 0 1389 l 0 1563 l 174 1563 l 174 1736 l 0 1736 l 0 1910 l 174 1910 l 174 2083 l 347 2083 l 347 1563 l 521 1563 l 521 1389 l 0 1389 z "},"º":{"ha":694,"x_min":0,"x_max":521,"o":"m 0 1042 l 0 1215 l 521 1215 l 521 1042 l 0 1042 m 174 1389 l 174 1563 l 347 1563 l 347 1389 l 174 1389 m 0 1563 l 0 1910 l 174 1910 l 174 1563 l 0 1563 m 347 1563 l 347 1910 l 521 1910 l 521 1563 l 347 1563 m 174 1910 l 174 2083 l 347 2083 l 347 1910 l 174 1910 z "},"»":{"ha":868,"x_min":0,"x_max":694,"o":"m 0 868 l 0 1042 l 174 1042 l 174 868 l 0 868 m 347 868 l 347 1042 l 521 1042 l 521 868 l 347 868 m 174 1042 l 174 1389 l 347 1389 l 347 1042 l 174 1042 m 521 1042 l 521 1389 l 694 1389 l 694 1042 l 521 1042 m 0 1389 l 0 1563 l 174 1563 l 174 1389 l 0 1389 m 347 1389 l 347 1563 l 521 1563 l 521 1389 l 347 1389 z "},"¼":{"ha":1563,"x_min":0,"x_max":1389,"o":"m 347 868 l 347 1042 l 521 1042 l 521 868 l 347 868 m 521 1042 l 521 1389 l 694 1389 l 694 1042 l 521 1042 m 694 1389 l 694 1563 l 868 1563 l 868 1389 l 694 1389 m 1215 868 l 1215 1042 l 868 1042 l 868 1389 l 1042 1389 l 1042 1215 l 1215 1215 l 1215 1389 l 1042 1389 l 1042 1563 l 1389 1563 l 1389 868 l 1215 868 m 868 1563 l 868 1910 l 1042 1910 l 1042 1563 l 868 1563 m 0 1389 l 0 1563 l 174 1563 l 174 1736 l 0 1736 l 0 1910 l 174 1910 l 174 2083 l 347 2083 l 347 1563 l 521 1563 l 521 1389 l 0 1389 m 1042 1910 l 1042 2083 l 1215 2083 l 1215 1910 l 1042 1910 z "},"½":{"ha":1563,"x_min":0,"x_max":1389,"o":"m 347 868 l 347 1042 l 521 1042 l 521 868 l 347 868 m 868 868 l 868 1042 l 1042 1042 l 1042 1215 l 1215 1215 l 1215 1042 l 1389 1042 l 1389 868 l 868 868 m 521 1042 l 521 1389 l 694 1389 l 694 1042 l 521 1042 m 1215 1215 l 1215 1389 l 1389 1389 l 1389 1215 l 1215 1215 m 694 1389 l 694 1563 l 868 1563 l 868 1910 l 1042 1910 l 1042 1563 l 1215 1563 l 1215 1389 l 694 1389 m 0 1389 l 0 1563 l 174 1563 l 174 1736 l 0 1736 l 0 1910 l 174 1910 l 174 2083 l 347 2083 l 347 1563 l 521 1563 l 521 1389 l 0 1389 m 1042 1910 l 1042 2083 l 1215 2083 l 1215 1910 l 1042 1910 z "},"¾":{"ha":1563,"x_min":0,"x_max":1389,"o":"m 347 868 l 347 1042 l 521 1042 l 521 868 l 347 868 m 521 1042 l 521 1389 l 694 1389 l 694 1042 l 521 1042 m 0 1389 l 0 1563 l 347 1563 l 347 1389 l 0 1389 m 694 1389 l 694 1563 l 868 1563 l 868 1389 l 694 1389 m 1215 868 l 1215 1042 l 868 1042 l 868 1389 l 1042 1389 l 1042 1215 l 1215 1215 l 1215 1389 l 1042 1389 l 1042 1563 l 1389 1563 l 1389 868 l 1215 868 m 868 1563 l 868 1910 l 1042 1910 l 1042 1563 l 868 1563 m 347 1563 l 347 1736 l 174 1736 l 174 1910 l 0 1910 l 0 2083 l 347 2083 l 347 1910 l 521 1910 l 521 1563 l 347 1563 m 1042 1910 l 1042 2083 l 1215 2083 l 1215 1910 l 1042 1910 z "},"¿":{"ha":1042,"x_min":0,"x_max":868,"o":"m 174 868 l 174 1042 l 694 1042 l 694 868 l 174 868 m 694 1042 l 694 1215 l 868 1215 l 868 1042 l 694 1042 m 0 1042 l 0 1389 l 174 1389 l 174 1042 l 0 1042 m 174 1389 l 174 1563 l 347 1563 l 347 1389 l 174 1389 m 347 1563 l 347 1736 l 521 1736 l 521 1563 l 347 1563 m 347 1910 l 347 2083 l 521 2083 l 521 1910 l 347 1910 z "},"À":{"ha":1042,"x_min":0,"x_max":868,"o":"m 0 868 l 0 1910 l 174 1910 l 174 1736 l 694 1736 l 694 1910 l 868 1910 l 868 868 l 694 868 l 694 1563 l 174 1563 l 174 868 l 0 868 m 174 1910 l 174 2083 l 347 2083 l 347 2257 l 521 2257 l 521 2083 l 694 2083 l 694 1910 l 174 1910 m 174 2257 l 174 2431 l 347 2431 l 347 2257 l 174 2257 z "},"Á":{"ha":1042,"x_min":0,"x_max":868,"o":"m 0 868 l 0 1910 l 174 1910 l 174 1736 l 694 1736 l 694 1910 l 868 1910 l 868 868 l 694 868 l 694 1563 l 174 1563 l 174 868 l 0 868 m 174 1910 l 174 2083 l 347 2083 l 347 2257 l 521 2257 l 521 2083 l 694 2083 l 694 1910 l 174 1910 m 521 2257 l 521 2431 l 694 2431 l 694 2257 l 521 2257 z "},"Â":{"ha":1042,"x_min":0,"x_max":868,"o":"m 0 868 l 0 1910 l 174 1910 l 174 1736 l 694 1736 l 694 1910 l 868 1910 l 868 868 l 694 868 l 694 1563 l 174 1563 l 174 868 l 0 868 m 174 1910 l 174 2257 l 347 2257 l 347 2083 l 521 2083 l 521 2257 l 694 2257 l 694 1910 l 174 1910 m 347 2257 l 347 2431 l 521 2431 l 521 2257 l 347 2257 z "},"Ã":{"ha":1042,"x_min":0,"x_max":868,"o":"m 0 868 l 0 1910 l 174 1910 l 174 1736 l 694 1736 l 694 1910 l 868 1910 l 868 868 l 694 868 l 694 1563 l 174 1563 l 174 868 l 0 868 m 0 2083 l 0 2257 l 174 2257 l 174 2083 l 0 2083 m 174 1910 l 174 2083 l 347 2083 l 347 2257 l 174 2257 l 174 2431 l 521 2431 l 521 2257 l 694 2257 l 694 1910 l 174 1910 m 694 2257 l 694 2431 l 868 2431 l 868 2257 l 694 2257 z "},"Ä":{"ha":1042,"x_min":0,"x_max":868,"o":"m 0 868 l 0 1910 l 174 1910 l 174 1736 l 694 1736 l 694 1910 l 868 1910 l 868 868 l 694 868 l 694 1563 l 174 1563 l 174 868 l 0 868 m 174 1910 l 174 2083 l 694 2083 l 694 1910 l 174 1910 m 174 2257 l 174 2431 l 347 2431 l 347 2257 l 174 2257 m 521 2257 l 521 2431 l 694 2431 l 694 2257 l 521 2257 z "},"Å":{"ha":1042,"x_min":0,"x_max":868,"o":"m 0 868 l 0 1910 l 174 1910 l 174 1736 l 694 1736 l 694 1910 l 868 1910 l 868 868 l 694 868 l 694 1563 l 174 1563 l 174 868 l 0 868 m 521 2083 l 521 2257 l 347 2257 l 347 2083 l 521 2083 m 174 1910 l 174 2431 l 694 2431 l 694 1910 l 174 1910 z "},"Æ":{"ha":1736,"x_min":0,"x_max":1563,"o":"m 0 868 l 0 1910 l 174 1910 l 174 1736 l 694 1736 l 694 1910 l 174 1910 l 174 2083 l 1563 2083 l 1563 1910 l 868 1910 l 868 1736 l 1215 1736 l 1215 1563 l 868 1563 l 868 1042 l 1563 1042 l 1563 868 l 694 868 l 694 1563 l 174 1563 l 174 868 l 0 868 z "},"Ç":{"ha":1042,"x_min":0,"x_max":868,"o":"m 174 521 l 174 694 l 347 694 l 347 868 l 174 868 l 174 1042 l 694 1042 l 694 868 l 521 868 l 521 521 l 174 521 m 694 1042 l 694 1215 l 868 1215 l 868 1042 l 694 1042 m 0 1042 l 0 1910 l 174 1910 l 174 1042 l 0 1042 m 694 1736 l 694 1910 l 868 1910 l 868 1736 l 694 1736 m 174 1910 l 174 2083 l 694 2083 l 694 1910 l 174 1910 z "},"È":{"ha":1042,"x_min":0,"x_max":868,"o":"m 0 868 l 0 2083 l 347 2083 l 347 2257 l 521 2257 l 521 2083 l 868 2083 l 868 1910 l 174 1910 l 174 1736 l 521 1736 l 521 1563 l 174 1563 l 174 1042 l 868 1042 l 868 868 l 0 868 m 174 2257 l 174 2431 l 347 2431 l 347 2257 l 174 2257 z "},"É":{"ha":1042,"x_min":0,"x_max":868,"o":"m 0 868 l 0 2083 l 347 2083 l 347 2257 l 521 2257 l 521 2083 l 868 2083 l 868 1910 l 174 1910 l 174 1736 l 521 1736 l 521 1563 l 174 1563 l 174 1042 l 868 1042 l 868 868 l 0 868 m 521 2257 l 521 2431 l 694 2431 l 694 2257 l 521 2257 z "},"Ê":{"ha":1042,"x_min":0,"x_max":868,"o":"m 0 868 l 0 2083 l 174 2083 l 174 2257 l 347 2257 l 347 2083 l 521 2083 l 521 2257 l 694 2257 l 694 2083 l 868 2083 l 868 1910 l 174 1910 l 174 1736 l 521 1736 l 521 1563 l 174 1563 l 174 1042 l 868 1042 l 868 868 l 0 868 m 347 2257 l 347 2431 l 521 2431 l 521 2257 l 347 2257 z "},"Ë":{"ha":1042,"x_min":0,"x_max":868,"o":"m 0 868 l 0 2083 l 868 2083 l 868 1910 l 174 1910 l 174 1736 l 521 1736 l 521 1563 l 174 1563 l 174 1042 l 868 1042 l 868 868 l 0 868 m 174 2257 l 174 2431 l 347 2431 l 347 2257 l 174 2257 m 521 2257 l 521 2431 l 694 2431 l 694 2257 l 521 2257 z "},"Ì":{"ha":694,"x_min":0,"x_max":521,"o":"m 0 868 l 0 1042 l 174 1042 l 174 1910 l 0 1910 l 0 2083 l 174 2083 l 174 2257 l 347 2257 l 347 2083 l 521 2083 l 521 1910 l 347 1910 l 347 1042 l 521 1042 l 521 868 l 0 868 m 0 2257 l 0 2431 l 174 2431 l 174 2257 l 0 2257 z "},"Í":{"ha":694,"x_min":0,"x_max":521,"o":"m 0 868 l 0 1042 l 174 1042 l 174 1910 l 0 1910 l 0 2083 l 174 2083 l 174 2257 l 347 2257 l 347 2083 l 521 2083 l 521 1910 l 347 1910 l 347 1042 l 521 1042 l 521 868 l 0 868 m 347 2257 l 347 2431 l 521 2431 l 521 2257 l 347 2257 z "},"Î":{"ha":694,"x_min":0,"x_max":521,"o":"m 0 868 l 0 1042 l 174 1042 l 174 1910 l 0 1910 l 0 2257 l 174 2257 l 174 2083 l 347 2083 l 347 2257 l 521 2257 l 521 1910 l 347 1910 l 347 1042 l 521 1042 l 521 868 l 0 868 m 174 2257 l 174 2431 l 347 2431 l 347 2257 l 174 2257 z "},"Ï":{"ha":694,"x_min":0,"x_max":521,"o":"m 0 868 l 0 1042 l 174 1042 l 174 1910 l 0 1910 l 0 2083 l 521 2083 l 521 1910 l 347 1910 l 347 1042 l 521 1042 l 521 868 l 0 868 m 0 2257 l 0 2431 l 174 2431 l 174 2257 l 0 2257 m 347 2257 l 347 2431 l 521 2431 l 521 2257 l 347 2257 z "},"Ð":{"ha":1215,"x_min":0,"x_max":1042,"o":"m 868 1042 l 868 1910 l 1042 1910 l 1042 1042 l 868 1042 m 174 868 l 174 1563 l 0 1563 l 0 1736 l 174 1736 l 174 2083 l 868 2083 l 868 1910 l 347 1910 l 347 1736 l 521 1736 l 521 1563 l 347 1563 l 347 1042 l 868 1042 l 868 868 l 174 868 z "},"Ñ":{"ha":1042,"x_min":0,"x_max":868,"o":"m 347 1563 l 347 1736 l 521 1736 l 521 1563 l 347 1563 m 694 868 l 694 1389 l 521 1389 l 521 1563 l 694 1563 l 694 2083 l 868 2083 l 868 868 l 694 868 m 0 868 l 0 2257 l 174 2257 l 174 1910 l 347 1910 l 347 1736 l 174 1736 l 174 868 l 0 868 m 347 2083 l 347 2257 l 174 2257 l 174 2431 l 521 2431 l 521 2257 l 694 2257 l 694 2083 l 347 2083 m 694 2257 l 694 2431 l 868 2431 l 868 2257 l 694 2257 z "},"Ò":{"ha":1042,"x_min":0,"x_max":868,"o":"m 174 868 l 174 1042 l 694 1042 l 694 868 l 174 868 m 0 1042 l 0 1910 l 174 1910 l 174 1042 l 0 1042 m 694 1042 l 694 1910 l 868 1910 l 868 1042 l 694 1042 m 174 1910 l 174 2083 l 347 2083 l 347 2257 l 521 2257 l 521 2083 l 694 2083 l 694 1910 l 174 1910 m 174 2257 l 174 2431 l 347 2431 l 347 2257 l 174 2257 z "},"Ó":{"ha":1042,"x_min":0,"x_max":868,"o":"m 174 868 l 174 1042 l 694 1042 l 694 868 l 174 868 m 0 1042 l 0 1910 l 174 1910 l 174 1042 l 0 1042 m 694 1042 l 694 1910 l 868 1910 l 868 1042 l 694 1042 m 174 1910 l 174 2083 l 347 2083 l 347 2257 l 521 2257 l 521 2083 l 694 2083 l 694 1910 l 174 1910 m 521 2257 l 521 2431 l 694 2431 l 694 2257 l 521 2257 z "},"Ô":{"ha":1042,"x_min":0,"x_max":868,"o":"m 174 868 l 174 1042 l 694 1042 l 694 868 l 174 868 m 0 1042 l 0 1910 l 174 1910 l 174 1042 l 0 1042 m 694 1042 l 694 1910 l 868 1910 l 868 1042 l 694 1042 m 174 1910 l 174 2257 l 347 2257 l 347 2083 l 521 2083 l 521 2257 l 694 2257 l 694 1910 l 174 1910 m 347 2257 l 347 2431 l 521 2431 l 521 2257 l 347 2257 z "},"Õ":{"ha":1042,"x_min":0,"x_max":868,"o":"m 174 868 l 174 1042 l 694 1042 l 694 868 l 174 868 m 0 1042 l 0 1910 l 174 1910 l 174 1042 l 0 1042 m 694 1042 l 694 1910 l 868 1910 l 868 1042 l 694 1042 m 0 2083 l 0 2257 l 174 2257 l 174 2083 l 0 2083 m 174 1910 l 174 2083 l 347 2083 l 347 2257 l 174 2257 l 174 2431 l 521 2431 l 521 2257 l 694 2257 l 694 1910 l 174 1910 m 694 2257 l 694 2431 l 868 2431 l 868 2257 l 694 2257 z "},"Ö":{"ha":1042,"x_min":0,"x_max":868,"o":"m 174 868 l 174 1042 l 694 1042 l 694 868 l 174 868 m 0 1042 l 0 1910 l 174 1910 l 174 1042 l 0 1042 m 694 1042 l 694 1910 l 868 1910 l 868 1042 l 694 1042 m 174 1910 l 174 2083 l 694 2083 l 694 1910 l 174 1910 m 174 2257 l 174 2431 l 347 2431 l 347 2257 l 174 2257 m 521 2257 l 521 2431 l 694 2431 l 694 2257 l 521 2257 z "},"×":{"ha":868,"x_min":0,"x_max":694,"o":"m 0 868 l 0 1042 l 174 1042 l 174 868 l 0 868 m 521 868 l 521 1042 l 694 1042 l 694 868 l 521 868 m 174 1042 l 174 1389 l 521 1389 l 521 1042 l 174 1042 m 0 1389 l 0 1563 l 174 1563 l 174 1389 l 0 1389 m 521 1389 l 521 1563 l 694 1563 l 694 1389 l 521 1389 z "},"Ø":{"ha":1042,"x_min":0,"x_max":868,"o":"m 0 868 l 0 1042 l 174 1042 l 174 868 l 0 868 m 347 868 l 347 1042 l 694 1042 l 694 868 l 347 868 m 347 1389 l 347 1563 l 521 1563 l 521 1389 l 347 1389 m 174 1042 l 174 1215 l 0 1215 l 0 1910 l 174 1910 l 174 1389 l 347 1389 l 347 1042 l 174 1042 m 694 1042 l 694 1563 l 521 1563 l 521 1910 l 694 1910 l 694 1736 l 868 1736 l 868 1042 l 694 1042 m 174 1910 l 174 2083 l 521 2083 l 521 1910 l 174 1910 m 694 1910 l 694 2083 l 868 2083 l 868 1910 l 694 1910 z "},"Ù":{"ha":1042,"x_min":0,"x_max":868,"o":"m 174 868 l 174 1042 l 694 1042 l 694 868 l 174 868 m 0 1042 l 0 2083 l 174 2083 l 174 1042 l 0 1042 m 694 1042 l 694 2083 l 868 2083 l 868 1042 l 694 1042 m 347 2083 l 347 2257 l 521 2257 l 521 2083 l 347 2083 m 174 2257 l 174 2431 l 347 2431 l 347 2257 l 174 2257 z "},"Ú":{"ha":1042,"x_min":0,"x_max":868,"o":"m 174 868 l 174 1042 l 694 1042 l 694 868 l 174 868 m 0 1042 l 0 2083 l 174 2083 l 174 1042 l 0 1042 m 694 1042 l 694 2083 l 868 2083 l 868 1042 l 694 1042 m 347 2083 l 347 2257 l 521 2257 l 521 2083 l 347 2083 m 521 2257 l 521 2431 l 694 2431 l 694 2257 l 521 2257 z "},"Û":{"ha":1042,"x_min":0,"x_max":868,"o":"m 174 868 l 174 1042 l 694 1042 l 694 868 l 174 868 m 0 1042 l 0 2083 l 174 2083 l 174 1042 l 0 1042 m 694 1042 l 694 2083 l 868 2083 l 868 1042 l 694 1042 m 174 2083 l 174 2257 l 347 2257 l 347 2083 l 174 2083 m 521 2083 l 521 2257 l 694 2257 l 694 2083 l 521 2083 m 347 2257 l 347 2431 l 521 2431 l 521 2257 l 347 2257 z "},"Ü":{"ha":1042,"x_min":0,"x_max":868,"o":"m 174 868 l 174 1042 l 694 1042 l 694 868 l 174 868 m 0 1042 l 0 2083 l 174 2083 l 174 1042 l 0 1042 m 694 1042 l 694 2083 l 868 2083 l 868 1042 l 694 1042 m 174 2257 l 174 2431 l 347 2431 l 347 2257 l 174 2257 m 521 2257 l 521 2431 l 694 2431 l 694 2257 l 521 2257 z "},"Ý":{"ha":1042,"x_min":0,"x_max":868,"o":"m 347 868 l 347 1736 l 521 1736 l 521 868 l 347 868 m 174 1736 l 174 1910 l 347 1910 l 347 1736 l 174 1736 m 521 1736 l 521 1910 l 694 1910 l 694 1736 l 521 1736 m 0 1910 l 0 2083 l 174 2083 l 174 1910 l 0 1910 m 694 1910 l 694 2083 l 868 2083 l 868 1910 l 694 1910 m 347 2083 l 347 2257 l 521 2257 l 521 2083 l 347 2083 m 521 2257 l 521 2431 l 694 2431 l 694 2257 l 521 2257 z "},"Þ":{"ha":1042,"x_min":0,"x_max":868,"o":"m 694 1563 l 694 1736 l 868 1736 l 868 1563 l 694 1563 m 0 868 l 0 2083 l 174 2083 l 174 1910 l 694 1910 l 694 1736 l 174 1736 l 174 1563 l 694 1563 l 694 1389 l 174 1389 l 174 868 l 0 868 z "},"ß":{"ha":1042,"x_min":0,"x_max":868,"o":"m 347 868 l 347 1042 l 694 1042 l 694 868 l 347 868 m 694 1042 l 694 1563 l 868 1563 l 868 1042 l 694 1042 m 0 868 l 0 1910 l 174 1910 l 174 868 l 0 868 m 347 1563 l 347 1736 l 521 1736 l 521 1910 l 694 1910 l 694 1563 l 347 1563 m 174 1910 l 174 2083 l 521 2083 l 521 1910 l 174 1910 z "},"à":{"ha":1042,"x_min":0,"x_max":868,"o":"m 0 1042 l 0 1215 l 174 1215 l 174 1042 l 0 1042 m 174 868 l 174 1042 l 694 1042 l 694 1215 l 174 1215 l 174 1389 l 694 1389 l 694 1563 l 868 1563 l 868 868 l 174 868 m 174 1563 l 174 1736 l 694 1736 l 694 1563 l 174 1563 m 347 1910 l 347 2083 l 521 2083 l 521 1910 l 347 1910 m 174 2083 l 174 2257 l 347 2257 l 347 2083 l 174 2083 z "},"á":{"ha":1042,"x_min":0,"x_max":868,"o":"m 0 1042 l 0 1215 l 174 1215 l 174 1042 l 0 1042 m 174 868 l 174 1042 l 694 1042 l 694 1215 l 174 1215 l 174 1389 l 694 1389 l 694 1563 l 868 1563 l 868 868 l 174 868 m 174 1563 l 174 1736 l 694 1736 l 694 1563 l 174 1563 m 347 1910 l 347 2083 l 521 2083 l 521 1910 l 347 1910 m 521 2083 l 521 2257 l 694 2257 l 694 2083 l 521 2083 z "},"â":{"ha":1042,"x_min":0,"x_max":868,"o":"m 0 1042 l 0 1215 l 174 1215 l 174 1042 l 0 1042 m 174 868 l 174 1042 l 694 1042 l 694 1215 l 174 1215 l 174 1389 l 694 1389 l 694 1563 l 868 1563 l 868 868 l 174 868 m 174 1563 l 174 1736 l 694 1736 l 694 1563 l 174 1563 m 174 1910 l 174 2083 l 347 2083 l 347 1910 l 174 1910 m 521 1910 l 521 2083 l 694 2083 l 694 1910 l 521 1910 m 347 2083 l 347 2257 l 521 2257 l 521 2083 l 347 2083 z "},"ã":{"ha":1042,"x_min":0,"x_max":868,"o":"m 0 1042 l 0 1215 l 174 1215 l 174 1042 l 0 1042 m 174 868 l 174 1042 l 694 1042 l 694 1215 l 174 1215 l 174 1389 l 694 1389 l 694 1563 l 868 1563 l 868 868 l 174 868 m 174 1563 l 174 1736 l 694 1736 l 694 1563 l 174 1563 m 0 1910 l 0 2083 l 174 2083 l 174 1910 l 0 1910 m 347 1910 l 347 2083 l 174 2083 l 174 2257 l 521 2257 l 521 2083 l 694 2083 l 694 1910 l 347 1910 m 694 2083 l 694 2257 l 868 2257 l 868 2083 l 694 2083 z "},"ä":{"ha":1042,"x_min":0,"x_max":868,"o":"m 0 1042 l 0 1215 l 174 1215 l 174 1042 l 0 1042 m 174 868 l 174 1042 l 694 1042 l 694 1215 l 174 1215 l 174 1389 l 694 1389 l 694 1563 l 868 1563 l 868 868 l 174 868 m 174 1563 l 174 1736 l 694 1736 l 694 1563 l 174 1563 m 174 1910 l 174 2083 l 347 2083 l 347 1910 l 174 1910 m 521 1910 l 521 2083 l 694 2083 l 694 1910 l 521 1910 z "},"å":{"ha":1042,"x_min":0,"x_max":868,"o":"m 0 1042 l 0 1215 l 174 1215 l 174 1042 l 0 1042 m 174 868 l 174 1042 l 694 1042 l 694 1215 l 174 1215 l 174 1389 l 694 1389 l 694 1563 l 868 1563 l 868 868 l 174 868 m 174 1563 l 174 1736 l 694 1736 l 694 1563 l 174 1563 m 521 2083 l 521 2257 l 347 2257 l 347 2083 l 521 2083 m 174 1910 l 174 2431 l 694 2431 l 694 1910 l 174 1910 z "},"æ":{"ha":1736,"x_min":0,"x_max":1563,"o":"m 174 868 l 174 1042 l 694 1042 l 694 868 l 174 868 m 868 868 l 868 1042 l 1389 1042 l 1389 868 l 868 868 m 0 1042 l 0 1215 l 174 1215 l 174 1042 l 0 1042 m 694 1042 l 694 1215 l 174 1215 l 174 1389 l 694 1389 l 694 1563 l 868 1563 l 868 1389 l 1389 1389 l 1389 1563 l 1563 1563 l 1563 1215 l 868 1215 l 868 1042 l 694 1042 m 174 1563 l 174 1736 l 694 1736 l 694 1563 l 174 1563 m 868 1563 l 868 1736 l 1389 1736 l 1389 1563 l 868 1563 z "},"ç":{"ha":1042,"x_min":0,"x_max":868,"o":"m 174 521 l 174 694 l 347 694 l 347 868 l 174 868 l 174 1042 l 694 1042 l 694 868 l 521 868 l 521 521 l 174 521 m 694 1042 l 694 1215 l 868 1215 l 868 1042 l 694 1042 m 0 1042 l 0 1563 l 174 1563 l 174 1042 l 0 1042 m 694 1389 l 694 1563 l 868 1563 l 868 1389 l 694 1389 m 174 1563 l 174 1736 l 694 1736 l 694 1563 l 174 1563 z "},"è":{"ha":1042,"x_min":0,"x_max":868,"o":"m 174 868 l 174 1042 l 868 1042 l 868 868 l 174 868 m 0 1042 l 0 1563 l 174 1563 l 174 1389 l 694 1389 l 694 1563 l 868 1563 l 868 1215 l 174 1215 l 174 1042 l 0 1042 m 174 1563 l 174 1736 l 694 1736 l 694 1563 l 174 1563 m 347 1910 l 347 2083 l 521 2083 l 521 1910 l 347 1910 m 174 2083 l 174 2257 l 347 2257 l 347 2083 l 174 2083 z "},"é":{"ha":1042,"x_min":0,"x_max":868,"o":"m 174 868 l 174 1042 l 868 1042 l 868 868 l 174 868 m 0 1042 l 0 1563 l 174 1563 l 174 1389 l 694 1389 l 694 1563 l 868 1563 l 868 1215 l 174 1215 l 174 1042 l 0 1042 m 174 1563 l 174 1736 l 694 1736 l 694 1563 l 174 1563 m 347 1910 l 347 2083 l 521 2083 l 521 1910 l 347 1910 m 521 2083 l 521 2257 l 694 2257 l 694 2083 l 521 2083 z "},"ê":{"ha":1042,"x_min":0,"x_max":868,"o":"m 174 868 l 174 1042 l 868 1042 l 868 868 l 174 868 m 0 1042 l 0 1563 l 174 1563 l 174 1389 l 694 1389 l 694 1563 l 868 1563 l 868 1215 l 174 1215 l 174 1042 l 0 1042 m 174 1563 l 174 1736 l 694 1736 l 694 1563 l 174 1563 m 174 1910 l 174 2083 l 347 2083 l 347 1910 l 174 1910 m 521 1910 l 521 2083 l 694 2083 l 694 1910 l 521 1910 m 347 2083 l 347 2257 l 521 2257 l 521 2083 l 347 2083 z "},"ë":{"ha":1042,"x_min":0,"x_max":868,"o":"m 174 868 l 174 1042 l 868 1042 l 868 868 l 174 868 m 0 1042 l 0 1563 l 174 1563 l 174 1389 l 694 1389 l 694 1563 l 868 1563 l 868 1215 l 174 1215 l 174 1042 l 0 1042 m 174 1563 l 174 1736 l 694 1736 l 694 1563 l 174 1563 m 174 1910 l 174 2083 l 347 2083 l 347 1910 l 174 1910 m 521 1910 l 521 2083 l 694 2083 l 694 1910 l 521 1910 z "},"ì":{"ha":347,"x_min":-174,"x_max":174,"o":"m 0 868 l 0 1736 l 174 1736 l 174 868 l 0 868 m 0 1910 l 0 2083 l 174 2083 l 174 1910 l 0 1910 m -174 2083 l -174 2257 l 0 2257 l 0 2083 l -174 2083 z "},"í":{"ha":521,"x_min":0,"x_max":347,"o":"m 0 868 l 0 1736 l 174 1736 l 174 868 l 0 868 m 0 1910 l 0 2083 l 174 2083 l 174 1910 l 0 1910 m 174 2083 l 174 2257 l 347 2257 l 347 2083 l 174 2083 z "},"î":{"ha":521,"x_min":-174,"x_max":347,"o":"m 0 868 l 0 1736 l 174 1736 l 174 868 l 0 868 m -174 1910 l -174 2083 l 0 2083 l 0 1910 l -174 1910 m 174 1910 l 174 2083 l 347 2083 l 347 1910 l 174 1910 m 0 2083 l 0 2257 l 174 2257 l 174 2083 l 0 2083 z "},"ï":{"ha":521,"x_min":-174,"x_max":347,"o":"m 0 868 l 0 1736 l 174 1736 l 174 868 l 0 868 m -174 1910 l -174 2083 l 0 2083 l 0 1910 l -174 1910 m 174 1910 l 174 2083 l 347 2083 l 347 1910 l 174 1910 z "},"ð":{"ha":1042,"x_min":0,"x_max":868,"o":"m 174 868 l 174 1042 l 694 1042 l 694 868 l 174 868 m 0 1042 l 0 1215 l 174 1215 l 174 1042 l 0 1042 m 347 1563 l 347 1736 l 521 1736 l 521 1563 l 347 1563 m 694 1042 l 694 1215 l 174 1215 l 174 1389 l 694 1389 l 694 1736 l 868 1736 l 868 1042 l 694 1042 m 521 1736 l 521 1910 l 694 1910 l 694 1736 l 521 1736 m 347 1910 l 347 2083 l 521 2083 l 521 1910 l 347 1910 m 694 1910 l 694 2083 l 868 2083 l 868 1910 l 694 1910 z "},"ñ":{"ha":1042,"x_min":0,"x_max":868,"o":"m 694 868 l 694 1563 l 868 1563 l 868 868 l 694 868 m 0 868 l 0 1736 l 694 1736 l 694 1563 l 174 1563 l 174 868 l 0 868 m 0 1910 l 0 2083 l 174 2083 l 174 1910 l 0 1910 m 347 1910 l 347 2083 l 174 2083 l 174 2257 l 521 2257 l 521 2083 l 694 2083 l 694 1910 l 347 1910 m 694 2083 l 694 2257 l 868 2257 l 868 2083 l 694 2083 z "},"ò":{"ha":1042,"x_min":0,"x_max":868,"o":"m 174 868 l 174 1042 l 694 1042 l 694 868 l 174 868 m 0 1042 l 0 1563 l 174 1563 l 174 1042 l 0 1042 m 694 1042 l 694 1563 l 868 1563 l 868 1042 l 694 1042 m 174 1563 l 174 1736 l 694 1736 l 694 1563 l 174 1563 m 347 1910 l 347 2083 l 521 2083 l 521 1910 l 347 1910 m 174 2083 l 174 2257 l 347 2257 l 347 2083 l 174 2083 z "},"ó":{"ha":1042,"x_min":0,"x_max":868,"o":"m 174 868 l 174 1042 l 694 1042 l 694 868 l 174 868 m 0 1042 l 0 1563 l 174 1563 l 174 1042 l 0 1042 m 694 1042 l 694 1563 l 868 1563 l 868 1042 l 694 1042 m 174 1563 l 174 1736 l 694 1736 l 694 1563 l 174 1563 m 347 1910 l 347 2083 l 521 2083 l 521 1910 l 347 1910 m 521 2083 l 521 2257 l 694 2257 l 694 2083 l 521 2083 z "},"ô":{"ha":1042,"x_min":0,"x_max":868,"o":"m 174 868 l 174 1042 l 694 1042 l 694 868 l 174 868 m 0 1042 l 0 1563 l 174 1563 l 174 1042 l 0 1042 m 694 1042 l 694 1563 l 868 1563 l 868 1042 l 694 1042 m 174 1563 l 174 1736 l 694 1736 l 694 1563 l 174 1563 m 174 1910 l 174 2083 l 347 2083 l 347 1910 l 174 1910 m 521 1910 l 521 2083 l 694 2083 l 694 1910 l 521 1910 m 347 2083 l 347 2257 l 521 2257 l 521 2083 l 347 2083 z "},"õ":{"ha":1042,"x_min":0,"x_max":868,"o":"m 174 868 l 174 1042 l 694 1042 l 694 868 l 174 868 m 0 1042 l 0 1563 l 174 1563 l 174 1042 l 0 1042 m 694 1042 l 694 1563 l 868 1563 l 868 1042 l 694 1042 m 174 1563 l 174 1736 l 694 1736 l 694 1563 l 174 1563 m 0 1910 l 0 2083 l 174 2083 l 174 1910 l 0 1910 m 347 1910 l 347 2083 l 174 2083 l 174 2257 l 521 2257 l 521 2083 l 694 2083 l 694 1910 l 347 1910 m 694 2083 l 694 2257 l 868 2257 l 868 2083 l 694 2083 z "},"ö":{"ha":1042,"x_min":0,"x_max":868,"o":"m 174 868 l 174 1042 l 694 1042 l 694 868 l 174 868 m 0 1042 l 0 1563 l 174 1563 l 174 1042 l 0 1042 m 694 1042 l 694 1563 l 868 1563 l 868 1042 l 694 1042 m 174 1563 l 174 1736 l 694 1736 l 694 1563 l 174 1563 m 174 1910 l 174 2083 l 347 2083 l 347 1910 l 174 1910 m 521 1910 l 521 2083 l 694 2083 l 694 1910 l 521 1910 z "},"÷":{"ha":1042,"x_min":0,"x_max":868,"o":"m 347 868 l 347 1042 l 521 1042 l 521 868 l 347 868 m 0 1215 l 0 1389 l 868 1389 l 868 1215 l 0 1215 m 347 1563 l 347 1736 l 521 1736 l 521 1563 l 347 1563 z "},"ø":{"ha":1042,"x_min":0,"x_max":868,"o":"m 0 868 l 0 1042 l 174 1042 l 174 868 l 0 868 m 347 868 l 347 1042 l 694 1042 l 694 868 l 347 868 m 174 1042 l 174 1215 l 347 1215 l 347 1042 l 174 1042 m 347 1215 l 347 1389 l 521 1389 l 521 1215 l 347 1215 m 694 1042 l 694 1389 l 868 1389 l 868 1042 l 694 1042 m 0 1215 l 0 1563 l 174 1563 l 174 1215 l 0 1215 m 521 1389 l 521 1563 l 694 1563 l 694 1389 l 521 1389 m 174 1563 l 174 1736 l 521 1736 l 521 1563 l 174 1563 m 694 1563 l 694 1736 l 868 1736 l 868 1563 l 694 1563 z "},"ù":{"ha":1042,"x_min":0,"x_max":868,"o":"m 0 1042 l 0 1736 l 174 1736 l 174 1042 l 0 1042 m 174 868 l 174 1042 l 694 1042 l 694 1736 l 868 1736 l 868 868 l 174 868 m 347 1910 l 347 2083 l 521 2083 l 521 1910 l 347 1910 m 174 2083 l 174 2257 l 347 2257 l 347 2083 l 174 2083 z "},"ú":{"ha":1042,"x_min":0,"x_max":868,"o":"m 0 1042 l 0 1736 l 174 1736 l 174 1042 l 0 1042 m 174 868 l 174 1042 l 694 1042 l 694 1736 l 868 1736 l 868 868 l 174 868 m 347 1910 l 347 2083 l 521 2083 l 521 1910 l 347 1910 m 521 2083 l 521 2257 l 694 2257 l 694 2083 l 521 2083 z "},"û":{"ha":1042,"x_min":0,"x_max":868,"o":"m 0 1042 l 0 1736 l 174 1736 l 174 1042 l 0 1042 m 174 868 l 174 1042 l 694 1042 l 694 1736 l 868 1736 l 868 868 l 174 868 m 174 1910 l 174 2083 l 347 2083 l 347 1910 l 174 1910 m 521 1910 l 521 2083 l 694 2083 l 694 1910 l 521 1910 m 347 2083 l 347 2257 l 521 2257 l 521 2083 l 347 2083 z "},"ü":{"ha":1042,"x_min":0,"x_max":868,"o":"m 0 1042 l 0 1736 l 174 1736 l 174 1042 l 0 1042 m 174 868 l 174 1042 l 694 1042 l 694 1736 l 868 1736 l 868 868 l 174 868 m 174 1910 l 174 2083 l 347 2083 l 347 1910 l 174 1910 m 521 1910 l 521 2083 l 694 2083 l 694 1910 l 521 1910 z "},"ý":{"ha":1042,"x_min":0,"x_max":868,"o":"m 0 694 l 0 868 l 694 868 l 694 694 l 0 694 m 0 1215 l 0 1736 l 174 1736 l 174 1215 l 0 1215 m 694 868 l 694 1042 l 174 1042 l 174 1215 l 694 1215 l 694 1736 l 868 1736 l 868 868 l 694 868 m 347 1910 l 347 2083 l 521 2083 l 521 1910 l 347 1910 m 521 2083 l 521 2257 l 694 2257 l 694 2083 l 521 2083 z "},"þ":{"ha":1042,"x_min":0,"x_max":868,"o":"m 694 1215 l 694 1563 l 868 1563 l 868 1215 l 694 1215 m 347 1563 l 347 1736 l 694 1736 l 694 1563 l 347 1563 m 0 694 l 0 2083 l 174 2083 l 174 1563 l 347 1563 l 347 1389 l 174 1389 l 174 1215 l 694 1215 l 694 1042 l 174 1042 l 174 694 l 0 694 z "},"ÿ":{"ha":1042,"x_min":0,"x_max":868,"o":"m 0 694 l 0 868 l 694 868 l 694 694 l 0 694 m 0 1215 l 0 1736 l 174 1736 l 174 1215 l 0 1215 m 694 868 l 694 1042 l 174 1042 l 174 1215 l 694 1215 l 694 1736 l 868 1736 l 868 868 l 694 868 z "},"Ā":{"ha":1042,"x_min":0,"x_max":868,"o":"m 0 868 l 0 1910 l 174 1910 l 174 1736 l 694 1736 l 694 1910 l 868 1910 l 868 868 l 694 868 l 694 1563 l 174 1563 l 174 868 l 0 868 m 174 1910 l 174 2083 l 694 2083 l 694 1910 l 174 1910 m 174 2257 l 174 2431 l 694 2431 l 694 2257 l 174 2257 z "},"ā":{"ha":1042,"x_min":0,"x_max":868,"o":"m 0 1042 l 0 1215 l 174 1215 l 174 1042 l 0 1042 m 174 868 l 174 1042 l 694 1042 l 694 1215 l 174 1215 l 174 1389 l 694 1389 l 694 1563 l 868 1563 l 868 868 l 174 868 m 174 1563 l 174 1736 l 694 1736 l 694 1563 l 174 1563 m 174 1910 l 174 2083 l 694 2083 l 694 1910 l 174 1910 z "},"Ă":{"ha":1042,"x_min":0,"x_max":868,"o":"m 0 868 l 0 1910 l 174 1910 l 174 1736 l 694 1736 l 694 1910 l 868 1910 l 868 868 l 694 868 l 694 1563 l 174 1563 l 174 868 l 0 868 m 174 1910 l 174 2431 l 347 2431 l 347 2257 l 521 2257 l 521 2431 l 694 2431 l 694 1910 l 174 1910 z "},"ă":{"ha":1042,"x_min":0,"x_max":868,"o":"m 0 1042 l 0 1215 l 174 1215 l 174 1042 l 0 1042 m 174 868 l 174 1042 l 694 1042 l 694 1215 l 174 1215 l 174 1389 l 694 1389 l 694 1563 l 868 1563 l 868 868 l 174 868 m 174 1563 l 174 1736 l 694 1736 l 694 1563 l 174 1563 m 174 1910 l 174 2257 l 347 2257 l 347 2083 l 521 2083 l 521 2257 l 694 2257 l 694 1910 l 174 1910 z "},"Ą":{"ha":1042,"x_min":0,"x_max":868,"o":"m 521 521 l 521 868 l 694 868 l 694 694 l 868 694 l 868 521 l 521 521 m 0 868 l 0 1910 l 174 1910 l 174 1736 l 694 1736 l 694 1910 l 868 1910 l 868 868 l 694 868 l 694 1563 l 174 1563 l 174 868 l 0 868 m 174 1910 l 174 2083 l 694 2083 l 694 1910 l 174 1910 z "},"ą":{"ha":1042,"x_min":0,"x_max":868,"o":"m 0 1042 l 0 1215 l 174 1215 l 174 1042 l 0 1042 m 521 521 l 521 868 l 174 868 l 174 1042 l 694 1042 l 694 1215 l 174 1215 l 174 1389 l 694 1389 l 694 1563 l 868 1563 l 868 868 l 694 868 l 694 694 l 868 694 l 868 521 l 521 521 m 174 1563 l 174 1736 l 694 1736 l 694 1563 l 174 1563 z "},"Ć":{"ha":1042,"x_min":0,"x_max":868,"o":"m 174 868 l 174 1042 l 694 1042 l 694 868 l 174 868 m 694 1042 l 694 1215 l 868 1215 l 868 1042 l 694 1042 m 0 1042 l 0 1910 l 174 1910 l 174 1042 l 0 1042 m 694 1736 l 694 1910 l 868 1910 l 868 1736 l 694 1736 m 174 1910 l 174 2083 l 347 2083 l 347 2257 l 521 2257 l 521 2083 l 694 2083 l 694 1910 l 174 1910 m 521 2257 l 521 2431 l 694 2431 l 694 2257 l 521 2257 z "},"ć":{"ha":1042,"x_min":0,"x_max":868,"o":"m 174 868 l 174 1042 l 694 1042 l 694 868 l 174 868 m 694 1042 l 694 1215 l 868 1215 l 868 1042 l 694 1042 m 0 1042 l 0 1563 l 174 1563 l 174 1042 l 0 1042 m 694 1389 l 694 1563 l 868 1563 l 868 1389 l 694 1389 m 174 1563 l 174 1736 l 694 1736 l 694 1563 l 174 1563 m 347 1910 l 347 2083 l 521 2083 l 521 1910 l 347 1910 m 521 2083 l 521 2257 l 694 2257 l 694 2083 l 521 2083 z "},"Ĉ":{"ha":1042,"x_min":0,"x_max":868,"o":"m 174 868 l 174 1042 l 694 1042 l 694 868 l 174 868 m 694 1042 l 694 1215 l 868 1215 l 868 1042 l 694 1042 m 0 1042 l 0 1910 l 174 1910 l 174 1042 l 0 1042 m 694 1736 l 694 1910 l 868 1910 l 868 1736 l 694 1736 m 174 1910 l 174 2257 l 347 2257 l 347 2083 l 521 2083 l 521 2257 l 694 2257 l 694 1910 l 174 1910 m 347 2257 l 347 2431 l 521 2431 l 521 2257 l 347 2257 z "},"ĉ":{"ha":1042,"x_min":0,"x_max":868,"o":"m 174 868 l 174 1042 l 694 1042 l 694 868 l 174 868 m 694 1042 l 694 1215 l 868 1215 l 868 1042 l 694 1042 m 0 1042 l 0 1563 l 174 1563 l 174 1042 l 0 1042 m 694 1389 l 694 1563 l 868 1563 l 868 1389 l 694 1389 m 174 1563 l 174 1736 l 694 1736 l 694 1563 l 174 1563 m 174 1910 l 174 2083 l 347 2083 l 347 1910 l 174 1910 m 521 1910 l 521 2083 l 694 2083 l 694 1910 l 521 1910 m 347 2083 l 347 2257 l 521 2257 l 521 2083 l 347 2083 z "},"Ċ":{"ha":1042,"x_min":0,"x_max":868,"o":"m 174 868 l 174 1042 l 694 1042 l 694 868 l 174 868 m 694 1042 l 694 1215 l 868 1215 l 868 1042 l 694 1042 m 0 1042 l 0 1910 l 174 1910 l 174 1042 l 0 1042 m 694 1736 l 694 1910 l 868 1910 l 868 1736 l 694 1736 m 174 1910 l 174 2083 l 694 2083 l 694 1910 l 174 1910 m 347 2257 l 347 2431 l 521 2431 l 521 2257 l 347 2257 z "},"ċ":{"ha":1042,"x_min":0,"x_max":868,"o":"m 174 868 l 174 1042 l 694 1042 l 694 868 l 174 868 m 694 1042 l 694 1215 l 868 1215 l 868 1042 l 694 1042 m 0 1042 l 0 1563 l 174 1563 l 174 1042 l 0 1042 m 694 1389 l 694 1563 l 868 1563 l 868 1389 l 694 1389 m 174 1563 l 174 1736 l 694 1736 l 694 1563 l 174 1563 m 347 1910 l 347 2083 l 521 2083 l 521 1910 l 347 1910 z "},"Č":{"ha":1042,"x_min":0,"x_max":868,"o":"m 174 868 l 174 1042 l 694 1042 l 694 868 l 174 868 m 694 1042 l 694 1215 l 868 1215 l 868 1042 l 694 1042 m 0 1042 l 0 1910 l 174 1910 l 174 1042 l 0 1042 m 694 1736 l 694 1910 l 868 1910 l 868 1736 l 694 1736 m 174 1910 l 174 2083 l 347 2083 l 347 2257 l 521 2257 l 521 2083 l 694 2083 l 694 1910 l 174 1910 m 174 2257 l 174 2431 l 347 2431 l 347 2257 l 174 2257 m 521 2257 l 521 2431 l 694 2431 l 694 2257 l 521 2257 z "},"č":{"ha":1042,"x_min":0,"x_max":868,"o":"m 174 868 l 174 1042 l 694 1042 l 694 868 l 174 868 m 694 1042 l 694 1215 l 868 1215 l 868 1042 l 694 1042 m 0 1042 l 0 1563 l 174 1563 l 174 1042 l 0 1042 m 694 1389 l 694 1563 l 868 1563 l 868 1389 l 694 1389 m 174 1563 l 174 1736 l 694 1736 l 694 1563 l 174 1563 m 347 1910 l 347 2083 l 521 2083 l 521 1910 l 347 1910 m 174 2083 l 174 2257 l 347 2257 l 347 2083 l 174 2083 m 521 2083 l 521 2257 l 694 2257 l 694 2083 l 521 2083 z "},"Ď":{"ha":1042,"x_min":0,"x_max":868,"o":"m 694 1042 l 694 1910 l 868 1910 l 868 1042 l 694 1042 m 0 868 l 0 2083 l 347 2083 l 347 2257 l 521 2257 l 521 2083 l 694 2083 l 694 1910 l 174 1910 l 174 1042 l 694 1042 l 694 868 l 0 868 m 174 2257 l 174 2431 l 347 2431 l 347 2257 l 174 2257 m 521 2257 l 521 2431 l 694 2431 l 694 2257 l 521 2257 z "},"ď":{"ha":1389,"x_min":0,"x_max":1215,"o":"m 0 1042 l 0 1563 l 174 1563 l 174 1042 l 0 1042 m 174 1563 l 174 1736 l 521 1736 l 521 1563 l 174 1563 m 174 868 l 174 1042 l 694 1042 l 694 1389 l 521 1389 l 521 1563 l 694 1563 l 694 2083 l 868 2083 l 868 868 l 174 868 m 1042 1910 l 1042 2257 l 1215 2257 l 1215 1910 l 1042 1910 z "},"Đ":{"ha":1215,"x_min":0,"x_max":1042,"o":"m 868 1042 l 868 1910 l 1042 1910 l 1042 1042 l 868 1042 m 174 868 l 174 1563 l 0 1563 l 0 1736 l 174 1736 l 174 2083 l 868 2083 l 868 1910 l 347 1910 l 347 1736 l 521 1736 l 521 1563 l 347 1563 l 347 1042 l 868 1042 l 868 868 l 174 868 z "},"đ":{"ha":1215,"x_min":0,"x_max":1042,"o":"m 0 1042 l 0 1563 l 174 1563 l 174 1042 l 0 1042 m 174 1563 l 174 1736 l 521 1736 l 521 1563 l 174 1563 m 174 868 l 174 1042 l 694 1042 l 694 1389 l 521 1389 l 521 1563 l 694 1563 l 694 1736 l 521 1736 l 521 1910 l 694 1910 l 694 2083 l 868 2083 l 868 1910 l 1042 1910 l 1042 1736 l 868 1736 l 868 868 l 174 868 z "},"Ē":{"ha":1042,"x_min":0,"x_max":868,"o":"m 0 868 l 0 2083 l 868 2083 l 868 1910 l 174 1910 l 174 1736 l 521 1736 l 521 1563 l 174 1563 l 174 1042 l 868 1042 l 868 868 l 0 868 m 174 2257 l 174 2431 l 694 2431 l 694 2257 l 174 2257 z "},"ē":{"ha":1042,"x_min":0,"x_max":868,"o":"m 174 868 l 174 1042 l 868 1042 l 868 868 l 174 868 m 0 1042 l 0 1563 l 174 1563 l 174 1389 l 694 1389 l 694 1563 l 868 1563 l 868 1215 l 174 1215 l 174 1042 l 0 1042 m 174 1563 l 174 1736 l 694 1736 l 694 1563 l 174 1563 m 174 1910 l 174 2083 l 694 2083 l 694 1910 l 174 1910 z "},"Ĕ":{"ha":1042,"x_min":0,"x_max":868,"o":"m 0 868 l 0 2083 l 174 2083 l 174 2431 l 347 2431 l 347 2257 l 521 2257 l 521 2431 l 694 2431 l 694 2083 l 868 2083 l 868 1910 l 174 1910 l 174 1736 l 521 1736 l 521 1563 l 174 1563 l 174 1042 l 868 1042 l 868 868 l 0 868 z "},"ĕ":{"ha":1042,"x_min":0,"x_max":868,"o":"m 174 868 l 174 1042 l 868 1042 l 868 868 l 174 868 m 0 1042 l 0 1563 l 174 1563 l 174 1389 l 694 1389 l 694 1563 l 868 1563 l 868 1215 l 174 1215 l 174 1042 l 0 1042 m 174 1563 l 174 1736 l 694 1736 l 694 1563 l 174 1563 m 174 1910 l 174 2257 l 347 2257 l 347 2083 l 521 2083 l 521 2257 l 694 2257 l 694 1910 l 174 1910 z "},"Ė":{"ha":1042,"x_min":0,"x_max":868,"o":"m 0 868 l 0 2083 l 868 2083 l 868 1910 l 174 1910 l 174 1736 l 521 1736 l 521 1563 l 174 1563 l 174 1042 l 868 1042 l 868 868 l 0 868 m 347 2257 l 347 2431 l 521 2431 l 521 2257 l 347 2257 z "},"ė":{"ha":1042,"x_min":0,"x_max":868,"o":"m 174 868 l 174 1042 l 868 1042 l 868 868 l 174 868 m 0 1042 l 0 1563 l 174 1563 l 174 1389 l 694 1389 l 694 1563 l 868 1563 l 868 1215 l 174 1215 l 174 1042 l 0 1042 m 174 1563 l 174 1736 l 694 1736 l 694 1563 l 174 1563 m 347 1910 l 347 2083 l 521 2083 l 521 1910 l 347 1910 z "},"Ę":{"ha":1042,"x_min":0,"x_max":868,"o":"m 521 521 l 521 868 l 0 868 l 0 2083 l 868 2083 l 868 1910 l 174 1910 l 174 1736 l 521 1736 l 521 1563 l 174 1563 l 174 1042 l 868 1042 l 868 868 l 694 868 l 694 694 l 868 694 l 868 521 l 521 521 z "},"ę":{"ha":1042,"x_min":0,"x_max":868,"o":"m 521 521 l 521 868 l 174 868 l 174 1042 l 868 1042 l 868 868 l 694 868 l 694 694 l 868 694 l 868 521 l 521 521 m 0 1042 l 0 1563 l 174 1563 l 174 1389 l 694 1389 l 694 1563 l 868 1563 l 868 1215 l 174 1215 l 174 1042 l 0 1042 m 174 1563 l 174 1736 l 694 1736 l 694 1563 l 174 1563 z "},"Ě":{"ha":1042,"x_min":0,"x_max":868,"o":"m 0 868 l 0 2083 l 347 2083 l 347 2257 l 521 2257 l 521 2083 l 868 2083 l 868 1910 l 174 1910 l 174 1736 l 521 1736 l 521 1563 l 174 1563 l 174 1042 l 868 1042 l 868 868 l 0 868 m 174 2257 l 174 2431 l 347 2431 l 347 2257 l 174 2257 m 521 2257 l 521 2431 l 694 2431 l 694 2257 l 521 2257 z "},"ě":{"ha":1042,"x_min":0,"x_max":868,"o":"m 174 868 l 174 1042 l 868 1042 l 868 868 l 174 868 m 0 1042 l 0 1563 l 174 1563 l 174 1389 l 694 1389 l 694 1563 l 868 1563 l 868 1215 l 174 1215 l 174 1042 l 0 1042 m 174 1563 l 174 1736 l 694 1736 l 694 1563 l 174 1563 m 347 1910 l 347 2083 l 521 2083 l 521 1910 l 347 1910 m 174 2083 l 174 2257 l 347 2257 l 347 2083 l 174 2083 m 521 2083 l 521 2257 l 694 2257 l 694 2083 l 521 2083 z "},"Ĝ":{"ha":1042,"x_min":0,"x_max":868,"o":"m 174 868 l 174 1042 l 694 1042 l 694 868 l 174 868 m 694 1042 l 694 1563 l 521 1563 l 521 1736 l 868 1736 l 868 1042 l 694 1042 m 0 1042 l 0 1910 l 174 1910 l 174 1042 l 0 1042 m 174 1910 l 174 2257 l 347 2257 l 347 2083 l 521 2083 l 521 2257 l 694 2257 l 694 2083 l 868 2083 l 868 1910 l 174 1910 m 347 2257 l 347 2431 l 521 2431 l 521 2257 l 347 2257 z "},"ĝ":{"ha":1042,"x_min":0,"x_max":868,"o":"m 0 694 l 0 868 l 694 868 l 694 694 l 0 694 m 0 1215 l 0 1563 l 174 1563 l 174 1215 l 0 1215 m 694 868 l 694 1042 l 174 1042 l 174 1215 l 694 1215 l 694 1563 l 174 1563 l 174 1736 l 868 1736 l 868 868 l 694 868 m 174 1910 l 174 2083 l 347 2083 l 347 1910 l 174 1910 m 521 1910 l 521 2083 l 694 2083 l 694 1910 l 521 1910 m 347 2083 l 347 2257 l 521 2257 l 521 2083 l 347 2083 z "},"Ğ":{"ha":1042,"x_min":0,"x_max":868,"o":"m 174 868 l 174 1042 l 694 1042 l 694 868 l 174 868 m 694 1042 l 694 1563 l 521 1563 l 521 1736 l 868 1736 l 868 1042 l 694 1042 m 0 1042 l 0 1910 l 174 1910 l 174 1042 l 0 1042 m 174 1910 l 174 2431 l 347 2431 l 347 2257 l 521 2257 l 521 2431 l 694 2431 l 694 2083 l 868 2083 l 868 1910 l 174 1910 z "},"ğ":{"ha":1042,"x_min":0,"x_max":868,"o":"m 0 694 l 0 868 l 694 868 l 694 694 l 0 694 m 0 1215 l 0 1563 l 174 1563 l 174 1215 l 0 1215 m 694 868 l 694 1042 l 174 1042 l 174 1215 l 694 1215 l 694 1563 l 174 1563 l 174 1736 l 868 1736 l 868 868 l 694 868 m 174 1910 l 174 2257 l 347 2257 l 347 2083 l 521 2083 l 521 2257 l 694 2257 l 694 1910 l 174 1910 z "},"Ġ":{"ha":1042,"x_min":0,"x_max":868,"o":"m 174 868 l 174 1042 l 694 1042 l 694 868 l 174 868 m 694 1042 l 694 1563 l 521 1563 l 521 1736 l 868 1736 l 868 1042 l 694 1042 m 0 1042 l 0 1910 l 174 1910 l 174 1042 l 0 1042 m 174 1910 l 174 2083 l 868 2083 l 868 1910 l 174 1910 m 347 2257 l 347 2431 l 521 2431 l 521 2257 l 347 2257 z "},"ġ":{"ha":1042,"x_min":0,"x_max":868,"o":"m 0 694 l 0 868 l 694 868 l 694 694 l 0 694 m 0 1215 l 0 1563 l 174 1563 l 174 1215 l 0 1215 m 694 868 l 694 1042 l 174 1042 l 174 1215 l 694 1215 l 694 1563 l 174 1563 l 174 1736 l 868 1736 l 868 868 l 694 868 m 347 1910 l 347 2083 l 521 2083 l 521 1910 l 347 1910 z "},"Ģ":{"ha":1042,"x_min":0,"x_max":868,"o":"m 347 521 l 347 868 l 174 868 l 174 1042 l 694 1042 l 694 868 l 521 868 l 521 521 l 347 521 m 694 1042 l 694 1563 l 521 1563 l 521 1736 l 868 1736 l 868 1042 l 694 1042 m 0 1042 l 0 1910 l 174 1910 l 174 1042 l 0 1042 m 174 1910 l 174 2083 l 868 2083 l 868 1910 l 174 1910 z "},"ģ":{"ha":1042,"x_min":0,"x_max":868,"o":"m 0 694 l 0 868 l 694 868 l 694 694 l 0 694 m 0 1215 l 0 1563 l 174 1563 l 174 1215 l 0 1215 m 694 868 l 694 1042 l 174 1042 l 174 1215 l 694 1215 l 694 1563 l 174 1563 l 174 1736 l 868 1736 l 868 868 l 694 868 m 347 1910 l 347 2257 l 521 2257 l 521 1910 l 347 1910 z "},"Ĥ":{"ha":1042,"x_min":0,"x_max":868,"o":"m 0 868 l 0 2083 l 174 2083 l 174 1736 l 694 1736 l 694 2083 l 868 2083 l 868 868 l 694 868 l 694 1563 l 174 1563 l 174 868 l 0 868 m 174 2083 l 174 2257 l 347 2257 l 347 2083 l 174 2083 m 521 2083 l 521 2257 l 694 2257 l 694 2083 l 521 2083 m 347 2257 l 347 2431 l 521 2431 l 521 2257 l 347 2257 z "},"ĥ":{"ha":1042,"x_min":0,"x_max":868,"o":"m 694 868 l 694 1563 l 868 1563 l 868 868 l 694 868 m 347 1563 l 347 1736 l 694 1736 l 694 1563 l 347 1563 m 0 868 l 0 2083 l 174 2083 l 174 1563 l 347 1563 l 347 1389 l 174 1389 l 174 868 l 0 868 m 174 2083 l 174 2257 l 347 2257 l 347 2083 l 174 2083 m 521 2083 l 521 2257 l 694 2257 l 694 2083 l 521 2083 m 347 2257 l 347 2431 l 521 2431 l 521 2257 l 347 2257 z "},"Ħ":{"ha":1042,"x_min":0,"x_max":868,"o":"m 694 1736 l 694 1910 l 174 1910 l 174 1736 l 694 1736 m 0 868 l 0 2083 l 868 2083 l 868 868 l 694 868 l 694 1563 l 174 1563 l 174 868 l 0 868 z "},"ħ":{"ha":1215,"x_min":0,"x_max":1042,"o":"m 868 868 l 868 1563 l 1042 1563 l 1042 868 l 868 868 m 521 1563 l 521 1736 l 868 1736 l 868 1563 l 521 1563 m 174 868 l 174 1736 l 0 1736 l 0 1910 l 174 1910 l 174 2083 l 347 2083 l 347 1910 l 521 1910 l 521 1736 l 347 1736 l 347 1563 l 521 1563 l 521 1389 l 347 1389 l 347 868 l 174 868 z "},"Ĩ":{"ha":868,"x_min":-174,"x_max":694,"o":"m -174 2083 l -174 2257 l 0 2257 l 0 2083 l -174 2083 m 0 868 l 0 1042 l 174 1042 l 174 1910 l 0 1910 l 0 2083 l 174 2083 l 174 2257 l 0 2257 l 0 2431 l 347 2431 l 347 2257 l 521 2257 l 521 1910 l 347 1910 l 347 1042 l 521 1042 l 521 868 l 0 868 m 521 2257 l 521 2431 l 694 2431 l 694 2257 l 521 2257 z "},"ĩ":{"ha":868,"x_min":-174,"x_max":694,"o":"m 174 868 l 174 1736 l 347 1736 l 347 868 l 174 868 m -174 1910 l -174 2083 l 0 2083 l 0 1910 l -174 1910 m 174 1910 l 174 2083 l 0 2083 l 0 2257 l 347 2257 l 347 2083 l 521 2083 l 521 1910 l 174 1910 m 521 2083 l 521 2257 l 694 2257 l 694 2083 l 521 2083 z "},"Ī":{"ha":694,"x_min":0,"x_max":521,"o":"m 0 868 l 0 1042 l 174 1042 l 174 1910 l 0 1910 l 0 2083 l 521 2083 l 521 1910 l 347 1910 l 347 1042 l 521 1042 l 521 868 l 0 868 m 0 2257 l 0 2431 l 521 2431 l 521 2257 l 0 2257 z "},"ī":{"ha":521,"x_min":-174,"x_max":347,"o":"m 0 868 l 0 1736 l 174 1736 l 174 868 l 0 868 m -174 1910 l -174 2083 l 347 2083 l 347 1910 l -174 1910 z "},"Ĭ":{"ha":694,"x_min":0,"x_max":521,"o":"m 0 868 l 0 1042 l 174 1042 l 174 1910 l 0 1910 l 0 2431 l 174 2431 l 174 2257 l 347 2257 l 347 2431 l 521 2431 l 521 1910 l 347 1910 l 347 1042 l 521 1042 l 521 868 l 0 868 z "},"ĭ":{"ha":521,"x_min":-174,"x_max":347,"o":"m 0 868 l 0 1736 l 174 1736 l 174 868 l 0 868 m -174 1910 l -174 2257 l 0 2257 l 0 2083 l 174 2083 l 174 2257 l 347 2257 l 347 1910 l -174 1910 z "},"Į":{"ha":694,"x_min":0,"x_max":521,"o":"m 174 521 l 174 868 l 0 868 l 0 1042 l 174 1042 l 174 1910 l 0 1910 l 0 2083 l 521 2083 l 521 1910 l 347 1910 l 347 1042 l 521 1042 l 521 868 l 347 868 l 347 694 l 521 694 l 521 521 l 174 521 z "},"į":{"ha":521,"x_min":0,"x_max":347,"o":"m 0 521 l 0 1736 l 174 1736 l 174 694 l 347 694 l 347 521 l 0 521 m 0 1910 l 0 2083 l 174 2083 l 174 1910 l 0 1910 z "},"İ":{"ha":694,"x_min":0,"x_max":521,"o":"m 0 868 l 0 1042 l 174 1042 l 174 1910 l 0 1910 l 0 2083 l 521 2083 l 521 1910 l 347 1910 l 347 1042 l 521 1042 l 521 868 l 0 868 m 174 2257 l 174 2431 l 347 2431 l 347 2257 l 174 2257 z "},"ı":{"ha":347,"x_min":0,"x_max":174,"o":"m 0 868 l 0 1736 l 174 1736 l 174 868 l 0 868 z "},"Ĳ":{"ha":1736,"x_min":0,"x_max":1563,"o":"m 868 868 l 868 1042 l 1389 1042 l 1389 868 l 868 868 m 694 1042 l 694 1215 l 868 1215 l 868 1042 l 694 1042 m 0 868 l 0 1042 l 174 1042 l 174 1910 l 0 1910 l 0 2083 l 521 2083 l 521 1910 l 347 1910 l 347 1042 l 521 1042 l 521 868 l 0 868 m 1389 1042 l 1389 2083 l 1563 2083 l 1563 1042 l 1389 1042 z "},"ĳ":{"ha":1389,"x_min":0,"x_max":1215,"o":"m 521 521 l 521 694 l 1042 694 l 1042 521 l 521 521 m 347 694 l 347 868 l 521 868 l 521 694 l 347 694 m 0 868 l 0 1736 l 174 1736 l 174 868 l 0 868 m 1042 694 l 1042 1736 l 1215 1736 l 1215 694 l 1042 694 m 0 1910 l 0 2083 l 174 2083 l 174 1910 l 0 1910 m 1042 1910 l 1042 2083 l 1215 2083 l 1215 1910 l 1042 1910 z "},"Ĵ":{"ha":1042,"x_min":0,"x_max":868,"o":"m 174 868 l 174 1042 l 694 1042 l 694 868 l 174 868 m 0 1042 l 0 1215 l 174 1215 l 174 1042 l 0 1042 m 694 1042 l 694 2083 l 868 2083 l 868 1042 l 694 1042 m 174 2083 l 174 2257 l 347 2257 l 347 2083 l 174 2083 m 521 2083 l 521 2257 l 694 2257 l 694 2083 l 521 2083 m 347 2257 l 347 2431 l 521 2431 l 521 2257 l 347 2257 z "},"ĵ":{"ha":1215,"x_min":0,"x_max":1042,"o":"m 174 694 l 174 868 l 694 868 l 694 694 l 174 694 m 0 868 l 0 1042 l 174 1042 l 174 868 l 0 868 m 694 868 l 694 1736 l 868 1736 l 868 868 l 694 868 m 521 1910 l 521 2083 l 694 2083 l 694 1910 l 521 1910 m 868 1910 l 868 2083 l 1042 2083 l 1042 1910 l 868 1910 m 694 2083 l 694 2257 l 868 2257 l 868 2083 l 694 2083 z "},"Ķ":{"ha":1042,"x_min":0,"x_max":868,"o":"m 347 521 l 347 868 l 521 868 l 521 521 l 347 521 m 694 868 l 694 1389 l 868 1389 l 868 868 l 694 868 m 521 1389 l 521 1563 l 694 1563 l 694 1389 l 521 1389 m 521 1736 l 521 1910 l 694 1910 l 694 1736 l 521 1736 m 0 868 l 0 2083 l 174 2083 l 174 1736 l 521 1736 l 521 1563 l 174 1563 l 174 868 l 0 868 m 694 1910 l 694 2083 l 868 2083 l 868 1910 l 694 1910 z "},"ķ":{"ha":868,"x_min":0,"x_max":694,"o":"m 347 521 l 347 868 l 521 868 l 521 521 l 347 521 m 521 868 l 521 1042 l 694 1042 l 694 868 l 521 868 m 347 1042 l 347 1215 l 521 1215 l 521 1042 l 347 1042 m 347 1389 l 347 1563 l 521 1563 l 521 1389 l 347 1389 m 521 1563 l 521 1736 l 694 1736 l 694 1563 l 521 1563 m 0 868 l 0 2083 l 174 2083 l 174 1389 l 347 1389 l 347 1215 l 174 1215 l 174 868 l 0 868 z "},"ĸ":{"ha":868,"x_min":0,"x_max":694,"o":"m 521 868 l 521 1042 l 694 1042 l 694 868 l 521 868 m 347 1042 l 347 1215 l 521 1215 l 521 1042 l 347 1042 m 347 1389 l 347 1563 l 521 1563 l 521 1389 l 347 1389 m 0 868 l 0 1736 l 174 1736 l 174 1389 l 347 1389 l 347 1215 l 174 1215 l 174 868 l 0 868 m 521 1563 l 521 1736 l 694 1736 l 694 1563 l 521 1563 z "},"Ĺ":{"ha":1042,"x_min":0,"x_max":868,"o":"m 0 868 l 0 2083 l 174 2083 l 174 1042 l 868 1042 l 868 868 l 0 868 m 347 2083 l 347 2257 l 521 2257 l 521 2083 l 347 2083 m 521 2257 l 521 2431 l 694 2431 l 694 2257 l 521 2257 z "},"ĺ":{"ha":521,"x_min":0,"x_max":347,"o":"m 174 868 l 174 1042 l 347 1042 l 347 868 l 174 868 m 0 1042 l 0 2257 l 174 2257 l 174 1042 l 0 1042 m 174 2257 l 174 2431 l 347 2431 l 347 2257 l 174 2257 z "},"Ļ":{"ha":1042,"x_min":0,"x_max":868,"o":"m 347 521 l 347 868 l 0 868 l 0 2083 l 174 2083 l 174 1042 l 868 1042 l 868 868 l 521 868 l 521 521 l 347 521 z "},"ļ":{"ha":521,"x_min":0,"x_max":347,"o":"m 0 521 l 0 868 l 174 868 l 174 521 l 0 521 m 174 868 l 174 1042 l 347 1042 l 347 868 l 174 868 m 0 1042 l 0 2083 l 174 2083 l 174 1042 l 0 1042 z "},"Ľ":{"ha":1042,"x_min":0,"x_max":868,"o":"m 0 868 l 0 2083 l 174 2083 l 174 1042 l 868 1042 l 868 868 l 0 868 m 347 1910 l 347 2257 l 521 2257 l 521 1910 l 347 1910 z "},"ľ":{"ha":694,"x_min":0,"x_max":521,"o":"m 174 868 l 174 1042 l 347 1042 l 347 868 l 174 868 m 0 1042 l 0 2083 l 174 2083 l 174 1042 l 0 1042 m 347 1910 l 347 2257 l 521 2257 l 521 1910 l 347 1910 z "},"Ŀ":{"ha":1042,"x_min":0,"x_max":868,"o":"m 347 1389 l 347 1563 l 521 1563 l 521 1389 l 347 1389 m 0 868 l 0 2083 l 174 2083 l 174 1042 l 868 1042 l 868 868 l 0 868 z "},"ŀ":{"ha":694,"x_min":0,"x_max":521,"o":"m 174 868 l 174 1042 l 347 1042 l 347 868 l 174 868 m 347 1389 l 347 1563 l 521 1563 l 521 1389 l 347 1389 m 0 1042 l 0 2083 l 174 2083 l 174 1042 l 0 1042 z "},"Ł":{"ha":1215,"x_min":0,"x_max":1042,"o":"m 521 1563 l 521 1736 l 694 1736 l 694 1563 l 521 1563 m 174 868 l 174 1215 l 0 1215 l 0 1389 l 174 1389 l 174 2083 l 347 2083 l 347 1563 l 521 1563 l 521 1389 l 347 1389 l 347 1042 l 1042 1042 l 1042 868 l 174 868 z "},"ł":{"ha":694,"x_min":0,"x_max":521,"o":"m 347 868 l 347 1042 l 521 1042 l 521 868 l 347 868 m 174 1042 l 174 1215 l 0 1215 l 0 1389 l 174 1389 l 174 2083 l 347 2083 l 347 1736 l 521 1736 l 521 1563 l 347 1563 l 347 1042 l 174 1042 z "},"Ń":{"ha":1042,"x_min":0,"x_max":868,"o":"m 347 1563 l 347 1736 l 521 1736 l 521 1563 l 347 1563 m 0 868 l 0 2083 l 174 2083 l 174 1910 l 347 1910 l 347 1736 l 174 1736 l 174 868 l 0 868 m 694 868 l 694 1389 l 521 1389 l 521 1563 l 694 1563 l 694 2083 l 868 2083 l 868 868 l 694 868 m 347 2083 l 347 2257 l 521 2257 l 521 2083 l 347 2083 m 521 2257 l 521 2431 l 694 2431 l 694 2257 l 521 2257 z "},"ń":{"ha":1042,"x_min":0,"x_max":868,"o":"m 694 868 l 694 1563 l 868 1563 l 868 868 l 694 868 m 0 868 l 0 1736 l 694 1736 l 694 1563 l 174 1563 l 174 868 l 0 868 m 347 1910 l 347 2083 l 521 2083 l 521 1910 l 347 1910 m 521 2083 l 521 2257 l 694 2257 l 694 2083 l 521 2083 z "},"Ņ":{"ha":1042,"x_min":0,"x_max":868,"o":"m 347 521 l 347 868 l 521 868 l 521 521 l 347 521 m 347 1563 l 347 1736 l 521 1736 l 521 1563 l 347 1563 m 0 868 l 0 2083 l 174 2083 l 174 1910 l 347 1910 l 347 1736 l 174 1736 l 174 868 l 0 868 m 694 868 l 694 1389 l 521 1389 l 521 1563 l 694 1563 l 694 2083 l 868 2083 l 868 868 l 694 868 z "},"ņ":{"ha":1042,"x_min":0,"x_max":868,"o":"m 347 521 l 347 868 l 521 868 l 521 521 l 347 521 m 694 868 l 694 1563 l 868 1563 l 868 868 l 694 868 m 0 868 l 0 1736 l 694 1736 l 694 1563 l 174 1563 l 174 868 l 0 868 z "},"Ň":{"ha":1042,"x_min":0,"x_max":868,"o":"m 347 1563 l 347 1736 l 521 1736 l 521 1563 l 347 1563 m 0 868 l 0 2083 l 174 2083 l 174 1910 l 347 1910 l 347 1736 l 174 1736 l 174 868 l 0 868 m 694 868 l 694 1389 l 521 1389 l 521 1563 l 694 1563 l 694 2083 l 868 2083 l 868 868 l 694 868 m 347 2083 l 347 2257 l 521 2257 l 521 2083 l 347 2083 m 174 2257 l 174 2431 l 347 2431 l 347 2257 l 174 2257 m 521 2257 l 521 2431 l 694 2431 l 694 2257 l 521 2257 z "},"ň":{"ha":1042,"x_min":0,"x_max":868,"o":"m 694 868 l 694 1563 l 868 1563 l 868 868 l 694 868 m 0 868 l 0 1736 l 694 1736 l 694 1563 l 174 1563 l 174 868 l 0 868 m 347 1910 l 347 2083 l 521 2083 l 521 1910 l 347 1910 m 174 2083 l 174 2257 l 347 2257 l 347 2083 l 174 2083 m 521 2083 l 521 2257 l 694 2257 l 694 2083 l 521 2083 z "},"ŉ":{"ha":1389,"x_min":0,"x_max":1215,"o":"m 1042 868 l 1042 1563 l 1215 1563 l 1215 868 l 1042 868 m 347 868 l 347 1736 l 1042 1736 l 1042 1563 l 521 1563 l 521 868 l 347 868 m 0 1736 l 0 2083 l 174 2083 l 174 1736 l 0 1736 z "},"Ŋ":{"ha":1042,"x_min":0,"x_max":868,"o":"m 347 694 l 347 868 l 694 868 l 694 694 l 347 694 m 347 1563 l 347 1736 l 521 1736 l 521 1563 l 347 1563 m 0 868 l 0 2083 l 174 2083 l 174 1910 l 347 1910 l 347 1736 l 174 1736 l 174 868 l 0 868 m 694 868 l 694 1389 l 521 1389 l 521 1563 l 694 1563 l 694 2083 l 868 2083 l 868 868 l 694 868 z "},"ŋ":{"ha":1042,"x_min":0,"x_max":868,"o":"m 347 694 l 347 868 l 694 868 l 694 694 l 347 694 m 694 868 l 694 1563 l 868 1563 l 868 868 l 694 868 m 0 868 l 0 1736 l 694 1736 l 694 1563 l 174 1563 l 174 868 l 0 868 z "},"Ō":{"ha":1042,"x_min":0,"x_max":868,"o":"m 174 868 l 174 1042 l 694 1042 l 694 868 l 174 868 m 0 1042 l 0 1910 l 174 1910 l 174 1042 l 0 1042 m 694 1042 l 694 1910 l 868 1910 l 868 1042 l 694 1042 m 174 1910 l 174 2083 l 694 2083 l 694 1910 l 174 1910 m 174 2257 l 174 2431 l 694 2431 l 694 2257 l 174 2257 z "},"ō":{"ha":1042,"x_min":0,"x_max":868,"o":"m 174 868 l 174 1042 l 694 1042 l 694 868 l 174 868 m 0 1042 l 0 1563 l 174 1563 l 174 1042 l 0 1042 m 694 1042 l 694 1563 l 868 1563 l 868 1042 l 694 1042 m 174 1563 l 174 1736 l 694 1736 l 694 1563 l 174 1563 m 174 1910 l 174 2083 l 694 2083 l 694 1910 l 174 1910 z "},"Ŏ":{"ha":1042,"x_min":0,"x_max":868,"o":"m 174 868 l 174 1042 l 694 1042 l 694 868 l 174 868 m 0 1042 l 0 1910 l 174 1910 l 174 1042 l 0 1042 m 694 1042 l 694 1910 l 868 1910 l 868 1042 l 694 1042 m 174 1910 l 174 2431 l 347 2431 l 347 2257 l 521 2257 l 521 2431 l 694 2431 l 694 1910 l 174 1910 z "},"ŏ":{"ha":1042,"x_min":0,"x_max":868,"o":"m 174 868 l 174 1042 l 694 1042 l 694 868 l 174 868 m 0 1042 l 0 1563 l 174 1563 l 174 1042 l 0 1042 m 694 1042 l 694 1563 l 868 1563 l 868 1042 l 694 1042 m 174 1563 l 174 1736 l 694 1736 l 694 1563 l 174 1563 m 174 1910 l 174 2257 l 347 2257 l 347 2083 l 521 2083 l 521 2257 l 694 2257 l 694 1910 l 174 1910 z "},"Ő":{"ha":1042,"x_min":0,"x_max":868,"o":"m 174 868 l 174 1042 l 694 1042 l 694 868 l 174 868 m 0 1042 l 0 1910 l 174 1910 l 174 1042 l 0 1042 m 694 1042 l 694 1910 l 868 1910 l 868 1042 l 694 1042 m 174 1910 l 174 2257 l 347 2257 l 347 2083 l 521 2083 l 521 2257 l 694 2257 l 694 1910 l 174 1910 m 347 2257 l 347 2431 l 521 2431 l 521 2257 l 347 2257 m 694 2257 l 694 2431 l 868 2431 l 868 2257 l 694 2257 z "},"ő":{"ha":1042,"x_min":0,"x_max":868,"o":"m 174 868 l 174 1042 l 694 1042 l 694 868 l 174 868 m 0 1042 l 0 1563 l 174 1563 l 174 1042 l 0 1042 m 694 1042 l 694 1563 l 868 1563 l 868 1042 l 694 1042 m 174 1563 l 174 1736 l 694 1736 l 694 1563 l 174 1563 m 174 1910 l 174 2083 l 347 2083 l 347 1910 l 174 1910 m 521 1910 l 521 2083 l 694 2083 l 694 1910 l 521 1910 m 347 2083 l 347 2257 l 521 2257 l 521 2083 l 347 2083 m 694 2083 l 694 2257 l 868 2257 l 868 2083 l 694 2083 z "},"Œ":{"ha":1736,"x_min":0,"x_max":1563,"o":"m 0 1042 l 0 1910 l 174 1910 l 174 1042 l 0 1042 m 174 868 l 174 1042 l 694 1042 l 694 1910 l 174 1910 l 174 2083 l 1563 2083 l 1563 1910 l 868 1910 l 868 1736 l 1215 1736 l 1215 1563 l 868 1563 l 868 1042 l 1563 1042 l 1563 868 l 174 868 z "},"œ":{"ha":1736,"x_min":0,"x_max":1563,"o":"m 174 868 l 174 1042 l 694 1042 l 694 868 l 174 868 m 868 868 l 868 1042 l 1563 1042 l 1563 868 l 868 868 m 0 1042 l 0 1563 l 174 1563 l 174 1042 l 0 1042 m 694 1042 l 694 1563 l 868 1563 l 868 1389 l 1389 1389 l 1389 1563 l 1563 1563 l 1563 1215 l 868 1215 l 868 1042 l 694 1042 m 174 1563 l 174 1736 l 694 1736 l 694 1563 l 174 1563 m 868 1563 l 868 1736 l 1389 1736 l 1389 1563 l 868 1563 z "},"Ŕ":{"ha":1042,"x_min":0,"x_max":868,"o":"m 694 868 l 694 1563 l 868 1563 l 868 868 l 694 868 m 694 1736 l 694 1910 l 868 1910 l 868 1736 l 694 1736 m 0 868 l 0 2083 l 347 2083 l 347 2257 l 521 2257 l 521 2083 l 694 2083 l 694 1910 l 174 1910 l 174 1736 l 694 1736 l 694 1563 l 174 1563 l 174 868 l 0 868 m 521 2257 l 521 2431 l 694 2431 l 694 2257 l 521 2257 z "},"ŕ":{"ha":1042,"x_min":0,"x_max":868,"o":"m 694 1389 l 694 1563 l 868 1563 l 868 1389 l 694 1389 m 0 868 l 0 1736 l 174 1736 l 174 1563 l 347 1563 l 347 1389 l 174 1389 l 174 868 l 0 868 m 347 1563 l 347 1736 l 694 1736 l 694 1563 l 347 1563 m 347 1910 l 347 2083 l 521 2083 l 521 1910 l 347 1910 m 521 2083 l 521 2257 l 694 2257 l 694 2083 l 521 2083 z "},"Ŗ":{"ha":1042,"x_min":0,"x_max":868,"o":"m 347 521 l 347 868 l 521 868 l 521 521 l 347 521 m 694 868 l 694 1563 l 868 1563 l 868 868 l 694 868 m 694 1736 l 694 1910 l 868 1910 l 868 1736 l 694 1736 m 0 868 l 0 2083 l 694 2083 l 694 1910 l 174 1910 l 174 1736 l 694 1736 l 694 1563 l 174 1563 l 174 868 l 0 868 z "},"ŗ":{"ha":1042,"x_min":0,"x_max":868,"o":"m 347 521 l 347 868 l 521 868 l 521 521 l 347 521 m 694 1389 l 694 1563 l 868 1563 l 868 1389 l 694 1389 m 0 868 l 0 1736 l 174 1736 l 174 1563 l 347 1563 l 347 1389 l 174 1389 l 174 868 l 0 868 m 347 1563 l 347 1736 l 694 1736 l 694 1563 l 347 1563 z "},"Ř":{"ha":1042,"x_min":0,"x_max":868,"o":"m 694 868 l 694 1563 l 868 1563 l 868 868 l 694 868 m 694 1736 l 694 1910 l 868 1910 l 868 1736 l 694 1736 m 0 868 l 0 2083 l 347 2083 l 347 2257 l 521 2257 l 521 2083 l 694 2083 l 694 1910 l 174 1910 l 174 1736 l 694 1736 l 694 1563 l 174 1563 l 174 868 l 0 868 m 174 2257 l 174 2431 l 347 2431 l 347 2257 l 174 2257 m 521 2257 l 521 2431 l 694 2431 l 694 2257 l 521 2257 z "},"ř":{"ha":1042,"x_min":0,"x_max":868,"o":"m 694 1389 l 694 1563 l 868 1563 l 868 1389 l 694 1389 m 0 868 l 0 1736 l 174 1736 l 174 1563 l 347 1563 l 347 1389 l 174 1389 l 174 868 l 0 868 m 347 1563 l 347 1736 l 694 1736 l 694 1563 l 347 1563 m 347 1910 l 347 2083 l 521 2083 l 521 1910 l 347 1910 m 174 2083 l 174 2257 l 347 2257 l 347 2083 l 174 2083 m 521 2083 l 521 2257 l 694 2257 l 694 2083 l 521 2083 z "},"Ś":{"ha":1042,"x_min":0,"x_max":868,"o":"m 174 868 l 174 1042 l 694 1042 l 694 868 l 174 868 m 0 1042 l 0 1215 l 174 1215 l 174 1042 l 0 1042 m 694 1042 l 694 1563 l 868 1563 l 868 1042 l 694 1042 m 174 1563 l 174 1736 l 694 1736 l 694 1563 l 174 1563 m 0 1736 l 0 1910 l 174 1910 l 174 1736 l 0 1736 m 174 1910 l 174 2083 l 347 2083 l 347 2257 l 521 2257 l 521 2083 l 868 2083 l 868 1910 l 174 1910 m 521 2257 l 521 2431 l 694 2431 l 694 2257 l 521 2257 z "},"ś":{"ha":1042,"x_min":0,"x_max":868,"o":"m 0 868 l 0 1042 l 694 1042 l 694 868 l 0 868 m 694 1042 l 694 1215 l 868 1215 l 868 1042 l 694 1042 m 174 1215 l 174 1389 l 694 1389 l 694 1215 l 174 1215 m 0 1389 l 0 1563 l 174 1563 l 174 1389 l 0 1389 m 174 1563 l 174 1736 l 868 1736 l 868 1563 l 174 1563 m 347 1910 l 347 2083 l 521 2083 l 521 1910 l 347 1910 m 521 2083 l 521 2257 l 694 2257 l 694 2083 l 521 2083 z "},"Ŝ":{"ha":1042,"x_min":0,"x_max":868,"o":"m 174 868 l 174 1042 l 694 1042 l 694 868 l 174 868 m 0 1042 l 0 1215 l 174 1215 l 174 1042 l 0 1042 m 694 1042 l 694 1563 l 868 1563 l 868 1042 l 694 1042 m 174 1563 l 174 1736 l 694 1736 l 694 1563 l 174 1563 m 0 1736 l 0 1910 l 174 1910 l 174 1736 l 0 1736 m 174 1910 l 174 2257 l 347 2257 l 347 2083 l 521 2083 l 521 2257 l 694 2257 l 694 2083 l 868 2083 l 868 1910 l 174 1910 m 347 2257 l 347 2431 l 521 2431 l 521 2257 l 347 2257 z "},"ŝ":{"ha":1042,"x_min":0,"x_max":868,"o":"m 0 868 l 0 1042 l 694 1042 l 694 868 l 0 868 m 694 1042 l 694 1215 l 868 1215 l 868 1042 l 694 1042 m 174 1215 l 174 1389 l 694 1389 l 694 1215 l 174 1215 m 0 1389 l 0 1563 l 174 1563 l 174 1389 l 0 1389 m 174 1563 l 174 1736 l 868 1736 l 868 1563 l 174 1563 m 174 1910 l 174 2083 l 347 2083 l 347 1910 l 174 1910 m 521 1910 l 521 2083 l 694 2083 l 694 1910 l 521 1910 m 347 2083 l 347 2257 l 521 2257 l 521 2083 l 347 2083 z "},"Ş":{"ha":1042,"x_min":0,"x_max":868,"o":"m 174 521 l 174 694 l 347 694 l 347 868 l 174 868 l 174 1042 l 694 1042 l 694 868 l 521 868 l 521 521 l 174 521 m 0 1042 l 0 1215 l 174 1215 l 174 1042 l 0 1042 m 694 1042 l 694 1563 l 868 1563 l 868 1042 l 694 1042 m 174 1563 l 174 1736 l 694 1736 l 694 1563 l 174 1563 m 0 1736 l 0 1910 l 174 1910 l 174 1736 l 0 1736 m 174 1910 l 174 2083 l 868 2083 l 868 1910 l 174 1910 z "},"ş":{"ha":1042,"x_min":0,"x_max":868,"o":"m 174 521 l 174 694 l 347 694 l 347 868 l 0 868 l 0 1042 l 694 1042 l 694 868 l 521 868 l 521 521 l 174 521 m 694 1042 l 694 1215 l 868 1215 l 868 1042 l 694 1042 m 174 1215 l 174 1389 l 694 1389 l 694 1215 l 174 1215 m 0 1389 l 0 1563 l 174 1563 l 174 1389 l 0 1389 m 174 1563 l 174 1736 l 868 1736 l 868 1563 l 174 1563 z "},"Š":{"ha":1042,"x_min":0,"x_max":868,"o":"m 174 868 l 174 1042 l 694 1042 l 694 868 l 174 868 m 0 1042 l 0 1215 l 174 1215 l 174 1042 l 0 1042 m 694 1042 l 694 1563 l 868 1563 l 868 1042 l 694 1042 m 174 1563 l 174 1736 l 694 1736 l 694 1563 l 174 1563 m 0 1736 l 0 1910 l 174 1910 l 174 1736 l 0 1736 m 174 1910 l 174 2083 l 347 2083 l 347 2257 l 521 2257 l 521 2083 l 868 2083 l 868 1910 l 174 1910 m 174 2257 l 174 2431 l 347 2431 l 347 2257 l 174 2257 m 521 2257 l 521 2431 l 694 2431 l 694 2257 l 521 2257 z "},"š":{"ha":1042,"x_min":0,"x_max":868,"o":"m 0 868 l 0 1042 l 694 1042 l 694 868 l 0 868 m 694 1042 l 694 1215 l 868 1215 l 868 1042 l 694 1042 m 174 1215 l 174 1389 l 694 1389 l 694 1215 l 174 1215 m 0 1389 l 0 1563 l 174 1563 l 174 1389 l 0 1389 m 174 1563 l 174 1736 l 868 1736 l 868 1563 l 174 1563 m 347 1910 l 347 2083 l 521 2083 l 521 1910 l 347 1910 m 174 2083 l 174 2257 l 347 2257 l 347 2083 l 174 2083 m 521 2083 l 521 2257 l 694 2257 l 694 2083 l 521 2083 z "},"Ţ":{"ha":1042,"x_min":0,"x_max":868,"o":"m 347 521 l 347 694 l 521 694 l 521 868 l 694 868 l 694 521 l 347 521 m 347 868 l 347 1910 l 0 1910 l 0 2083 l 868 2083 l 868 1910 l 521 1910 l 521 868 l 347 868 z "},"ţ":{"ha":694,"x_min":0,"x_max":521,"o":"m 174 521 l 174 694 l 347 694 l 347 1042 l 521 1042 l 521 521 l 174 521 m 174 1042 l 174 1736 l 0 1736 l 0 1910 l 174 1910 l 174 2083 l 347 2083 l 347 1910 l 521 1910 l 521 1736 l 347 1736 l 347 1042 l 174 1042 z "},"Ť":{"ha":1042,"x_min":0,"x_max":868,"o":"m 347 868 l 347 1910 l 0 1910 l 0 2083 l 347 2083 l 347 2257 l 521 2257 l 521 2083 l 868 2083 l 868 1910 l 521 1910 l 521 868 l 347 868 m 174 2257 l 174 2431 l 347 2431 l 347 2257 l 174 2257 m 521 2257 l 521 2431 l 694 2431 l 694 2257 l 521 2257 z "},"ť":{"ha":1042,"x_min":0,"x_max":868,"o":"m 347 868 l 347 1042 l 521 1042 l 521 868 l 347 868 m 174 1042 l 174 1736 l 0 1736 l 0 1910 l 174 1910 l 174 2083 l 347 2083 l 347 1910 l 521 1910 l 521 1736 l 347 1736 l 347 1042 l 174 1042 m 694 1910 l 694 2257 l 868 2257 l 868 1910 l 694 1910 z "},"Ŧ":{"ha":1042,"x_min":0,"x_max":868,"o":"m 347 868 l 347 1389 l 174 1389 l 174 1563 l 347 1563 l 347 1910 l 0 1910 l 0 2083 l 868 2083 l 868 1910 l 521 1910 l 521 1563 l 694 1563 l 694 1389 l 521 1389 l 521 868 l 347 868 z "},"ŧ":{"ha":694,"x_min":0,"x_max":521,"o":"m 347 868 l 347 1042 l 521 1042 l 521 868 l 347 868 m 174 1042 l 174 1389 l 0 1389 l 0 1563 l 174 1563 l 174 1736 l 0 1736 l 0 1910 l 174 1910 l 174 2083 l 347 2083 l 347 1910 l 521 1910 l 521 1736 l 347 1736 l 347 1563 l 521 1563 l 521 1389 l 347 1389 l 347 1042 l 174 1042 z "},"Ũ":{"ha":1042,"x_min":0,"x_max":868,"o":"m 174 868 l 174 1042 l 694 1042 l 694 868 l 174 868 m 694 1042 l 694 2083 l 868 2083 l 868 1042 l 694 1042 m 0 1042 l 0 2257 l 174 2257 l 174 1042 l 0 1042 m 347 2083 l 347 2257 l 174 2257 l 174 2431 l 521 2431 l 521 2257 l 694 2257 l 694 2083 l 347 2083 m 694 2257 l 694 2431 l 868 2431 l 868 2257 l 694 2257 z "},"ũ":{"ha":1042,"x_min":0,"x_max":868,"o":"m 0 1042 l 0 1736 l 174 1736 l 174 1042 l 0 1042 m 174 868 l 174 1042 l 694 1042 l 694 1736 l 868 1736 l 868 868 l 174 868 m 0 1910 l 0 2083 l 174 2083 l 174 1910 l 0 1910 m 347 1910 l 347 2083 l 174 2083 l 174 2257 l 521 2257 l 521 2083 l 694 2083 l 694 1910 l 347 1910 m 694 2083 l 694 2257 l 868 2257 l 868 2083 l 694 2083 z "},"Ū":{"ha":1042,"x_min":0,"x_max":868,"o":"m 174 868 l 174 1042 l 694 1042 l 694 868 l 174 868 m 0 1042 l 0 2083 l 174 2083 l 174 1042 l 0 1042 m 694 1042 l 694 2083 l 868 2083 l 868 1042 l 694 1042 m 174 2257 l 174 2431 l 694 2431 l 694 2257 l 174 2257 z "},"ū":{"ha":1042,"x_min":0,"x_max":868,"o":"m 0 1042 l 0 1736 l 174 1736 l 174 1042 l 0 1042 m 174 868 l 174 1042 l 694 1042 l 694 1736 l 868 1736 l 868 868 l 174 868 m 174 1910 l 174 2083 l 694 2083 l 694 1910 l 174 1910 z "},"Ŭ":{"ha":1042,"x_min":0,"x_max":868,"o":"m 174 868 l 174 1042 l 694 1042 l 694 868 l 174 868 m 0 1042 l 0 2083 l 174 2083 l 174 1042 l 0 1042 m 694 1042 l 694 2083 l 868 2083 l 868 1042 l 694 1042 m 174 2083 l 174 2431 l 347 2431 l 347 2257 l 521 2257 l 521 2431 l 694 2431 l 694 2083 l 174 2083 z "},"ŭ":{"ha":1042,"x_min":0,"x_max":868,"o":"m 0 1042 l 0 1736 l 174 1736 l 174 1042 l 0 1042 m 174 868 l 174 1042 l 694 1042 l 694 1736 l 868 1736 l 868 868 l 174 868 m 174 1910 l 174 2257 l 347 2257 l 347 2083 l 521 2083 l 521 2257 l 694 2257 l 694 1910 l 174 1910 z "},"Ů":{"ha":1042,"x_min":0,"x_max":868,"o":"m 174 868 l 174 1042 l 694 1042 l 694 868 l 174 868 m 521 2083 l 521 2257 l 347 2257 l 347 2083 l 521 2083 m 0 1042 l 0 2083 l 174 2083 l 174 2431 l 694 2431 l 694 2083 l 868 2083 l 868 1042 l 694 1042 l 694 1910 l 174 1910 l 174 1042 l 0 1042 z "},"ů":{"ha":1042,"x_min":0,"x_max":868,"o":"m 0 1042 l 0 1736 l 174 1736 l 174 1042 l 0 1042 m 174 868 l 174 1042 l 694 1042 l 694 1736 l 868 1736 l 868 868 l 174 868 m 521 2083 l 521 2257 l 347 2257 l 347 2083 l 521 2083 m 174 1910 l 174 2431 l 694 2431 l 694 1910 l 174 1910 z "},"Ű":{"ha":1042,"x_min":0,"x_max":868,"o":"m 174 868 l 174 1042 l 694 1042 l 694 868 l 174 868 m 0 1042 l 0 2083 l 174 2083 l 174 1042 l 0 1042 m 694 1042 l 694 2083 l 868 2083 l 868 1042 l 694 1042 m 174 2083 l 174 2257 l 347 2257 l 347 2083 l 174 2083 m 521 2083 l 521 2257 l 694 2257 l 694 2083 l 521 2083 m 347 2257 l 347 2431 l 521 2431 l 521 2257 l 347 2257 m 694 2257 l 694 2431 l 868 2431 l 868 2257 l 694 2257 z "},"ű":{"ha":1042,"x_min":0,"x_max":868,"o":"m 0 1042 l 0 1736 l 174 1736 l 174 1042 l 0 1042 m 174 868 l 174 1042 l 694 1042 l 694 1736 l 868 1736 l 868 868 l 174 868 m 174 1910 l 174 2083 l 347 2083 l 347 1910 l 174 1910 m 521 1910 l 521 2083 l 694 2083 l 694 1910 l 521 1910 m 347 2083 l 347 2257 l 521 2257 l 521 2083 l 347 2083 m 694 2083 l 694 2257 l 868 2257 l 868 2083 l 694 2083 z "},"Ų":{"ha":1042,"x_min":0,"x_max":868,"o":"m 347 521 l 347 868 l 174 868 l 174 1042 l 694 1042 l 694 868 l 521 868 l 521 694 l 694 694 l 694 521 l 347 521 m 0 1042 l 0 2083 l 174 2083 l 174 1042 l 0 1042 m 694 1042 l 694 2083 l 868 2083 l 868 1042 l 694 1042 z "},"ų":{"ha":1042,"x_min":0,"x_max":868,"o":"m 0 1042 l 0 1736 l 174 1736 l 174 1042 l 0 1042 m 521 521 l 521 868 l 174 868 l 174 1042 l 694 1042 l 694 1736 l 868 1736 l 868 868 l 694 868 l 694 694 l 868 694 l 868 521 l 521 521 z "},"Ŵ":{"ha":1042,"x_min":0,"x_max":868,"o":"m 347 1215 l 347 1389 l 521 1389 l 521 1215 l 347 1215 m 0 868 l 0 2083 l 174 2083 l 174 1215 l 347 1215 l 347 1042 l 174 1042 l 174 868 l 0 868 m 694 868 l 694 1042 l 521 1042 l 521 1215 l 694 1215 l 694 2083 l 868 2083 l 868 868 l 694 868 m 174 2083 l 174 2257 l 347 2257 l 347 2083 l 174 2083 m 521 2083 l 521 2257 l 694 2257 l 694 2083 l 521 2083 m 347 2257 l 347 2431 l 521 2431 l 521 2257 l 347 2257 z "},"ŵ":{"ha":1042,"x_min":0,"x_max":868,"o":"m 0 1042 l 0 1736 l 174 1736 l 174 1042 l 0 1042 m 174 868 l 174 1042 l 347 1042 l 347 1389 l 521 1389 l 521 1042 l 694 1042 l 694 1736 l 868 1736 l 868 868 l 174 868 m 174 1910 l 174 2083 l 347 2083 l 347 1910 l 174 1910 m 521 1910 l 521 2083 l 694 2083 l 694 1910 l 521 1910 m 347 2083 l 347 2257 l 521 2257 l 521 2083 l 347 2083 z "},"Ŷ":{"ha":1042,"x_min":0,"x_max":868,"o":"m 347 868 l 347 1736 l 521 1736 l 521 868 l 347 868 m 174 1736 l 174 1910 l 347 1910 l 347 1736 l 174 1736 m 521 1736 l 521 1910 l 694 1910 l 694 1736 l 521 1736 m 0 1910 l 0 2083 l 174 2083 l 174 1910 l 0 1910 m 694 1910 l 694 2083 l 868 2083 l 868 1910 l 694 1910 m 174 2083 l 174 2257 l 347 2257 l 347 2083 l 174 2083 m 521 2083 l 521 2257 l 694 2257 l 694 2083 l 521 2083 m 347 2257 l 347 2431 l 521 2431 l 521 2257 l 347 2257 z "},"ŷ":{"ha":1042,"x_min":0,"x_max":868,"o":"m 0 694 l 0 868 l 694 868 l 694 694 l 0 694 m 0 1215 l 0 1736 l 174 1736 l 174 1215 l 0 1215 m 694 868 l 694 1042 l 174 1042 l 174 1215 l 694 1215 l 694 1736 l 868 1736 l 868 868 l 694 868 m 174 1910 l 174 2083 l 347 2083 l 347 1910 l 174 1910 m 521 1910 l 521 2083 l 694 2083 l 694 1910 l 521 1910 m 347 2083 l 347 2257 l 521 2257 l 521 2083 l 347 2083 z "},"Ÿ":{"ha":1042,"x_min":0,"x_max":868,"o":"m 347 868 l 347 1736 l 521 1736 l 521 868 l 347 868 m 174 1736 l 174 1910 l 347 1910 l 347 1736 l 174 1736 m 521 1736 l 521 1910 l 694 1910 l 694 1736 l 521 1736 m 0 1910 l 0 2083 l 174 2083 l 174 1910 l 0 1910 m 694 1910 l 694 2083 l 868 2083 l 868 1910 l 694 1910 m 174 2257 l 174 2431 l 347 2431 l 347 2257 l 174 2257 m 521 2257 l 521 2431 l 694 2431 l 694 2257 l 521 2257 z "},"Ź":{"ha":1042,"x_min":0,"x_max":868,"o":"m 0 868 l 0 1215 l 174 1215 l 174 1042 l 868 1042 l 868 868 l 0 868 m 174 1215 l 174 1389 l 347 1389 l 347 1215 l 174 1215 m 347 1389 l 347 1563 l 521 1563 l 521 1389 l 347 1389 m 521 1563 l 521 1736 l 694 1736 l 694 1563 l 521 1563 m 694 1736 l 694 1910 l 0 1910 l 0 2083 l 347 2083 l 347 2257 l 521 2257 l 521 2083 l 868 2083 l 868 1736 l 694 1736 m 521 2257 l 521 2431 l 694 2431 l 694 2257 l 521 2257 z "},"ź":{"ha":1042,"x_min":0,"x_max":868,"o":"m 0 868 l 0 1042 l 174 1042 l 174 1215 l 347 1215 l 347 1042 l 868 1042 l 868 868 l 0 868 m 347 1215 l 347 1389 l 521 1389 l 521 1215 l 347 1215 m 521 1389 l 521 1563 l 0 1563 l 0 1736 l 868 1736 l 868 1563 l 694 1563 l 694 1389 l 521 1389 m 347 1910 l 347 2083 l 521 2083 l 521 1910 l 347 1910 m 521 2083 l 521 2257 l 694 2257 l 694 2083 l 521 2083 z "},"Ż":{"ha":1042,"x_min":0,"x_max":868,"o":"m 0 868 l 0 1215 l 174 1215 l 174 1042 l 868 1042 l 868 868 l 0 868 m 174 1215 l 174 1389 l 347 1389 l 347 1215 l 174 1215 m 347 1389 l 347 1563 l 521 1563 l 521 1389 l 347 1389 m 521 1563 l 521 1736 l 694 1736 l 694 1563 l 521 1563 m 694 1736 l 694 1910 l 0 1910 l 0 2083 l 868 2083 l 868 1736 l 694 1736 m 347 2257 l 347 2431 l 521 2431 l 521 2257 l 347 2257 z "},"ż":{"ha":1042,"x_min":0,"x_max":868,"o":"m 0 868 l 0 1042 l 174 1042 l 174 1215 l 347 1215 l 347 1042 l 868 1042 l 868 868 l 0 868 m 347 1215 l 347 1389 l 521 1389 l 521 1215 l 347 1215 m 521 1389 l 521 1563 l 0 1563 l 0 1736 l 868 1736 l 868 1563 l 694 1563 l 694 1389 l 521 1389 m 347 1910 l 347 2083 l 521 2083 l 521 1910 l 347 1910 z "},"Ž":{"ha":1042,"x_min":0,"x_max":868,"o":"m 0 868 l 0 1215 l 174 1215 l 174 1042 l 868 1042 l 868 868 l 0 868 m 174 1215 l 174 1389 l 347 1389 l 347 1215 l 174 1215 m 347 1389 l 347 1563 l 521 1563 l 521 1389 l 347 1389 m 521 1563 l 521 1736 l 694 1736 l 694 1563 l 521 1563 m 694 1736 l 694 1910 l 0 1910 l 0 2083 l 347 2083 l 347 2257 l 521 2257 l 521 2083 l 868 2083 l 868 1736 l 694 1736 m 174 2257 l 174 2431 l 347 2431 l 347 2257 l 174 2257 m 521 2257 l 521 2431 l 694 2431 l 694 2257 l 521 2257 z "},"ž":{"ha":1042,"x_min":0,"x_max":868,"o":"m 0 868 l 0 1042 l 174 1042 l 174 1215 l 347 1215 l 347 1042 l 868 1042 l 868 868 l 0 868 m 347 1215 l 347 1389 l 521 1389 l 521 1215 l 347 1215 m 521 1389 l 521 1563 l 0 1563 l 0 1736 l 868 1736 l 868 1563 l 694 1563 l 694 1389 l 521 1389 m 347 1910 l 347 2083 l 521 2083 l 521 1910 l 347 1910 m 174 2083 l 174 2257 l 347 2257 l 347 2083 l 174 2083 m 521 2083 l 521 2257 l 694 2257 l 694 2083 l 521 2083 z "},"ſ":{"ha":868,"x_min":0,"x_max":694,"o":"m 174 868 l 174 1563 l 0 1563 l 0 1736 l 174 1736 l 174 1910 l 347 1910 l 347 868 l 174 868 m 347 1910 l 347 2083 l 694 2083 l 694 1910 l 347 1910 z "},"Ƃ":{"ha":1042,"x_min":0,"x_max":868,"o":"m 0 868 l 0 2083 l 868 2083 l 868 1910 l 174 1910 l 174 1563 l 694 1563 l 694 1389 l 174 1389 l 174 1042 l 694 1042 l 694 1389 l 868 1389 l 868 868 l 0 868 z "},"ƃ":{"ha":868,"x_min":0,"x_max":694,"o":"m 521 1042 l 521 1389 l 694 1389 l 694 1042 l 521 1042 m 0 868 l 0 2083 l 694 2083 l 694 1910 l 174 1910 l 174 1563 l 521 1563 l 521 1389 l 174 1389 l 174 1042 l 521 1042 l 521 868 l 0 868 z "},"Ə":{"ha":1042,"x_min":0,"x_max":868,"o":"m 174 868 l 174 1042 l 694 1042 l 694 868 l 174 868 m 0 1042 l 0 1736 l 694 1736 l 694 1910 l 868 1910 l 868 1042 l 694 1042 l 694 1563 l 174 1563 l 174 1042 l 0 1042 m 174 1910 l 174 2083 l 694 2083 l 694 1910 l 174 1910 z "},"ƒ":{"ha":1042,"x_min":0,"x_max":868,"o":"m 0 694 l 0 868 l 347 868 l 347 694 l 0 694 m 347 868 l 347 1563 l 174 1563 l 174 1736 l 347 1736 l 347 1910 l 521 1910 l 521 1736 l 868 1736 l 868 1563 l 521 1563 l 521 868 l 347 868 m 521 1910 l 521 2083 l 868 2083 l 868 1910 l 521 1910 z "},"Ƶ":{"ha":1042,"x_min":0,"x_max":868,"o":"m 0 868 l 0 1215 l 174 1215 l 174 1042 l 868 1042 l 868 868 l 0 868 m 174 1215 l 174 1389 l 0 1389 l 0 1563 l 521 1563 l 521 1736 l 694 1736 l 694 1563 l 868 1563 l 868 1389 l 347 1389 l 347 1215 l 174 1215 m 694 1736 l 694 1910 l 0 1910 l 0 2083 l 868 2083 l 868 1736 l 694 1736 z "},"ƶ":{"ha":1042,"x_min":0,"x_max":868,"o":"m 0 868 l 0 1042 l 174 1042 l 174 1215 l 0 1215 l 0 1389 l 521 1389 l 521 1563 l 0 1563 l 0 1736 l 868 1736 l 868 1563 l 694 1563 l 694 1389 l 868 1389 l 868 1215 l 347 1215 l 347 1042 l 868 1042 l 868 868 l 0 868 z "},"Ʒ":{"ha":1042,"x_min":0,"x_max":868,"o":"m 174 868 l 174 1042 l 694 1042 l 694 868 l 174 868 m 0 1042 l 0 1215 l 174 1215 l 174 1042 l 0 1042 m 694 1042 l 694 1563 l 868 1563 l 868 1042 l 694 1042 m 347 1563 l 347 1736 l 521 1736 l 521 1910 l 0 1910 l 0 2083 l 868 2083 l 868 1910 l 694 1910 l 694 1563 l 347 1563 z "},"Ǥ":{"ha":1215,"x_min":0,"x_max":1042,"o":"m 174 868 l 174 1042 l 694 1042 l 694 868 l 174 868 m 694 1042 l 694 1215 l 347 1215 l 347 1389 l 694 1389 l 694 1563 l 521 1563 l 521 1736 l 868 1736 l 868 1389 l 1042 1389 l 1042 1215 l 868 1215 l 868 1042 l 694 1042 m 0 1042 l 0 1910 l 174 1910 l 174 1042 l 0 1042 m 174 1910 l 174 2083 l 868 2083 l 868 1910 l 174 1910 z "},"ǥ":{"ha":1215,"x_min":0,"x_max":1042,"o":"m 174 694 l 174 868 l 694 868 l 694 694 l 174 694 m 0 1215 l 0 1563 l 174 1563 l 174 1215 l 0 1215 m 694 868 l 694 1042 l 174 1042 l 174 1215 l 694 1215 l 694 1389 l 347 1389 l 347 1563 l 174 1563 l 174 1736 l 868 1736 l 868 1563 l 1042 1563 l 1042 1389 l 868 1389 l 868 868 l 694 868 z "},"Ǧ":{"ha":1042,"x_min":0,"x_max":868,"o":"m 174 868 l 174 1042 l 694 1042 l 694 868 l 174 868 m 694 1042 l 694 1563 l 521 1563 l 521 1736 l 868 1736 l 868 1042 l 694 1042 m 0 1042 l 0 1910 l 174 1910 l 174 1042 l 0 1042 m 174 1910 l 174 2083 l 347 2083 l 347 2257 l 521 2257 l 521 2083 l 868 2083 l 868 1910 l 174 1910 m 174 2257 l 174 2431 l 347 2431 l 347 2257 l 174 2257 m 521 2257 l 521 2431 l 694 2431 l 694 2257 l 521 2257 z "},"ǧ":{"ha":1042,"x_min":0,"x_max":868,"o":"m 0 694 l 0 868 l 694 868 l 694 694 l 0 694 m 0 1215 l 0 1563 l 174 1563 l 174 1215 l 0 1215 m 694 868 l 694 1042 l 174 1042 l 174 1215 l 694 1215 l 694 1563 l 174 1563 l 174 1736 l 868 1736 l 868 868 l 694 868 m 347 1910 l 347 2083 l 521 2083 l 521 1910 l 347 1910 m 174 2083 l 174 2257 l 347 2257 l 347 2083 l 174 2083 m 521 2083 l 521 2257 l 694 2257 l 694 2083 l 521 2083 z "},"Ǩ":{"ha":1042,"x_min":0,"x_max":868,"o":"m 694 868 l 694 1389 l 868 1389 l 868 868 l 694 868 m 521 1389 l 521 1563 l 694 1563 l 694 1389 l 521 1389 m 521 1736 l 521 1910 l 694 1910 l 694 1736 l 521 1736 m 0 868 l 0 2083 l 174 2083 l 174 1736 l 521 1736 l 521 1563 l 174 1563 l 174 868 l 0 868 m 694 1910 l 694 2083 l 868 2083 l 868 1910 l 694 1910 m 347 2083 l 347 2257 l 521 2257 l 521 2083 l 347 2083 m 174 2257 l 174 2431 l 347 2431 l 347 2257 l 174 2257 m 521 2257 l 521 2431 l 694 2431 l 694 2257 l 521 2257 z "},"ǩ":{"ha":868,"x_min":0,"x_max":694,"o":"m 521 868 l 521 1042 l 694 1042 l 694 868 l 521 868 m 347 1042 l 347 1215 l 521 1215 l 521 1042 l 347 1042 m 347 1389 l 347 1563 l 521 1563 l 521 1389 l 347 1389 m 521 1563 l 521 1736 l 694 1736 l 694 1563 l 521 1563 m 0 868 l 0 2083 l 174 2083 l 174 1389 l 347 1389 l 347 1215 l 174 1215 l 174 868 l 0 868 m 347 2083 l 347 2257 l 521 2257 l 521 2083 l 347 2083 m 174 2257 l 174 2431 l 347 2431 l 347 2257 l 174 2257 m 521 2257 l 521 2431 l 694 2431 l 694 2257 l 521 2257 z "},"Ǫ":{"ha":1042,"x_min":0,"x_max":868,"o":"m 347 521 l 347 868 l 174 868 l 174 1042 l 694 1042 l 694 868 l 521 868 l 521 694 l 694 694 l 694 521 l 347 521 m 0 1042 l 0 1910 l 174 1910 l 174 1042 l 0 1042 m 694 1042 l 694 1910 l 868 1910 l 868 1042 l 694 1042 m 174 1910 l 174 2083 l 694 2083 l 694 1910 l 174 1910 z "},"ǫ":{"ha":1042,"x_min":0,"x_max":868,"o":"m 347 521 l 347 868 l 174 868 l 174 1042 l 694 1042 l 694 868 l 521 868 l 521 694 l 694 694 l 694 521 l 347 521 m 0 1042 l 0 1563 l 174 1563 l 174 1042 l 0 1042 m 694 1042 l 694 1563 l 868 1563 l 868 1042 l 694 1042 m 174 1563 l 174 1736 l 694 1736 l 694 1563 l 174 1563 z "},"Ǯ":{"ha":1042,"x_min":0,"x_max":868,"o":"m 174 868 l 174 1042 l 694 1042 l 694 868 l 174 868 m 0 1042 l 0 1215 l 174 1215 l 174 1042 l 0 1042 m 694 1042 l 694 1563 l 868 1563 l 868 1042 l 694 1042 m 347 1563 l 347 1736 l 521 1736 l 521 1910 l 0 1910 l 0 2083 l 347 2083 l 347 2257 l 521 2257 l 521 2083 l 868 2083 l 868 1910 l 694 1910 l 694 1563 l 347 1563 m 174 2257 l 174 2431 l 347 2431 l 347 2257 l 174 2257 m 521 2257 l 521 2431 l 694 2431 l 694 2257 l 521 2257 z "},"ǯ":{"ha":1042,"x_min":0,"x_max":868,"o":"m 0 694 l 0 868 l 694 868 l 694 694 l 0 694 m 694 868 l 694 1215 l 868 1215 l 868 868 l 694 868 m 347 1215 l 347 1389 l 521 1389 l 521 1563 l 0 1563 l 0 1736 l 868 1736 l 868 1563 l 694 1563 l 694 1215 l 347 1215 m 347 1910 l 347 2083 l 521 2083 l 521 1910 l 347 1910 m 174 2083 l 174 2257 l 347 2257 l 347 2083 l 174 2083 m 521 2083 l 521 2257 l 694 2257 l 694 2083 l 521 2083 z "},"Ǻ":{"ha":1042,"x_min":0,"x_max":868,"o":"m 347 2083 l 347 2257 l 174 2257 l 174 2083 l 347 2083 m 0 868 l 0 2431 l 521 2431 l 521 2257 l 694 2257 l 694 1910 l 174 1910 l 174 1736 l 694 1736 l 694 1910 l 868 1910 l 868 868 l 694 868 l 694 1563 l 174 1563 l 174 868 l 0 868 m 694 2257 l 694 2431 l 868 2431 l 868 2257 l 694 2257 z "},"ǻ":{"ha":1042,"x_min":0,"x_max":868,"o":"m 0 1042 l 0 1215 l 174 1215 l 174 1042 l 0 1042 m 174 868 l 174 1042 l 694 1042 l 694 1215 l 174 1215 l 174 1389 l 694 1389 l 694 1563 l 868 1563 l 868 868 l 174 868 m 521 1736 l 521 1910 l 347 1910 l 347 1736 l 521 1736 m 174 1563 l 174 2083 l 347 2083 l 347 2257 l 521 2257 l 521 2083 l 694 2083 l 694 1563 l 174 1563 m 521 2257 l 521 2431 l 694 2431 l 694 2257 l 521 2257 z "},"Ǽ":{"ha":1736,"x_min":0,"x_max":1563,"o":"m 0 868 l 0 1910 l 174 1910 l 174 1736 l 694 1736 l 694 1910 l 174 1910 l 174 2083 l 694 2083 l 694 2257 l 868 2257 l 868 2083 l 1563 2083 l 1563 1910 l 868 1910 l 868 1736 l 1215 1736 l 1215 1563 l 868 1563 l 868 1042 l 1563 1042 l 1563 868 l 694 868 l 694 1563 l 174 1563 l 174 868 l 0 868 m 868 2257 l 868 2431 l 1042 2431 l 1042 2257 l 868 2257 z "},"ǽ":{"ha":1736,"x_min":0,"x_max":1563,"o":"m 174 868 l 174 1042 l 694 1042 l 694 868 l 174 868 m 868 868 l 868 1042 l 1563 1042 l 1563 868 l 868 868 m 0 1042 l 0 1215 l 174 1215 l 174 1042 l 0 1042 m 694 1042 l 694 1215 l 174 1215 l 174 1389 l 694 1389 l 694 1563 l 868 1563 l 868 1389 l 1389 1389 l 1389 1563 l 1563 1563 l 1563 1215 l 868 1215 l 868 1042 l 694 1042 m 174 1563 l 174 1736 l 694 1736 l 694 1563 l 174 1563 m 868 1563 l 868 1736 l 1389 1736 l 1389 1563 l 868 1563 m 694 1910 l 694 2083 l 868 2083 l 868 1910 l 694 1910 m 868 2083 l 868 2257 l 1042 2257 l 1042 2083 l 868 2083 z "},"Ǿ":{"ha":1042,"x_min":0,"x_max":868,"o":"m 0 868 l 0 1042 l 174 1042 l 174 868 l 0 868 m 347 868 l 347 1042 l 694 1042 l 694 868 l 347 868 m 174 1042 l 174 1215 l 347 1215 l 347 1042 l 174 1042 m 347 1215 l 347 1736 l 521 1736 l 521 1215 l 347 1215 m 694 1042 l 694 1736 l 868 1736 l 868 1042 l 694 1042 m 0 1215 l 0 1910 l 174 1910 l 174 1215 l 0 1215 m 521 1736 l 521 1910 l 694 1910 l 694 1736 l 521 1736 m 694 1910 l 694 2083 l 868 2083 l 868 1910 l 694 1910 m 174 1910 l 174 2083 l 347 2083 l 347 2257 l 521 2257 l 521 1910 l 174 1910 m 521 2257 l 521 2431 l 694 2431 l 694 2257 l 521 2257 z "},"ǿ":{"ha":1042,"x_min":0,"x_max":868,"o":"m 0 868 l 0 1042 l 174 1042 l 174 868 l 0 868 m 347 868 l 347 1042 l 694 1042 l 694 868 l 347 868 m 174 1042 l 174 1215 l 347 1215 l 347 1042 l 174 1042 m 347 1215 l 347 1389 l 521 1389 l 521 1215 l 347 1215 m 694 1042 l 694 1389 l 868 1389 l 868 1042 l 694 1042 m 0 1215 l 0 1563 l 174 1563 l 174 1215 l 0 1215 m 521 1389 l 521 1563 l 694 1563 l 694 1389 l 521 1389 m 174 1563 l 174 1736 l 521 1736 l 521 1563 l 174 1563 m 694 1563 l 694 1736 l 868 1736 l 868 1563 l 694 1563 m 347 1910 l 347 2083 l 521 2083 l 521 1910 l 347 1910 m 521 2083 l 521 2257 l 694 2257 l 694 2083 l 521 2083 z "},"Ș":{"ha":1042,"x_min":0,"x_max":868,"o":"m 347 521 l 347 868 l 174 868 l 174 1042 l 694 1042 l 694 868 l 521 868 l 521 521 l 347 521 m 0 1042 l 0 1215 l 174 1215 l 174 1042 l 0 1042 m 694 1042 l 694 1563 l 868 1563 l 868 1042 l 694 1042 m 174 1563 l 174 1736 l 694 1736 l 694 1563 l 174 1563 m 0 1736 l 0 1910 l 174 1910 l 174 1736 l 0 1736 m 174 1910 l 174 2083 l 868 2083 l 868 1910 l 174 1910 z "},"ș":{"ha":1042,"x_min":0,"x_max":868,"o":"m 347 521 l 347 868 l 0 868 l 0 1042 l 694 1042 l 694 868 l 521 868 l 521 521 l 347 521 m 694 1042 l 694 1215 l 868 1215 l 868 1042 l 694 1042 m 174 1215 l 174 1389 l 694 1389 l 694 1215 l 174 1215 m 0 1389 l 0 1563 l 174 1563 l 174 1389 l 0 1389 m 174 1563 l 174 1736 l 868 1736 l 868 1563 l 174 1563 z "},"Ț":{"ha":1042,"x_min":0,"x_max":868,"o":"m 521 521 l 521 868 l 694 868 l 694 521 l 521 521 m 347 868 l 347 1910 l 0 1910 l 0 2083 l 868 2083 l 868 1910 l 521 1910 l 521 868 l 347 868 z "},"ț":{"ha":694,"x_min":0,"x_max":521,"o":"m 174 521 l 174 868 l 347 868 l 347 521 l 174 521 m 347 868 l 347 1042 l 521 1042 l 521 868 l 347 868 m 174 1042 l 174 1736 l 0 1736 l 0 1910 l 174 1910 l 174 2083 l 347 2083 l 347 1910 l 521 1910 l 521 1736 l 347 1736 l 347 1042 l 174 1042 z "},"ȷ":{"ha":1042,"x_min":0,"x_max":868,"o":"m 174 694 l 174 868 l 694 868 l 694 694 l 174 694 m 0 868 l 0 1042 l 174 1042 l 174 868 l 0 868 m 694 868 l 694 1736 l 868 1736 l 868 868 l 694 868 z "},"ə":{"ha":1042,"x_min":0,"x_max":868,"o":"m 174 868 l 174 1042 l 694 1042 l 694 868 l 174 868 m 0 1042 l 0 1389 l 694 1389 l 694 1563 l 868 1563 l 868 1042 l 694 1042 l 694 1215 l 174 1215 l 174 1042 l 0 1042 m 0 1563 l 0 1736 l 694 1736 l 694 1563 l 0 1563 z "},"ʒ":{"ha":1042,"x_min":0,"x_max":868,"o":"m 0 694 l 0 868 l 694 868 l 694 694 l 0 694 m 694 868 l 694 1215 l 868 1215 l 868 868 l 694 868 m 347 1215 l 347 1389 l 521 1389 l 521 1563 l 0 1563 l 0 1736 l 868 1736 l 868 1563 l 694 1563 l 694 1215 l 347 1215 z "},"ˆ":{"ha":694,"x_min":0,"x_max":521,"o":"m 0 1910 l 0 2083 l 174 2083 l 174 1910 l 0 1910 m 347 1910 l 347 2083 l 521 2083 l 521 1910 l 347 1910 m 174 2083 l 174 2257 l 347 2257 l 347 2083 l 174 2083 z "},"ˇ":{"ha":694,"x_min":0,"x_max":521,"o":"m 174 1910 l 174 2083 l 347 2083 l 347 1910 l 174 1910 m 0 2083 l 0 2257 l 174 2257 l 174 2083 l 0 2083 m 347 2083 l 347 2257 l 521 2257 l 521 2083 l 347 2083 z "},"ˉ":{"ha":694,"x_min":0,"x_max":521,"o":"m 0 1910 l 0 2083 l 521 2083 l 521 1910 l 0 1910 z "},"ˊ":{"ha":521,"x_min":0,"x_max":347,"o":"m 0 1910 l 0 2083 l 174 2083 l 174 1910 l 0 1910 m 174 2083 l 174 2257 l 347 2257 l 347 2083 l 174 2083 z "},"ˋ":{"ha":521,"x_min":0,"x_max":347,"o":"m 174 1910 l 174 2083 l 347 2083 l 347 1910 l 174 1910 m 0 2083 l 0 2257 l 174 2257 l 174 2083 l 0 2083 z "},"˘":{"ha":694,"x_min":0,"x_max":521,"o":"m 0 1910 l 0 2257 l 174 2257 l 174 2083 l 347 2083 l 347 2257 l 521 2257 l 521 1910 l 0 1910 z "},"˙":{"ha":521,"x_min":174,"x_max":347,"o":"m 174 1910 l 174 2083 l 347 2083 l 347 1910 l 174 1910 z "},"˚":{"ha":694,"x_min":0,"x_max":521,"o":"m 347 2083 l 347 2257 l 174 2257 l 174 2083 l 347 2083 m 0 1910 l 0 2431 l 521 2431 l 521 1910 l 0 1910 z "},"˛":{"ha":521,"x_min":0,"x_max":347,"o":"m 0 521 l 0 868 l 174 868 l 174 694 l 347 694 l 347 521 l 0 521 z "},"˜":{"ha":1042,"x_min":0,"x_max":868,"o":"m 0 1910 l 0 2083 l 174 2083 l 174 1910 l 0 1910 m 347 1910 l 347 2083 l 174 2083 l 174 2257 l 521 2257 l 521 2083 l 694 2083 l 694 1910 l 347 1910 m 694 2083 l 694 2257 l 868 2257 l 868 2083 l 694 2083 z "},"˝":{"ha":868,"x_min":0,"x_max":694,"o":"m 0 1910 l 0 2083 l 174 2083 l 174 1910 l 0 1910 m 347 1910 l 347 2083 l 521 2083 l 521 1910 l 347 1910 m 174 2083 l 174 2257 l 347 2257 l 347 2083 l 174 2083 m 521 2083 l 521 2257 l 694 2257 l 694 2083 l 521 2083 z "},"ʹ":{"ha":521,"x_min":0,"x_max":347,"o":"m 0 1563 l 0 1736 l 174 1736 l 174 1563 l 0 1563 m 174 1736 l 174 2083 l 347 2083 l 347 1736 l 174 1736 z "},"͵":{"ha":521,"x_min":0,"x_max":347,"o":"m 0 694 l 0 868 l 174 868 l 174 694 l 0 694 m 174 868 l 174 1215 l 347 1215 l 347 868 l 174 868 z "},";":{"ha":347,"x_min":0,"x_max":174,"o":"m 0 694 l 0 1215 l 174 1215 l 174 694 l 0 694 m 0 1389 l 0 1736 l 174 1736 l 174 1389 l 0 1389 z "},"΄":{"ha":347,"x_min":0,"x_max":174,"o":"m 0 1910 l 0 2257 l 174 2257 l 174 1910 l 0 1910 z "},"΅":{"ha":1042,"x_min":0,"x_max":868,"o":"m 0 1910 l 0 2083 l 174 2083 l 174 1910 l 0 1910 m 694 1910 l 694 2083 l 868 2083 l 868 1910 l 694 1910 m 347 1910 l 347 2257 l 521 2257 l 521 1910 l 347 1910 z "},"Ά":{"ha":1389,"x_min":0,"x_max":1215,"o":"m 347 868 l 347 1910 l 521 1910 l 521 1736 l 1042 1736 l 1042 1910 l 1215 1910 l 1215 868 l 1042 868 l 1042 1563 l 521 1563 l 521 868 l 347 868 m 0 1736 l 0 2083 l 174 2083 l 174 1736 l 0 1736 m 521 1910 l 521 2083 l 1042 2083 l 1042 1910 l 521 1910 z "},"·":{"ha":347,"x_min":0,"x_max":174,"o":"m 0 1215 l 0 1389 l 174 1389 l 174 1215 l 0 1215 z "},"Έ":{"ha":1389,"x_min":0,"x_max":1215,"o":"m 0 1736 l 0 2083 l 174 2083 l 174 1736 l 0 1736 m 347 868 l 347 2083 l 1215 2083 l 1215 1910 l 521 1910 l 521 1736 l 868 1736 l 868 1563 l 521 1563 l 521 1042 l 1215 1042 l 1215 868 l 347 868 z "},"Ή":{"ha":1389,"x_min":0,"x_max":1215,"o":"m 0 1736 l 0 2083 l 174 2083 l 174 1736 l 0 1736 m 347 868 l 347 2083 l 521 2083 l 521 1736 l 1042 1736 l 1042 2083 l 1215 2083 l 1215 868 l 1042 868 l 1042 1563 l 521 1563 l 521 868 l 347 868 z "},"Ί":{"ha":1042,"x_min":0,"x_max":868,"o":"m 0 1736 l 0 2083 l 174 2083 l 174 1736 l 0 1736 m 347 868 l 347 1042 l 521 1042 l 521 1910 l 347 1910 l 347 2083 l 868 2083 l 868 1910 l 694 1910 l 694 1042 l 868 1042 l 868 868 l 347 868 z "},"Ό":{"ha":1389,"x_min":0,"x_max":1215,"o":"m 521 868 l 521 1042 l 1042 1042 l 1042 868 l 521 868 m 347 1042 l 347 1910 l 521 1910 l 521 1042 l 347 1042 m 1042 1042 l 1042 1910 l 1215 1910 l 1215 1042 l 1042 1042 m 0 1736 l 0 2083 l 174 2083 l 174 1736 l 0 1736 m 521 1910 l 521 2083 l 1042 2083 l 1042 1910 l 521 1910 z "},"Ύ":{"ha":1389,"x_min":0,"x_max":1215,"o":"m 694 868 l 694 1736 l 868 1736 l 868 868 l 694 868 m 521 1736 l 521 1910 l 694 1910 l 694 1736 l 521 1736 m 868 1736 l 868 1910 l 1042 1910 l 1042 1736 l 868 1736 m 0 1736 l 0 2083 l 174 2083 l 174 1736 l 0 1736 m 347 1910 l 347 2083 l 521 2083 l 521 1910 l 347 1910 m 1042 1910 l 1042 2083 l 1215 2083 l 1215 1910 l 1042 1910 z "},"Ώ":{"ha":1389,"x_min":0,"x_max":1215,"o":"m 347 868 l 347 1042 l 521 1042 l 521 1215 l 694 1215 l 694 868 l 347 868 m 868 868 l 868 1215 l 1042 1215 l 1042 1042 l 1215 1042 l 1215 868 l 868 868 m 347 1215 l 347 1910 l 521 1910 l 521 1215 l 347 1215 m 1042 1215 l 1042 1910 l 1215 1910 l 1215 1215 l 1042 1215 m 0 1736 l 0 2083 l 174 2083 l 174 1736 l 0 1736 m 521 1910 l 521 2083 l 1042 2083 l 1042 1910 l 521 1910 z "},"ΐ":{"ha":868,"x_min":-174,"x_max":694,"o":"m 174 868 l 174 1736 l 347 1736 l 347 868 l 174 868 m -174 1910 l -174 2083 l 0 2083 l 0 1910 l -174 1910 m 521 1910 l 521 2083 l 694 2083 l 694 1910 l 521 1910 m 174 1910 l 174 2257 l 347 2257 l 347 1910 l 174 1910 z "},"Α":{"ha":1042,"x_min":0,"x_max":868,"o":"m 0 868 l 0 1910 l 174 1910 l 174 1736 l 694 1736 l 694 1910 l 868 1910 l 868 868 l 694 868 l 694 1563 l 174 1563 l 174 868 l 0 868 m 174 1910 l 174 2083 l 694 2083 l 694 1910 l 174 1910 z "},"Β":{"ha":1042,"x_min":0,"x_max":868,"o":"m 694 1042 l 694 1563 l 868 1563 l 868 1042 l 694 1042 m 694 1736 l 694 1910 l 868 1910 l 868 1736 l 694 1736 m 0 868 l 0 2083 l 694 2083 l 694 1910 l 174 1910 l 174 1736 l 694 1736 l 694 1563 l 174 1563 l 174 1042 l 694 1042 l 694 868 l 0 868 z "},"Γ":{"ha":1042,"x_min":0,"x_max":868,"o":"m 0 868 l 0 2083 l 868 2083 l 868 1910 l 174 1910 l 174 868 l 0 868 z "},"Δ":{"ha":1042,"x_min":0,"x_max":868,"o":"m 0 868 l 0 1563 l 174 1563 l 174 1042 l 694 1042 l 694 1563 l 868 1563 l 868 868 l 0 868 m 174 1563 l 174 1910 l 347 1910 l 347 1563 l 174 1563 m 521 1563 l 521 1910 l 694 1910 l 694 1563 l 521 1563 m 347 1910 l 347 2083 l 521 2083 l 521 1910 l 347 1910 z "},"Ε":{"ha":1042,"x_min":0,"x_max":868,"o":"m 0 868 l 0 2083 l 868 2083 l 868 1910 l 174 1910 l 174 1736 l 521 1736 l 521 1563 l 174 1563 l 174 1042 l 868 1042 l 868 868 l 0 868 z "},"Ζ":{"ha":1042,"x_min":0,"x_max":868,"o":"m 0 868 l 0 1215 l 174 1215 l 174 1042 l 868 1042 l 868 868 l 0 868 m 174 1215 l 174 1389 l 347 1389 l 347 1215 l 174 1215 m 347 1389 l 347 1563 l 521 1563 l 521 1389 l 347 1389 m 521 1563 l 521 1736 l 694 1736 l 694 1563 l 521 1563 m 694 1736 l 694 1910 l 0 1910 l 0 2083 l 868 2083 l 868 1736 l 694 1736 z "},"Η":{"ha":1042,"x_min":0,"x_max":868,"o":"m 0 868 l 0 2083 l 174 2083 l 174 1736 l 694 1736 l 694 2083 l 868 2083 l 868 868 l 694 868 l 694 1563 l 174 1563 l 174 868 l 0 868 z "},"Θ":{"ha":1042,"x_min":0,"x_max":868,"o":"m 174 868 l 174 1042 l 694 1042 l 694 868 l 174 868 m 347 1389 l 347 1563 l 521 1563 l 521 1389 l 347 1389 m 0 1042 l 0 1910 l 174 1910 l 174 1042 l 0 1042 m 694 1042 l 694 1910 l 868 1910 l 868 1042 l 694 1042 m 174 1910 l 174 2083 l 694 2083 l 694 1910 l 174 1910 z "},"Ι":{"ha":694,"x_min":0,"x_max":521,"o":"m 0 868 l 0 1042 l 174 1042 l 174 1910 l 0 1910 l 0 2083 l 521 2083 l 521 1910 l 347 1910 l 347 1042 l 521 1042 l 521 868 l 0 868 z "},"Κ":{"ha":1042,"x_min":0,"x_max":868,"o":"m 694 868 l 694 1389 l 868 1389 l 868 868 l 694 868 m 521 1389 l 521 1563 l 694 1563 l 694 1389 l 521 1389 m 521 1736 l 521 1910 l 694 1910 l 694 1736 l 521 1736 m 0 868 l 0 2083 l 174 2083 l 174 1736 l 521 1736 l 521 1563 l 174 1563 l 174 868 l 0 868 m 694 1910 l 694 2083 l 868 2083 l 868 1910 l 694 1910 z "},"Λ":{"ha":1042,"x_min":0,"x_max":868,"o":"m 0 868 l 0 1563 l 174 1563 l 174 868 l 0 868 m 694 868 l 694 1563 l 868 1563 l 868 868 l 694 868 m 174 1563 l 174 1910 l 347 1910 l 347 1563 l 174 1563 m 521 1563 l 521 1910 l 694 1910 l 694 1563 l 521 1563 m 347 1910 l 347 2083 l 521 2083 l 521 1910 l 347 1910 z "},"Μ":{"ha":1042,"x_min":0,"x_max":868,"o":"m 347 1563 l 347 1736 l 521 1736 l 521 1563 l 347 1563 m 0 868 l 0 2083 l 174 2083 l 174 1910 l 347 1910 l 347 1736 l 174 1736 l 174 868 l 0 868 m 694 868 l 694 1736 l 521 1736 l 521 1910 l 694 1910 l 694 2083 l 868 2083 l 868 868 l 694 868 z "},"Ν":{"ha":1042,"x_min":0,"x_max":868,"o":"m 347 1563 l 347 1736 l 521 1736 l 521 1563 l 347 1563 m 0 868 l 0 2083 l 174 2083 l 174 1910 l 347 1910 l 347 1736 l 174 1736 l 174 868 l 0 868 m 694 868 l 694 1389 l 521 1389 l 521 1563 l 694 1563 l 694 2083 l 868 2083 l 868 868 l 694 868 z "},"Ξ":{"ha":1042,"x_min":0,"x_max":868,"o":"m 0 868 l 0 1042 l 347 1042 l 347 1563 l 174 1563 l 174 1736 l 347 1736 l 347 1910 l 0 1910 l 0 2083 l 868 2083 l 868 1910 l 521 1910 l 521 1736 l 694 1736 l 694 1563 l 521 1563 l 521 1042 l 868 1042 l 868 868 l 0 868 z "},"Ο":{"ha":1042,"x_min":0,"x_max":868,"o":"m 174 868 l 174 1042 l 694 1042 l 694 868 l 174 868 m 0 1042 l 0 1910 l 174 1910 l 174 1042 l 0 1042 m 694 1042 l 694 1910 l 868 1910 l 868 1042 l 694 1042 m 174 1910 l 174 2083 l 694 2083 l 694 1910 l 174 1910 z "},"Π":{"ha":1042,"x_min":0,"x_max":868,"o":"m 0 868 l 0 2083 l 868 2083 l 868 868 l 694 868 l 694 1910 l 174 1910 l 174 868 l 0 868 z "},"Ρ":{"ha":1042,"x_min":0,"x_max":868,"o":"m 694 1736 l 694 1910 l 868 1910 l 868 1736 l 694 1736 m 0 868 l 0 2083 l 694 2083 l 694 1910 l 174 1910 l 174 1736 l 694 1736 l 694 1563 l 174 1563 l 174 868 l 0 868 z "},"Σ":{"ha":1042,"x_min":0,"x_max":868,"o":"m 0 868 l 0 1215 l 174 1215 l 174 1042 l 868 1042 l 868 868 l 0 868 m 174 1215 l 174 1389 l 347 1389 l 347 1215 l 174 1215 m 347 1389 l 347 1563 l 521 1563 l 521 1389 l 347 1389 m 174 1563 l 174 1736 l 347 1736 l 347 1563 l 174 1563 m 0 1736 l 0 2083 l 868 2083 l 868 1910 l 174 1910 l 174 1736 l 0 1736 z "},"Τ":{"ha":1042,"x_min":0,"x_max":868,"o":"m 347 868 l 347 1910 l 0 1910 l 0 2083 l 868 2083 l 868 1910 l 521 1910 l 521 868 l 347 868 z "},"Υ":{"ha":1042,"x_min":0,"x_max":868,"o":"m 347 868 l 347 1736 l 521 1736 l 521 868 l 347 868 m 174 1736 l 174 1910 l 347 1910 l 347 1736 l 174 1736 m 521 1736 l 521 1910 l 694 1910 l 694 1736 l 521 1736 m 0 1910 l 0 2083 l 174 2083 l 174 1910 l 0 1910 m 694 1910 l 694 2083 l 868 2083 l 868 1910 l 694 1910 z "},"Φ":{"ha":1042,"x_min":0,"x_max":868,"o":"m 0 1389 l 0 1736 l 174 1736 l 174 1389 l 0 1389 m 694 1389 l 694 1736 l 868 1736 l 868 1389 l 694 1389 m 347 868 l 347 1215 l 174 1215 l 174 1389 l 347 1389 l 347 1736 l 174 1736 l 174 1910 l 347 1910 l 347 2083 l 521 2083 l 521 1910 l 694 1910 l 694 1736 l 521 1736 l 521 1389 l 694 1389 l 694 1215 l 521 1215 l 521 868 l 347 868 z "},"Χ":{"ha":1042,"x_min":0,"x_max":868,"o":"m 0 868 l 0 1389 l 174 1389 l 174 868 l 0 868 m 694 868 l 694 1389 l 868 1389 l 868 868 l 694 868 m 174 1389 l 174 1563 l 347 1563 l 347 1389 l 174 1389 m 521 1389 l 521 1563 l 694 1563 l 694 1389 l 521 1389 m 347 1563 l 347 1736 l 521 1736 l 521 1563 l 347 1563 m 174 1736 l 174 1910 l 347 1910 l 347 1736 l 174 1736 m 521 1736 l 521 1910 l 694 1910 l 694 1736 l 521 1736 m 0 1910 l 0 2083 l 174 2083 l 174 1910 l 0 1910 m 694 1910 l 694 2083 l 868 2083 l 868 1910 l 694 1910 z "},"Ψ":{"ha":1042,"x_min":0,"x_max":868,"o":"m 0 1736 l 0 2083 l 174 2083 l 174 1736 l 0 1736 m 347 868 l 347 1563 l 174 1563 l 174 1736 l 347 1736 l 347 2083 l 521 2083 l 521 1736 l 694 1736 l 694 1563 l 521 1563 l 521 868 l 347 868 m 694 1736 l 694 2083 l 868 2083 l 868 1736 l 694 1736 z "},"Ω":{"ha":1042,"x_min":0,"x_max":868,"o":"m 0 868 l 0 1042 l 174 1042 l 174 1215 l 347 1215 l 347 868 l 0 868 m 521 868 l 521 1215 l 694 1215 l 694 1042 l 868 1042 l 868 868 l 521 868 m 0 1215 l 0 1910 l 174 1910 l 174 1215 l 0 1215 m 694 1215 l 694 1910 l 868 1910 l 868 1215 l 694 1215 m 174 1910 l 174 2083 l 694 2083 l 694 1910 l 174 1910 z "},"Ϊ":{"ha":694,"x_min":0,"x_max":521,"o":"m 0 868 l 0 1042 l 174 1042 l 174 1910 l 0 1910 l 0 2083 l 521 2083 l 521 1910 l 347 1910 l 347 1042 l 521 1042 l 521 868 l 0 868 m 0 2257 l 0 2431 l 174 2431 l 174 2257 l 0 2257 m 347 2257 l 347 2431 l 521 2431 l 521 2257 l 347 2257 z "},"Ϋ":{"ha":1042,"x_min":0,"x_max":868,"o":"m 347 868 l 347 1736 l 521 1736 l 521 868 l 347 868 m 174 1736 l 174 1910 l 347 1910 l 347 1736 l 174 1736 m 521 1736 l 521 1910 l 694 1910 l 694 1736 l 521 1736 m 0 1910 l 0 2083 l 174 2083 l 174 1910 l 0 1910 m 694 1910 l 694 2083 l 868 2083 l 868 1910 l 694 1910 m 174 2257 l 174 2431 l 347 2431 l 347 2257 l 174 2257 m 521 2257 l 521 2431 l 694 2431 l 694 2257 l 521 2257 z "},"ά":{"ha":1042,"x_min":0,"x_max":868,"o":"m 174 868 l 174 1042 l 521 1042 l 521 868 l 174 868 m 0 1042 l 0 1563 l 174 1563 l 174 1042 l 0 1042 m 694 868 l 694 1042 l 521 1042 l 521 1215 l 694 1215 l 694 1563 l 174 1563 l 174 1736 l 868 1736 l 868 868 l 694 868 m 347 1910 l 347 2257 l 521 2257 l 521 1910 l 347 1910 z "},"έ":{"ha":1042,"x_min":0,"x_max":868,"o":"m 174 868 l 174 1042 l 868 1042 l 868 868 l 174 868 m 0 1042 l 0 1215 l 174 1215 l 174 1042 l 0 1042 m 174 1215 l 174 1389 l 521 1389 l 521 1215 l 174 1215 m 0 1389 l 0 1563 l 174 1563 l 174 1389 l 0 1389 m 174 1563 l 174 1736 l 868 1736 l 868 1563 l 174 1563 m 347 1910 l 347 2257 l 521 2257 l 521 1910 l 347 1910 z "},"ή":{"ha":1042,"x_min":0,"x_max":868,"o":"m 694 868 l 694 1563 l 868 1563 l 868 868 l 694 868 m 0 868 l 0 1736 l 694 1736 l 694 1563 l 174 1563 l 174 868 l 0 868 m 347 1910 l 347 2257 l 521 2257 l 521 1910 l 347 1910 z "},"ί":{"ha":347,"x_min":0,"x_max":174,"o":"m 0 868 l 0 1736 l 174 1736 l 174 868 l 0 868 m 0 1910 l 0 2257 l 174 2257 l 174 1910 l 0 1910 z "},"ΰ":{"ha":1042,"x_min":0,"x_max":868,"o":"m 174 868 l 174 1042 l 694 1042 l 694 868 l 174 868 m 0 1042 l 0 1736 l 174 1736 l 174 1042 l 0 1042 m 694 1042 l 694 1736 l 868 1736 l 868 1042 l 694 1042 m 0 1910 l 0 2083 l 174 2083 l 174 1910 l 0 1910 m 694 1910 l 694 2083 l 868 2083 l 868 1910 l 694 1910 m 347 1910 l 347 2257 l 521 2257 l 521 1910 l 347 1910 z "},"α":{"ha":1042,"x_min":0,"x_max":868,"o":"m 174 868 l 174 1042 l 521 1042 l 521 868 l 174 868 m 0 1042 l 0 1563 l 174 1563 l 174 1042 l 0 1042 m 694 868 l 694 1042 l 521 1042 l 521 1215 l 694 1215 l 694 1563 l 174 1563 l 174 1736 l 868 1736 l 868 868 l 694 868 z "},"β":{"ha":1042,"x_min":0,"x_max":868,"o":"m 347 868 l 347 1042 l 694 1042 l 694 868 l 347 868 m 694 1042 l 694 1563 l 868 1563 l 868 1042 l 694 1042 m 0 694 l 0 1910 l 174 1910 l 174 694 l 0 694 m 347 1563 l 347 1736 l 521 1736 l 521 1910 l 694 1910 l 694 1563 l 347 1563 m 174 1910 l 174 2083 l 521 2083 l 521 1910 l 174 1910 z "},"γ":{"ha":1042,"x_min":0,"x_max":868,"o":"m 347 694 l 347 1215 l 521 1215 l 521 694 l 347 694 m 174 1215 l 174 1389 l 347 1389 l 347 1215 l 174 1215 m 521 1215 l 521 1389 l 694 1389 l 694 1215 l 521 1215 m 0 1389 l 0 1736 l 174 1736 l 174 1389 l 0 1389 m 694 1389 l 694 1736 l 868 1736 l 868 1389 l 694 1389 z "},"δ":{"ha":1042,"x_min":0,"x_max":868,"o":"m 174 868 l 174 1042 l 694 1042 l 694 868 l 174 868 m 0 1042 l 0 1563 l 174 1563 l 174 1042 l 0 1042 m 694 1042 l 694 1563 l 868 1563 l 868 1042 l 694 1042 m 174 1563 l 174 1736 l 347 1736 l 347 1910 l 174 1910 l 174 2083 l 868 2083 l 868 1910 l 521 1910 l 521 1736 l 694 1736 l 694 1563 l 174 1563 z "},"ε":{"ha":1042,"x_min":0,"x_max":868,"o":"m 174 868 l 174 1042 l 868 1042 l 868 868 l 174 868 m 0 1042 l 0 1215 l 174 1215 l 174 1042 l 0 1042 m 174 1215 l 174 1389 l 521 1389 l 521 1215 l 174 1215 m 0 1389 l 0 1563 l 174 1563 l 174 1389 l 0 1389 m 174 1563 l 174 1736 l 868 1736 l 868 1563 l 174 1563 z "},"ζ":{"ha":1042,"x_min":0,"x_max":868,"o":"m 694 694 l 694 1042 l 868 1042 l 868 694 l 694 694 m 174 1042 l 174 1215 l 694 1215 l 694 1042 l 174 1042 m 0 1215 l 0 1563 l 174 1563 l 174 1215 l 0 1215 m 174 1563 l 174 1736 l 521 1736 l 521 1563 l 174 1563 m 521 1736 l 521 1910 l 0 1910 l 0 2083 l 868 2083 l 868 1910 l 694 1910 l 694 1736 l 521 1736 z "},"η":{"ha":1042,"x_min":0,"x_max":868,"o":"m 694 868 l 694 1563 l 868 1563 l 868 868 l 694 868 m 0 868 l 0 1736 l 694 1736 l 694 1563 l 174 1563 l 174 868 l 0 868 z "},"θ":{"ha":868,"x_min":0,"x_max":694,"o":"m 174 868 l 174 1042 l 521 1042 l 521 868 l 174 868 m 0 1042 l 0 1910 l 174 1910 l 174 1563 l 521 1563 l 521 1910 l 694 1910 l 694 1042 l 521 1042 l 521 1389 l 174 1389 l 174 1042 l 0 1042 m 174 1910 l 174 2083 l 521 2083 l 521 1910 l 174 1910 z "},"ι":{"ha":347,"x_min":0,"x_max":174,"o":"m 0 868 l 0 1736 l 174 1736 l 174 868 l 0 868 z "},"κ":{"ha":868,"x_min":0,"x_max":694,"o":"m 521 868 l 521 1042 l 694 1042 l 694 868 l 521 868 m 347 1042 l 347 1215 l 521 1215 l 521 1042 l 347 1042 m 347 1389 l 347 1563 l 521 1563 l 521 1389 l 347 1389 m 0 868 l 0 1736 l 174 1736 l 174 1389 l 347 1389 l 347 1215 l 174 1215 l 174 868 l 0 868 m 521 1563 l 521 1736 l 694 1736 l 694 1563 l 521 1563 z "},"λ":{"ha":1042,"x_min":0,"x_max":868,"o":"m 0 868 l 0 1563 l 174 1563 l 174 868 l 0 868 m 694 868 l 694 1563 l 174 1563 l 174 1736 l 694 1736 l 694 1910 l 868 1910 l 868 868 l 694 868 m 0 1910 l 0 2083 l 694 2083 l 694 1910 l 0 1910 z "},"μ":{"ha":1042,"x_min":0,"x_max":868,"o":"m 0 694 l 0 1736 l 174 1736 l 174 1042 l 521 1042 l 521 868 l 174 868 l 174 694 l 0 694 m 694 868 l 694 1042 l 521 1042 l 521 1215 l 694 1215 l 694 1736 l 868 1736 l 868 868 l 694 868 z "},"ν":{"ha":1042,"x_min":0,"x_max":868,"o":"m 347 868 l 347 1042 l 521 1042 l 521 868 l 347 868 m 521 1042 l 521 1215 l 694 1215 l 694 1042 l 521 1042 m 174 1042 l 174 1389 l 347 1389 l 347 1042 l 174 1042 m 0 1389 l 0 1736 l 174 1736 l 174 1389 l 0 1389 m 694 1215 l 694 1736 l 868 1736 l 868 1215 l 694 1215 z "},"ξ":{"ha":1042,"x_min":0,"x_max":868,"o":"m 694 694 l 694 1042 l 868 1042 l 868 694 l 694 694 m 174 1042 l 174 1215 l 694 1215 l 694 1042 l 174 1042 m 0 1215 l 0 1563 l 174 1563 l 174 1215 l 0 1215 m 174 1563 l 174 1736 l 694 1736 l 694 1563 l 174 1563 m 0 1736 l 0 1910 l 174 1910 l 174 1736 l 0 1736 m 174 1910 l 174 2083 l 868 2083 l 868 1910 l 174 1910 z "},"ο":{"ha":1042,"x_min":0,"x_max":868,"o":"m 174 868 l 174 1042 l 694 1042 l 694 868 l 174 868 m 0 1042 l 0 1563 l 174 1563 l 174 1042 l 0 1042 m 694 1042 l 694 1563 l 868 1563 l 868 1042 l 694 1042 m 174 1563 l 174 1736 l 694 1736 l 694 1563 l 174 1563 z "},"π":{"ha":1042,"x_min":0,"x_max":868,"o":"m 0 868 l 0 1736 l 868 1736 l 868 868 l 694 868 l 694 1563 l 174 1563 l 174 868 l 0 868 z "},"ρ":{"ha":1042,"x_min":0,"x_max":868,"o":"m 0 694 l 0 1563 l 174 1563 l 174 1215 l 694 1215 l 694 1042 l 174 1042 l 174 694 l 0 694 m 694 1215 l 694 1563 l 868 1563 l 868 1215 l 694 1215 m 174 1563 l 174 1736 l 694 1736 l 694 1563 l 174 1563 z "},"ς":{"ha":1042,"x_min":0,"x_max":868,"o":"m 694 694 l 694 1042 l 868 1042 l 868 694 l 694 694 m 174 1042 l 174 1215 l 694 1215 l 694 1042 l 174 1042 m 0 1215 l 0 1563 l 174 1563 l 174 1215 l 0 1215 m 174 1563 l 174 1736 l 868 1736 l 868 1563 l 174 1563 z "},"σ":{"ha":1042,"x_min":0,"x_max":868,"o":"m 174 868 l 174 1042 l 521 1042 l 521 868 l 174 868 m 0 1042 l 0 1563 l 174 1563 l 174 1042 l 0 1042 m 521 1042 l 521 1563 l 174 1563 l 174 1736 l 868 1736 l 868 1563 l 694 1563 l 694 1042 l 521 1042 z "},"τ":{"ha":1042,"x_min":0,"x_max":868,"o":"m 347 868 l 347 1563 l 0 1563 l 0 1736 l 868 1736 l 868 1563 l 521 1563 l 521 868 l 347 868 z "},"υ":{"ha":1042,"x_min":0,"x_max":868,"o":"m 174 868 l 174 1042 l 694 1042 l 694 868 l 174 868 m 0 1042 l 0 1736 l 174 1736 l 174 1042 l 0 1042 m 694 1042 l 694 1736 l 868 1736 l 868 1042 l 694 1042 z "},"φ":{"ha":1042,"x_min":0,"x_max":868,"o":"m 694 1215 l 694 1563 l 868 1563 l 868 1215 l 694 1215 m 0 1215 l 0 1736 l 174 1736 l 174 1215 l 0 1215 m 347 694 l 347 1042 l 174 1042 l 174 1215 l 347 1215 l 347 1736 l 694 1736 l 694 1563 l 521 1563 l 521 1215 l 694 1215 l 694 1042 l 521 1042 l 521 694 l 347 694 z "},"χ":{"ha":1042,"x_min":0,"x_max":868,"o":"m 0 694 l 0 1042 l 174 1042 l 174 694 l 0 694 m 694 694 l 694 1042 l 868 1042 l 868 694 l 694 694 m 174 1042 l 174 1215 l 347 1215 l 347 1042 l 174 1042 m 521 1042 l 521 1215 l 694 1215 l 694 1042 l 521 1042 m 347 1215 l 347 1389 l 521 1389 l 521 1215 l 347 1215 m 174 1389 l 174 1563 l 347 1563 l 347 1389 l 174 1389 m 521 1389 l 521 1563 l 694 1563 l 694 1389 l 521 1389 m 0 1563 l 0 1736 l 174 1736 l 174 1563 l 0 1563 m 694 1563 l 694 1736 l 868 1736 l 868 1563 l 694 1563 z "},"ψ":{"ha":1042,"x_min":0,"x_max":868,"o":"m 0 1215 l 0 1736 l 174 1736 l 174 1215 l 0 1215 m 347 694 l 347 1042 l 174 1042 l 174 1215 l 347 1215 l 347 1736 l 521 1736 l 521 1215 l 694 1215 l 694 1042 l 521 1042 l 521 694 l 347 694 m 694 1215 l 694 1736 l 868 1736 l 868 1215 l 694 1215 z "},"ω":{"ha":1042,"x_min":0,"x_max":868,"o":"m 174 868 l 174 1042 l 347 1042 l 347 868 l 174 868 m 521 868 l 521 1042 l 694 1042 l 694 868 l 521 868 m 347 1042 l 347 1389 l 521 1389 l 521 1042 l 347 1042 m 0 1042 l 0 1736 l 174 1736 l 174 1042 l 0 1042 m 694 1042 l 694 1736 l 868 1736 l 868 1042 l 694 1042 z "},"ϊ":{"ha":694,"x_min":0,"x_max":521,"o":"m 174 868 l 174 1736 l 347 1736 l 347 868 l 174 868 m 0 1910 l 0 2083 l 174 2083 l 174 1910 l 0 1910 m 347 1910 l 347 2083 l 521 2083 l 521 1910 l 347 1910 z "},"ϋ":{"ha":1042,"x_min":0,"x_max":868,"o":"m 174 868 l 174 1042 l 694 1042 l 694 868 l 174 868 m 0 1042 l 0 1736 l 174 1736 l 174 1042 l 0 1042 m 694 1042 l 694 1736 l 868 1736 l 868 1042 l 694 1042 m 174 1910 l 174 2083 l 347 2083 l 347 1910 l 174 1910 m 521 1910 l 521 2083 l 694 2083 l 694 1910 l 521 1910 z "},"ό":{"ha":1042,"x_min":0,"x_max":868,"o":"m 174 868 l 174 1042 l 694 1042 l 694 868 l 174 868 m 0 1042 l 0 1563 l 174 1563 l 174 1042 l 0 1042 m 694 1042 l 694 1563 l 868 1563 l 868 1042 l 694 1042 m 174 1563 l 174 1736 l 694 1736 l 694 1563 l 174 1563 z "},"ύ":{"ha":1042,"x_min":0,"x_max":868,"o":"m 174 868 l 174 1042 l 694 1042 l 694 868 l 174 868 m 0 1042 l 0 1736 l 174 1736 l 174 1042 l 0 1042 m 694 1042 l 694 1736 l 868 1736 l 868 1042 l 694 1042 m 347 1910 l 347 2257 l 521 2257 l 521 1910 l 347 1910 z "},"ώ":{"ha":1042,"x_min":0,"x_max":868,"o":"m 174 868 l 174 1042 l 347 1042 l 347 868 l 174 868 m 521 868 l 521 1042 l 694 1042 l 694 868 l 521 868 m 347 1042 l 347 1389 l 521 1389 l 521 1042 l 347 1042 m 0 1042 l 0 1736 l 174 1736 l 174 1042 l 0 1042 m 694 1042 l 694 1736 l 868 1736 l 868 1042 l 694 1042 m 347 1910 l 347 2257 l 521 2257 l 521 1910 l 347 1910 z "},"ϗ":{"ha":1042,"x_min":0,"x_max":868,"o":"m 347 694 l 347 868 l 694 868 l 694 694 l 347 694 m 694 868 l 694 1215 l 868 1215 l 868 868 l 694 868 m 0 868 l 0 1736 l 174 1736 l 174 1389 l 347 1389 l 347 1563 l 521 1563 l 521 1389 l 694 1389 l 694 1215 l 174 1215 l 174 868 l 0 868 m 521 1563 l 521 1736 l 694 1736 l 694 1563 l 521 1563 z "},"Ѐ":{"ha":1042,"x_min":0,"x_max":868,"o":"m 0 868 l 0 2083 l 347 2083 l 347 2257 l 521 2257 l 521 2083 l 868 2083 l 868 1910 l 174 1910 l 174 1736 l 521 1736 l 521 1563 l 174 1563 l 174 1042 l 868 1042 l 868 868 l 0 868 m 174 2257 l 174 2431 l 347 2431 l 347 2257 l 174 2257 z "},"Ё":{"ha":1042,"x_min":0,"x_max":868,"o":"m 0 868 l 0 2083 l 868 2083 l 868 1910 l 174 1910 l 174 1736 l 521 1736 l 521 1563 l 174 1563 l 174 1042 l 868 1042 l 868 868 l 0 868 m 174 2257 l 174 2431 l 347 2431 l 347 2257 l 174 2257 m 521 2257 l 521 2431 l 694 2431 l 694 2257 l 521 2257 z "},"Ђ":{"ha":1215,"x_min":0,"x_max":1042,"o":"m 521 694 l 521 868 l 868 868 l 868 694 l 521 694 m 868 868 l 868 1563 l 1042 1563 l 1042 868 l 868 868 m 174 868 l 174 1910 l 0 1910 l 0 2083 l 868 2083 l 868 1910 l 347 1910 l 347 1736 l 868 1736 l 868 1563 l 347 1563 l 347 868 l 174 868 z "},"Ѓ":{"ha":1042,"x_min":0,"x_max":868,"o":"m 0 868 l 0 2083 l 347 2083 l 347 2257 l 521 2257 l 521 2083 l 868 2083 l 868 1910 l 174 1910 l 174 868 l 0 868 m 521 2257 l 521 2431 l 694 2431 l 694 2257 l 521 2257 z "},"Є":{"ha":1042,"x_min":0,"x_max":868,"o":"m 174 868 l 174 1042 l 694 1042 l 694 868 l 174 868 m 694 1042 l 694 1215 l 868 1215 l 868 1042 l 694 1042 m 0 1042 l 0 1910 l 174 1910 l 174 1736 l 521 1736 l 521 1563 l 174 1563 l 174 1042 l 0 1042 m 694 1736 l 694 1910 l 868 1910 l 868 1736 l 694 1736 m 174 1910 l 174 2083 l 694 2083 l 694 1910 l 174 1910 z "},"Ѕ":{"ha":1042,"x_min":0,"x_max":868,"o":"m 174 868 l 174 1042 l 694 1042 l 694 868 l 174 868 m 0 1042 l 0 1215 l 174 1215 l 174 1042 l 0 1042 m 694 1042 l 694 1563 l 868 1563 l 868 1042 l 694 1042 m 174 1563 l 174 1736 l 694 1736 l 694 1563 l 174 1563 m 0 1736 l 0 1910 l 174 1910 l 174 1736 l 0 1736 m 174 1910 l 174 2083 l 868 2083 l 868 1910 l 174 1910 z "},"І":{"ha":694,"x_min":0,"x_max":521,"o":"m 0 868 l 0 1042 l 174 1042 l 174 1910 l 0 1910 l 0 2083 l 521 2083 l 521 1910 l 347 1910 l 347 1042 l 521 1042 l 521 868 l 0 868 z "},"Ї":{"ha":694,"x_min":0,"x_max":521,"o":"m 0 868 l 0 1042 l 174 1042 l 174 1910 l 0 1910 l 0 2083 l 521 2083 l 521 1910 l 347 1910 l 347 1042 l 521 1042 l 521 868 l 0 868 m 0 2257 l 0 2431 l 174 2431 l 174 2257 l 0 2257 m 347 2257 l 347 2431 l 521 2431 l 521 2257 l 347 2257 z "},"Ј":{"ha":1042,"x_min":0,"x_max":868,"o":"m 174 868 l 174 1042 l 694 1042 l 694 868 l 174 868 m 0 1042 l 0 1215 l 174 1215 l 174 1042 l 0 1042 m 694 1042 l 694 2083 l 868 2083 l 868 1042 l 694 1042 z "},"Љ":{"ha":1736,"x_min":0,"x_max":1563,"o":"m 1389 1042 l 1389 1563 l 1563 1563 l 1563 1042 l 1389 1042 m 0 868 l 0 1042 l 174 1042 l 174 2083 l 868 2083 l 868 1736 l 1389 1736 l 1389 1563 l 868 1563 l 868 1042 l 1389 1042 l 1389 868 l 694 868 l 694 1910 l 347 1910 l 347 868 l 0 868 z "},"Њ":{"ha":1736,"x_min":0,"x_max":1563,"o":"m 1389 1042 l 1389 1563 l 1563 1563 l 1563 1042 l 1389 1042 m 0 868 l 0 2083 l 174 2083 l 174 1736 l 694 1736 l 694 2083 l 868 2083 l 868 1736 l 1389 1736 l 1389 1563 l 868 1563 l 868 1042 l 1389 1042 l 1389 868 l 694 868 l 694 1563 l 174 1563 l 174 868 l 0 868 z "},"Ћ":{"ha":1215,"x_min":0,"x_max":1042,"o":"m 868 868 l 868 1563 l 1042 1563 l 1042 868 l 868 868 m 174 868 l 174 1910 l 0 1910 l 0 2083 l 868 2083 l 868 1910 l 347 1910 l 347 1736 l 868 1736 l 868 1563 l 347 1563 l 347 868 l 174 868 z "},"Ќ":{"ha":1042,"x_min":0,"x_max":868,"o":"m 694 868 l 694 1389 l 868 1389 l 868 868 l 694 868 m 521 1389 l 521 1563 l 694 1563 l 694 1389 l 521 1389 m 521 1736 l 521 1910 l 694 1910 l 694 1736 l 521 1736 m 0 868 l 0 2083 l 174 2083 l 174 1736 l 521 1736 l 521 1563 l 174 1563 l 174 868 l 0 868 m 694 1910 l 694 2083 l 868 2083 l 868 1910 l 694 1910 m 347 2083 l 347 2257 l 521 2257 l 521 2083 l 347 2083 m 521 2257 l 521 2431 l 694 2431 l 694 2257 l 521 2257 z "},"Ѝ":{"ha":1042,"x_min":0,"x_max":868,"o":"m 347 1563 l 347 1736 l 521 1736 l 521 1563 l 347 1563 m 0 868 l 0 2083 l 174 2083 l 174 1563 l 347 1563 l 347 1389 l 174 1389 l 174 868 l 0 868 m 694 868 l 694 1736 l 521 1736 l 521 1910 l 694 1910 l 694 2083 l 868 2083 l 868 868 l 694 868 m 347 2083 l 347 2257 l 521 2257 l 521 2083 l 347 2083 m 174 2257 l 174 2431 l 347 2431 l 347 2257 l 174 2257 z "},"Ў":{"ha":1042,"x_min":0,"x_max":868,"o":"m 0 868 l 0 1042 l 521 1042 l 521 868 l 0 868 m 521 1042 l 521 1215 l 694 1215 l 694 1042 l 521 1042 m 0 1736 l 0 2083 l 174 2083 l 174 1736 l 0 1736 m 694 1215 l 694 1563 l 174 1563 l 174 1736 l 694 1736 l 694 2083 l 868 2083 l 868 1215 l 694 1215 z "},"Џ":{"ha":1042,"x_min":0,"x_max":868,"o":"m 347 694 l 347 868 l 0 868 l 0 2083 l 174 2083 l 174 1042 l 694 1042 l 694 2083 l 868 2083 l 868 868 l 521 868 l 521 694 l 347 694 z "},"А":{"ha":1042,"x_min":0,"x_max":868,"o":"m 0 868 l 0 1910 l 174 1910 l 174 1736 l 694 1736 l 694 1910 l 868 1910 l 868 868 l 694 868 l 694 1563 l 174 1563 l 174 868 l 0 868 m 174 1910 l 174 2083 l 694 2083 l 694 1910 l 174 1910 z "},"Б":{"ha":1042,"x_min":0,"x_max":868,"o":"m 694 1042 l 694 1563 l 868 1563 l 868 1042 l 694 1042 m 0 868 l 0 2083 l 868 2083 l 868 1910 l 174 1910 l 174 1736 l 694 1736 l 694 1563 l 174 1563 l 174 1042 l 694 1042 l 694 868 l 0 868 z "},"В":{"ha":1042,"x_min":0,"x_max":868,"o":"m 694 1042 l 694 1563 l 868 1563 l 868 1042 l 694 1042 m 694 1736 l 694 1910 l 868 1910 l 868 1736 l 694 1736 m 0 868 l 0 2083 l 694 2083 l 694 1910 l 174 1910 l 174 1736 l 694 1736 l 694 1563 l 174 1563 l 174 1042 l 694 1042 l 694 868 l 0 868 z "},"Г":{"ha":1042,"x_min":0,"x_max":868,"o":"m 0 868 l 0 2083 l 868 2083 l 868 1910 l 174 1910 l 174 868 l 0 868 z "},"Д":{"ha":1042,"x_min":0,"x_max":868,"o":"m 0 694 l 0 1563 l 174 1563 l 174 1042 l 694 1042 l 694 1563 l 868 1563 l 868 694 l 694 694 l 694 868 l 174 868 l 174 694 l 0 694 m 174 1563 l 174 1910 l 347 1910 l 347 1563 l 174 1563 m 521 1563 l 521 1910 l 694 1910 l 694 1563 l 521 1563 m 347 1910 l 347 2083 l 521 2083 l 521 1910 l 347 1910 z "},"Е":{"ha":1042,"x_min":0,"x_max":868,"o":"m 0 868 l 0 2083 l 868 2083 l 868 1910 l 174 1910 l 174 1736 l 521 1736 l 521 1563 l 174 1563 l 174 1042 l 868 1042 l 868 868 l 0 868 z "},"Ж":{"ha":1042,"x_min":0,"x_max":868,"o":"m 0 868 l 0 1563 l 174 1563 l 174 868 l 0 868 m 694 868 l 694 1563 l 868 1563 l 868 868 l 694 868 m 0 1736 l 0 2083 l 174 2083 l 174 1736 l 0 1736 m 347 868 l 347 1563 l 174 1563 l 174 1736 l 347 1736 l 347 2083 l 521 2083 l 521 1736 l 694 1736 l 694 1563 l 521 1563 l 521 868 l 347 868 m 694 1736 l 694 2083 l 868 2083 l 868 1736 l 694 1736 z "},"З":{"ha":1042,"x_min":0,"x_max":868,"o":"m 174 868 l 174 1042 l 694 1042 l 694 868 l 174 868 m 0 1042 l 0 1215 l 174 1215 l 174 1042 l 0 1042 m 694 1042 l 694 1563 l 868 1563 l 868 1042 l 694 1042 m 347 1563 l 347 1736 l 694 1736 l 694 1563 l 347 1563 m 694 1736 l 694 1910 l 868 1910 l 868 1736 l 694 1736 m 0 1910 l 0 2083 l 694 2083 l 694 1910 l 0 1910 z "},"И":{"ha":1042,"x_min":0,"x_max":868,"o":"m 347 1563 l 347 1736 l 521 1736 l 521 1563 l 347 1563 m 0 868 l 0 2083 l 174 2083 l 174 1563 l 347 1563 l 347 1389 l 174 1389 l 174 868 l 0 868 m 694 868 l 694 1736 l 521 1736 l 521 1910 l 694 1910 l 694 2083 l 868 2083 l 868 868 l 694 868 z "},"Й":{"ha":1042,"x_min":0,"x_max":868,"o":"m 347 1563 l 347 1736 l 521 1736 l 521 1563 l 347 1563 m 0 868 l 0 2083 l 174 2083 l 174 1563 l 347 1563 l 347 1389 l 174 1389 l 174 868 l 0 868 m 694 868 l 694 1736 l 521 1736 l 521 1910 l 694 1910 l 694 2083 l 868 2083 l 868 868 l 694 868 m 174 2083 l 174 2431 l 347 2431 l 347 2257 l 521 2257 l 521 2431 l 694 2431 l 694 2083 l 174 2083 z "},"К":{"ha":1042,"x_min":0,"x_max":868,"o":"m 694 868 l 694 1389 l 868 1389 l 868 868 l 694 868 m 521 1389 l 521 1563 l 694 1563 l 694 1389 l 521 1389 m 521 1736 l 521 1910 l 694 1910 l 694 1736 l 521 1736 m 0 868 l 0 2083 l 174 2083 l 174 1736 l 521 1736 l 521 1563 l 174 1563 l 174 868 l 0 868 m 694 1910 l 694 2083 l 868 2083 l 868 1910 l 694 1910 z "},"Л":{"ha":1042,"x_min":0,"x_max":868,"o":"m 0 868 l 0 1042 l 174 1042 l 174 2083 l 868 2083 l 868 868 l 694 868 l 694 1910 l 347 1910 l 347 868 l 0 868 z "},"М":{"ha":1042,"x_min":0,"x_max":868,"o":"m 347 1563 l 347 1736 l 521 1736 l 521 1563 l 347 1563 m 0 868 l 0 2083 l 174 2083 l 174 1910 l 347 1910 l 347 1736 l 174 1736 l 174 868 l 0 868 m 694 868 l 694 1736 l 521 1736 l 521 1910 l 694 1910 l 694 2083 l 868 2083 l 868 868 l 694 868 z "},"Н":{"ha":1042,"x_min":0,"x_max":868,"o":"m 0 868 l 0 2083 l 174 2083 l 174 1736 l 694 1736 l 694 2083 l 868 2083 l 868 868 l 694 868 l 694 1563 l 174 1563 l 174 868 l 0 868 z "},"О":{"ha":1042,"x_min":0,"x_max":868,"o":"m 174 868 l 174 1042 l 694 1042 l 694 868 l 174 868 m 0 1042 l 0 1910 l 174 1910 l 174 1042 l 0 1042 m 694 1042 l 694 1910 l 868 1910 l 868 1042 l 694 1042 m 174 1910 l 174 2083 l 694 2083 l 694 1910 l 174 1910 z "},"П":{"ha":1042,"x_min":0,"x_max":868,"o":"m 0 868 l 0 2083 l 868 2083 l 868 868 l 694 868 l 694 1910 l 174 1910 l 174 868 l 0 868 z "},"Р":{"ha":1042,"x_min":0,"x_max":868,"o":"m 694 1736 l 694 1910 l 868 1910 l 868 1736 l 694 1736 m 0 868 l 0 2083 l 694 2083 l 694 1910 l 174 1910 l 174 1736 l 694 1736 l 694 1563 l 174 1563 l 174 868 l 0 868 z "},"С":{"ha":1042,"x_min":0,"x_max":868,"o":"m 174 868 l 174 1042 l 694 1042 l 694 868 l 174 868 m 694 1042 l 694 1215 l 868 1215 l 868 1042 l 694 1042 m 0 1042 l 0 1910 l 174 1910 l 174 1042 l 0 1042 m 694 1736 l 694 1910 l 868 1910 l 868 1736 l 694 1736 m 174 1910 l 174 2083 l 694 2083 l 694 1910 l 174 1910 z "},"Т":{"ha":1042,"x_min":0,"x_max":868,"o":"m 347 868 l 347 1910 l 0 1910 l 0 2083 l 868 2083 l 868 1910 l 521 1910 l 521 868 l 347 868 z "},"У":{"ha":1042,"x_min":0,"x_max":868,"o":"m 0 868 l 0 1042 l 521 1042 l 521 868 l 0 868 m 521 1042 l 521 1215 l 694 1215 l 694 1042 l 521 1042 m 0 1736 l 0 2083 l 174 2083 l 174 1736 l 0 1736 m 694 1215 l 694 1563 l 174 1563 l 174 1736 l 694 1736 l 694 2083 l 868 2083 l 868 1215 l 694 1215 z "},"Ф":{"ha":1042,"x_min":0,"x_max":868,"o":"m 0 1389 l 0 1736 l 174 1736 l 174 1389 l 0 1389 m 694 1389 l 694 1736 l 868 1736 l 868 1389 l 694 1389 m 347 868 l 347 1215 l 174 1215 l 174 1389 l 347 1389 l 347 1736 l 174 1736 l 174 1910 l 347 1910 l 347 2083 l 521 2083 l 521 1910 l 694 1910 l 694 1736 l 521 1736 l 521 1389 l 694 1389 l 694 1215 l 521 1215 l 521 868 l 347 868 z "},"Х":{"ha":1042,"x_min":0,"x_max":868,"o":"m 0 868 l 0 1389 l 174 1389 l 174 868 l 0 868 m 694 868 l 694 1389 l 868 1389 l 868 868 l 694 868 m 174 1389 l 174 1563 l 347 1563 l 347 1389 l 174 1389 m 521 1389 l 521 1563 l 694 1563 l 694 1389 l 521 1389 m 347 1563 l 347 1736 l 521 1736 l 521 1563 l 347 1563 m 174 1736 l 174 1910 l 347 1910 l 347 1736 l 174 1736 m 521 1736 l 521 1910 l 694 1910 l 694 1736 l 521 1736 m 0 1910 l 0 2083 l 174 2083 l 174 1910 l 0 1910 m 694 1910 l 694 2083 l 868 2083 l 868 1910 l 694 1910 z "},"Ц":{"ha":1215,"x_min":0,"x_max":1042,"o":"m 868 694 l 868 868 l 0 868 l 0 2083 l 174 2083 l 174 1042 l 694 1042 l 694 2083 l 868 2083 l 868 1042 l 1042 1042 l 1042 694 l 868 694 z "},"Ч":{"ha":1042,"x_min":0,"x_max":868,"o":"m 0 1736 l 0 2083 l 174 2083 l 174 1736 l 0 1736 m 694 868 l 694 1563 l 174 1563 l 174 1736 l 694 1736 l 694 2083 l 868 2083 l 868 868 l 694 868 z "},"Ш":{"ha":1042,"x_min":0,"x_max":868,"o":"m 0 868 l 0 2083 l 174 2083 l 174 1042 l 347 1042 l 347 2083 l 521 2083 l 521 1042 l 694 1042 l 694 2083 l 868 2083 l 868 868 l 0 868 z "},"Щ":{"ha":1215,"x_min":0,"x_max":1042,"o":"m 868 694 l 868 868 l 0 868 l 0 2083 l 174 2083 l 174 1042 l 347 1042 l 347 2083 l 521 2083 l 521 1042 l 694 1042 l 694 2083 l 868 2083 l 868 1042 l 1042 1042 l 1042 694 l 868 694 z "},"Ъ":{"ha":1215,"x_min":0,"x_max":1042,"o":"m 868 1042 l 868 1563 l 1042 1563 l 1042 1042 l 868 1042 m 174 868 l 174 1910 l 0 1910 l 0 2083 l 347 2083 l 347 1736 l 868 1736 l 868 1563 l 347 1563 l 347 1042 l 868 1042 l 868 868 l 174 868 z "},"Ы":{"ha":1389,"x_min":0,"x_max":1215,"o":"m 694 1042 l 694 1563 l 868 1563 l 868 1042 l 694 1042 m 0 868 l 0 2083 l 174 2083 l 174 1736 l 694 1736 l 694 1563 l 174 1563 l 174 1042 l 694 1042 l 694 868 l 0 868 m 1042 868 l 1042 2083 l 1215 2083 l 1215 868 l 1042 868 z "},"Ь":{"ha":1042,"x_min":0,"x_max":868,"o":"m 694 1042 l 694 1563 l 868 1563 l 868 1042 l 694 1042 m 0 868 l 0 2083 l 174 2083 l 174 1736 l 694 1736 l 694 1563 l 174 1563 l 174 1042 l 694 1042 l 694 868 l 0 868 z "},"Э":{"ha":1042,"x_min":0,"x_max":868,"o":"m 174 868 l 174 1042 l 694 1042 l 694 868 l 174 868 m 0 1042 l 0 1215 l 174 1215 l 174 1042 l 0 1042 m 0 1736 l 0 1910 l 174 1910 l 174 1736 l 0 1736 m 694 1042 l 694 1563 l 347 1563 l 347 1736 l 694 1736 l 694 1910 l 868 1910 l 868 1042 l 694 1042 m 174 1910 l 174 2083 l 694 2083 l 694 1910 l 174 1910 z "},"Ю":{"ha":1042,"x_min":0,"x_max":868,"o":"m 521 868 l 521 1042 l 694 1042 l 694 868 l 521 868 m 694 1042 l 694 1910 l 868 1910 l 868 1042 l 694 1042 m 0 868 l 0 2083 l 174 2083 l 174 1736 l 347 1736 l 347 1910 l 521 1910 l 521 1042 l 347 1042 l 347 1563 l 174 1563 l 174 868 l 0 868 m 521 1910 l 521 2083 l 694 2083 l 694 1910 l 521 1910 z "},"Я":{"ha":1042,"x_min":0,"x_max":868,"o":"m 0 868 l 0 1563 l 174 1563 l 174 868 l 0 868 m 0 1736 l 0 1910 l 174 1910 l 174 1736 l 0 1736 m 694 868 l 694 1563 l 174 1563 l 174 1736 l 694 1736 l 694 1910 l 174 1910 l 174 2083 l 868 2083 l 868 868 l 694 868 z "},"а":{"ha":1042,"x_min":0,"x_max":868,"o":"m 0 1042 l 0 1215 l 174 1215 l 174 1042 l 0 1042 m 174 868 l 174 1042 l 694 1042 l 694 1215 l 174 1215 l 174 1389 l 694 1389 l 694 1563 l 868 1563 l 868 868 l 174 868 m 174 1563 l 174 1736 l 694 1736 l 694 1563 l 174 1563 z "},"б":{"ha":1042,"x_min":0,"x_max":868,"o":"m 174 868 l 174 1042 l 694 1042 l 694 868 l 174 868 m 694 1042 l 694 1563 l 868 1563 l 868 1042 l 694 1042 m 347 1563 l 347 1736 l 694 1736 l 694 1563 l 347 1563 m 0 1042 l 0 1910 l 174 1910 l 174 1563 l 347 1563 l 347 1389 l 174 1389 l 174 1042 l 0 1042 m 174 1910 l 174 2083 l 868 2083 l 868 1910 l 174 1910 z "},"в":{"ha":1042,"x_min":0,"x_max":868,"o":"m 694 1042 l 694 1215 l 868 1215 l 868 1042 l 694 1042 m 694 1389 l 694 1563 l 868 1563 l 868 1389 l 694 1389 m 0 868 l 0 1736 l 694 1736 l 694 1563 l 174 1563 l 174 1389 l 694 1389 l 694 1215 l 174 1215 l 174 1042 l 694 1042 l 694 868 l 0 868 z "},"г":{"ha":1042,"x_min":0,"x_max":868,"o":"m 0 868 l 0 1736 l 868 1736 l 868 1563 l 174 1563 l 174 868 l 0 868 z "},"д":{"ha":1042,"x_min":0,"x_max":868,"o":"m 0 694 l 0 1215 l 174 1215 l 174 1042 l 694 1042 l 694 1215 l 868 1215 l 868 694 l 694 694 l 694 868 l 174 868 l 174 694 l 0 694 m 174 1215 l 174 1563 l 347 1563 l 347 1215 l 174 1215 m 521 1215 l 521 1563 l 694 1563 l 694 1215 l 521 1215 m 347 1563 l 347 1736 l 521 1736 l 521 1563 l 347 1563 z "},"е":{"ha":1042,"x_min":0,"x_max":868,"o":"m 174 868 l 174 1042 l 868 1042 l 868 868 l 174 868 m 0 1042 l 0 1563 l 174 1563 l 174 1389 l 694 1389 l 694 1563 l 868 1563 l 868 1215 l 174 1215 l 174 1042 l 0 1042 m 174 1563 l 174 1736 l 694 1736 l 694 1563 l 174 1563 z "},"ж":{"ha":1042,"x_min":0,"x_max":868,"o":"m 0 868 l 0 1215 l 174 1215 l 174 868 l 0 868 m 694 868 l 694 1215 l 868 1215 l 868 868 l 694 868 m 0 1389 l 0 1736 l 174 1736 l 174 1389 l 0 1389 m 347 868 l 347 1215 l 174 1215 l 174 1389 l 347 1389 l 347 1736 l 521 1736 l 521 1389 l 694 1389 l 694 1215 l 521 1215 l 521 868 l 347 868 m 694 1389 l 694 1736 l 868 1736 l 868 1389 l 694 1389 z "},"з":{"ha":1042,"x_min":0,"x_max":868,"o":"m 0 868 l 0 1042 l 694 1042 l 694 868 l 0 868 m 694 1042 l 694 1215 l 868 1215 l 868 1042 l 694 1042 m 347 1215 l 347 1389 l 694 1389 l 694 1215 l 347 1215 m 694 1389 l 694 1563 l 868 1563 l 868 1389 l 694 1389 m 0 1563 l 0 1736 l 694 1736 l 694 1563 l 0 1563 z "},"и":{"ha":1042,"x_min":0,"x_max":868,"o":"m 347 1215 l 347 1389 l 521 1389 l 521 1215 l 347 1215 m 0 868 l 0 1736 l 174 1736 l 174 1215 l 347 1215 l 347 1042 l 174 1042 l 174 868 l 0 868 m 694 868 l 694 1389 l 521 1389 l 521 1563 l 694 1563 l 694 1736 l 868 1736 l 868 868 l 694 868 z "},"й":{"ha":1042,"x_min":0,"x_max":868,"o":"m 347 1215 l 347 1389 l 521 1389 l 521 1215 l 347 1215 m 0 868 l 0 1736 l 174 1736 l 174 1215 l 347 1215 l 347 1042 l 174 1042 l 174 868 l 0 868 m 694 868 l 694 1389 l 521 1389 l 521 1563 l 694 1563 l 694 1736 l 868 1736 l 868 868 l 694 868 m 174 1910 l 174 2257 l 347 2257 l 347 2083 l 521 2083 l 521 2257 l 694 2257 l 694 1910 l 174 1910 z "},"к":{"ha":868,"x_min":0,"x_max":694,"o":"m 521 868 l 521 1042 l 694 1042 l 694 868 l 521 868 m 347 1042 l 347 1215 l 521 1215 l 521 1042 l 347 1042 m 347 1389 l 347 1563 l 521 1563 l 521 1389 l 347 1389 m 0 868 l 0 1736 l 174 1736 l 174 1389 l 347 1389 l 347 1215 l 174 1215 l 174 868 l 0 868 m 521 1563 l 521 1736 l 694 1736 l 694 1563 l 521 1563 z "},"л":{"ha":1042,"x_min":0,"x_max":868,"o":"m 0 868 l 0 1042 l 174 1042 l 174 1736 l 868 1736 l 868 868 l 694 868 l 694 1563 l 347 1563 l 347 868 l 0 868 z "},"м":{"ha":1042,"x_min":0,"x_max":868,"o":"m 347 1215 l 347 1389 l 521 1389 l 521 1215 l 347 1215 m 0 868 l 0 1736 l 174 1736 l 174 1563 l 347 1563 l 347 1389 l 174 1389 l 174 868 l 0 868 m 694 868 l 694 1389 l 521 1389 l 521 1563 l 694 1563 l 694 1736 l 868 1736 l 868 868 l 694 868 z "},"н":{"ha":1042,"x_min":0,"x_max":868,"o":"m 0 868 l 0 1736 l 174 1736 l 174 1389 l 694 1389 l 694 1736 l 868 1736 l 868 868 l 694 868 l 694 1215 l 174 1215 l 174 868 l 0 868 z "},"о":{"ha":1042,"x_min":0,"x_max":868,"o":"m 174 868 l 174 1042 l 694 1042 l 694 868 l 174 868 m 0 1042 l 0 1563 l 174 1563 l 174 1042 l 0 1042 m 694 1042 l 694 1563 l 868 1563 l 868 1042 l 694 1042 m 174 1563 l 174 1736 l 694 1736 l 694 1563 l 174 1563 z "},"п":{"ha":1042,"x_min":0,"x_max":868,"o":"m 0 868 l 0 1736 l 868 1736 l 868 868 l 694 868 l 694 1563 l 174 1563 l 174 868 l 0 868 z "},"р":{"ha":1042,"x_min":0,"x_max":868,"o":"m 694 1215 l 694 1563 l 868 1563 l 868 1215 l 694 1215 m 0 694 l 0 1736 l 174 1736 l 174 1563 l 347 1563 l 347 1389 l 174 1389 l 174 1215 l 694 1215 l 694 1042 l 174 1042 l 174 694 l 0 694 m 347 1563 l 347 1736 l 694 1736 l 694 1563 l 347 1563 z "},"с":{"ha":1042,"x_min":0,"x_max":868,"o":"m 174 868 l 174 1042 l 694 1042 l 694 868 l 174 868 m 694 1042 l 694 1215 l 868 1215 l 868 1042 l 694 1042 m 0 1042 l 0 1563 l 174 1563 l 174 1042 l 0 1042 m 694 1389 l 694 1563 l 868 1563 l 868 1389 l 694 1389 m 174 1563 l 174 1736 l 694 1736 l 694 1563 l 174 1563 z "},"т":{"ha":1042,"x_min":0,"x_max":868,"o":"m 347 868 l 347 1563 l 0 1563 l 0 1736 l 868 1736 l 868 1563 l 521 1563 l 521 868 l 347 868 z "},"у":{"ha":1042,"x_min":0,"x_max":868,"o":"m 0 694 l 0 868 l 694 868 l 694 694 l 0 694 m 0 1215 l 0 1736 l 174 1736 l 174 1215 l 0 1215 m 694 868 l 694 1042 l 174 1042 l 174 1215 l 694 1215 l 694 1736 l 868 1736 l 868 868 l 694 868 z "},"ф":{"ha":1389,"x_min":0,"x_max":1215,"o":"m 174 1042 l 174 1215 l 347 1215 l 347 1042 l 174 1042 m 0 1215 l 0 1563 l 174 1563 l 174 1215 l 0 1215 m 1042 1215 l 1042 1563 l 1215 1563 l 1215 1215 l 1042 1215 m 868 1563 l 868 1736 l 1042 1736 l 1042 1563 l 868 1563 m 521 694 l 521 1215 l 347 1215 l 347 1389 l 521 1389 l 521 1563 l 174 1563 l 174 1736 l 521 1736 l 521 2083 l 694 2083 l 694 1563 l 868 1563 l 868 1389 l 694 1389 l 694 1215 l 1042 1215 l 1042 1042 l 694 1042 l 694 694 l 521 694 z "},"х":{"ha":1042,"x_min":0,"x_max":868,"o":"m 0 868 l 0 1042 l 174 1042 l 174 868 l 0 868 m 694 868 l 694 1042 l 868 1042 l 868 868 l 694 868 m 174 1042 l 174 1215 l 347 1215 l 347 1042 l 174 1042 m 521 1042 l 521 1215 l 694 1215 l 694 1042 l 521 1042 m 347 1215 l 347 1389 l 521 1389 l 521 1215 l 347 1215 m 174 1389 l 174 1563 l 347 1563 l 347 1389 l 174 1389 m 521 1389 l 521 1563 l 694 1563 l 694 1389 l 521 1389 m 0 1563 l 0 1736 l 174 1736 l 174 1563 l 0 1563 m 694 1563 l 694 1736 l 868 1736 l 868 1563 l 694 1563 z "},"ц":{"ha":1215,"x_min":0,"x_max":1042,"o":"m 868 694 l 868 868 l 0 868 l 0 1736 l 174 1736 l 174 1042 l 694 1042 l 694 1736 l 868 1736 l 868 1042 l 1042 1042 l 1042 694 l 868 694 z "},"ч":{"ha":1042,"x_min":0,"x_max":868,"o":"m 0 1389 l 0 1736 l 174 1736 l 174 1389 l 0 1389 m 694 868 l 694 1215 l 174 1215 l 174 1389 l 694 1389 l 694 1736 l 868 1736 l 868 868 l 694 868 z "},"ш":{"ha":1042,"x_min":0,"x_max":868,"o":"m 0 868 l 0 1736 l 174 1736 l 174 1042 l 347 1042 l 347 1736 l 521 1736 l 521 1042 l 694 1042 l 694 1736 l 868 1736 l 868 868 l 0 868 z "},"щ":{"ha":1215,"x_min":0,"x_max":1042,"o":"m 868 694 l 868 868 l 0 868 l 0 1736 l 174 1736 l 174 1042 l 347 1042 l 347 1736 l 521 1736 l 521 1042 l 694 1042 l 694 1736 l 868 1736 l 868 1042 l 1042 1042 l 1042 694 l 868 694 z "},"ъ":{"ha":1042,"x_min":0,"x_max":868,"o":"m 694 1042 l 694 1215 l 868 1215 l 868 1042 l 694 1042 m 174 868 l 174 1563 l 0 1563 l 0 1736 l 347 1736 l 347 1389 l 694 1389 l 694 1215 l 347 1215 l 347 1042 l 694 1042 l 694 868 l 174 868 z "},"ы":{"ha":1215,"x_min":0,"x_max":1042,"o":"m 521 1042 l 521 1215 l 694 1215 l 694 1042 l 521 1042 m 0 868 l 0 1736 l 174 1736 l 174 1389 l 521 1389 l 521 1215 l 174 1215 l 174 1042 l 521 1042 l 521 868 l 0 868 m 868 868 l 868 1736 l 1042 1736 l 1042 868 l 868 868 z "},"ь":{"ha":868,"x_min":0,"x_max":694,"o":"m 521 1042 l 521 1215 l 694 1215 l 694 1042 l 521 1042 m 0 868 l 0 1736 l 174 1736 l 174 1389 l 521 1389 l 521 1215 l 174 1215 l 174 1042 l 521 1042 l 521 868 l 0 868 z "},"э":{"ha":1042,"x_min":0,"x_max":868,"o":"m 174 868 l 174 1042 l 694 1042 l 694 868 l 174 868 m 0 1042 l 0 1215 l 174 1215 l 174 1042 l 0 1042 m 0 1389 l 0 1563 l 174 1563 l 174 1389 l 0 1389 m 694 1042 l 694 1215 l 347 1215 l 347 1389 l 694 1389 l 694 1563 l 868 1563 l 868 1042 l 694 1042 m 174 1563 l 174 1736 l 694 1736 l 694 1563 l 174 1563 z "},"ю":{"ha":1042,"x_min":0,"x_max":868,"o":"m 521 868 l 521 1042 l 694 1042 l 694 868 l 521 868 m 694 1042 l 694 1563 l 868 1563 l 868 1042 l 694 1042 m 0 868 l 0 1736 l 174 1736 l 174 1389 l 347 1389 l 347 1563 l 521 1563 l 521 1042 l 347 1042 l 347 1215 l 174 1215 l 174 868 l 0 868 m 521 1563 l 521 1736 l 694 1736 l 694 1563 l 521 1563 z "},"я":{"ha":1042,"x_min":0,"x_max":868,"o":"m 0 868 l 0 1215 l 174 1215 l 174 868 l 0 868 m 0 1389 l 0 1563 l 174 1563 l 174 1389 l 0 1389 m 694 868 l 694 1215 l 174 1215 l 174 1389 l 694 1389 l 694 1563 l 174 1563 l 174 1736 l 868 1736 l 868 868 l 694 868 z "},"ѐ":{"ha":1042,"x_min":0,"x_max":868,"o":"m 174 868 l 174 1042 l 868 1042 l 868 868 l 174 868 m 0 1042 l 0 1563 l 174 1563 l 174 1389 l 694 1389 l 694 1563 l 868 1563 l 868 1215 l 174 1215 l 174 1042 l 0 1042 m 174 1563 l 174 1736 l 694 1736 l 694 1563 l 174 1563 m 347 1910 l 347 2083 l 521 2083 l 521 1910 l 347 1910 m 174 2083 l 174 2257 l 347 2257 l 347 2083 l 174 2083 z "},"ё":{"ha":1042,"x_min":0,"x_max":868,"o":"m 174 868 l 174 1042 l 868 1042 l 868 868 l 174 868 m 0 1042 l 0 1563 l 174 1563 l 174 1389 l 694 1389 l 694 1563 l 868 1563 l 868 1215 l 174 1215 l 174 1042 l 0 1042 m 174 1563 l 174 1736 l 694 1736 l 694 1563 l 174 1563 m 174 1910 l 174 2083 l 347 2083 l 347 1910 l 174 1910 m 521 1910 l 521 2083 l 694 2083 l 694 1910 l 521 1910 z "},"ђ":{"ha":1215,"x_min":0,"x_max":1042,"o":"m 521 694 l 521 868 l 868 868 l 868 694 l 521 694 m 868 868 l 868 1563 l 1042 1563 l 1042 868 l 868 868 m 521 1563 l 521 1736 l 868 1736 l 868 1563 l 521 1563 m 174 868 l 174 1736 l 0 1736 l 0 1910 l 174 1910 l 174 2083 l 347 2083 l 347 1910 l 521 1910 l 521 1736 l 347 1736 l 347 1563 l 521 1563 l 521 1389 l 347 1389 l 347 868 l 174 868 z "},"ѓ":{"ha":1042,"x_min":0,"x_max":868,"o":"m 0 868 l 0 1736 l 868 1736 l 868 1563 l 174 1563 l 174 868 l 0 868 m 347 1910 l 347 2083 l 521 2083 l 521 1910 l 347 1910 m 521 2083 l 521 2257 l 694 2257 l 694 2083 l 521 2083 z "},"є":{"ha":1042,"x_min":0,"x_max":868,"o":"m 174 868 l 174 1042 l 694 1042 l 694 868 l 174 868 m 694 1042 l 694 1215 l 868 1215 l 868 1042 l 694 1042 m 0 1042 l 0 1563 l 174 1563 l 174 1389 l 521 1389 l 521 1215 l 174 1215 l 174 1042 l 0 1042 m 694 1389 l 694 1563 l 868 1563 l 868 1389 l 694 1389 m 174 1563 l 174 1736 l 694 1736 l 694 1563 l 174 1563 z "},"ѕ":{"ha":1042,"x_min":0,"x_max":868,"o":"m 0 868 l 0 1042 l 694 1042 l 694 868 l 0 868 m 694 1042 l 694 1215 l 868 1215 l 868 1042 l 694 1042 m 174 1215 l 174 1389 l 694 1389 l 694 1215 l 174 1215 m 0 1389 l 0 1563 l 174 1563 l 174 1389 l 0 1389 m 174 1563 l 174 1736 l 868 1736 l 868 1563 l 174 1563 z "},"і":{"ha":347,"x_min":0,"x_max":174,"o":"m 0 868 l 0 1736 l 174 1736 l 174 868 l 0 868 m 0 1910 l 0 2083 l 174 2083 l 174 1910 l 0 1910 z "},"ї":{"ha":694,"x_min":0,"x_max":521,"o":"m 174 868 l 174 1736 l 347 1736 l 347 868 l 174 868 m 0 1910 l 0 2083 l 174 2083 l 174 1910 l 0 1910 m 347 1910 l 347 2083 l 521 2083 l 521 1910 l 347 1910 z "},"ј":{"ha":1042,"x_min":0,"x_max":868,"o":"m 174 694 l 174 868 l 694 868 l 694 694 l 174 694 m 0 868 l 0 1042 l 174 1042 l 174 868 l 0 868 m 694 868 l 694 1736 l 868 1736 l 868 868 l 694 868 m 694 1910 l 694 2083 l 868 2083 l 868 1910 l 694 1910 z "},"љ":{"ha":1563,"x_min":0,"x_max":1389,"o":"m 1215 1042 l 1215 1215 l 1389 1215 l 1389 1042 l 1215 1042 m 0 868 l 0 1042 l 174 1042 l 174 1736 l 868 1736 l 868 1389 l 1215 1389 l 1215 1215 l 868 1215 l 868 1042 l 1215 1042 l 1215 868 l 694 868 l 694 1563 l 347 1563 l 347 868 l 0 868 z "},"њ":{"ha":1563,"x_min":0,"x_max":1389,"o":"m 1215 1042 l 1215 1215 l 1389 1215 l 1389 1042 l 1215 1042 m 0 868 l 0 1736 l 174 1736 l 174 1389 l 694 1389 l 694 1736 l 868 1736 l 868 1389 l 1215 1389 l 1215 1215 l 868 1215 l 868 1042 l 1215 1042 l 1215 868 l 694 868 l 694 1215 l 174 1215 l 174 868 l 0 868 z "},"ћ":{"ha":1215,"x_min":0,"x_max":1042,"o":"m 868 868 l 868 1563 l 1042 1563 l 1042 868 l 868 868 m 521 1563 l 521 1736 l 868 1736 l 868 1563 l 521 1563 m 174 868 l 174 1736 l 0 1736 l 0 1910 l 174 1910 l 174 2083 l 347 2083 l 347 1910 l 521 1910 l 521 1736 l 347 1736 l 347 1563 l 521 1563 l 521 1389 l 347 1389 l 347 868 l 174 868 z "},"ќ":{"ha":868,"x_min":0,"x_max":694,"o":"m 521 868 l 521 1042 l 694 1042 l 694 868 l 521 868 m 347 1042 l 347 1215 l 521 1215 l 521 1042 l 347 1042 m 347 1389 l 347 1563 l 521 1563 l 521 1389 l 347 1389 m 0 868 l 0 1736 l 174 1736 l 174 1389 l 347 1389 l 347 1215 l 174 1215 l 174 868 l 0 868 m 521 1563 l 521 1736 l 694 1736 l 694 1563 l 521 1563 z "},"ѝ":{"ha":1042,"x_min":0,"x_max":868,"o":"m 347 1215 l 347 1389 l 521 1389 l 521 1215 l 347 1215 m 0 868 l 0 1736 l 174 1736 l 174 1215 l 347 1215 l 347 1042 l 174 1042 l 174 868 l 0 868 m 694 868 l 694 1389 l 521 1389 l 521 1563 l 694 1563 l 694 1736 l 868 1736 l 868 868 l 694 868 m 347 1910 l 347 2083 l 521 2083 l 521 1910 l 347 1910 m 174 2083 l 174 2257 l 347 2257 l 347 2083 l 174 2083 z "},"ў":{"ha":1042,"x_min":0,"x_max":868,"o":"m 0 694 l 0 868 l 694 868 l 694 694 l 0 694 m 0 1215 l 0 1736 l 174 1736 l 174 1215 l 0 1215 m 694 868 l 694 1042 l 174 1042 l 174 1215 l 694 1215 l 694 1736 l 868 1736 l 868 868 l 694 868 m 174 1910 l 174 2257 l 347 2257 l 347 2083 l 521 2083 l 521 2257 l 694 2257 l 694 1910 l 174 1910 z "},"џ":{"ha":1042,"x_min":0,"x_max":868,"o":"m 347 694 l 347 868 l 0 868 l 0 1736 l 174 1736 l 174 1042 l 694 1042 l 694 1736 l 868 1736 l 868 868 l 521 868 l 521 694 l 347 694 z "},"Ѣ":{"ha":1215,"x_min":0,"x_max":1042,"o":"m 868 1042 l 868 1389 l 1042 1389 l 1042 1042 l 868 1042 m 174 868 l 174 1736 l 0 1736 l 0 1910 l 174 1910 l 174 2083 l 347 2083 l 347 1910 l 868 1910 l 868 1736 l 347 1736 l 347 1563 l 868 1563 l 868 1389 l 347 1389 l 347 1042 l 868 1042 l 868 868 l 174 868 z "},"ѣ":{"ha":1215,"x_min":0,"x_max":1042,"o":"m 868 1042 l 868 1389 l 1042 1389 l 1042 1042 l 868 1042 m 521 1389 l 521 1563 l 868 1563 l 868 1389 l 521 1389 m 174 868 l 174 1736 l 0 1736 l 0 1910 l 174 1910 l 174 2083 l 347 2083 l 347 1910 l 868 1910 l 868 1736 l 347 1736 l 347 1389 l 521 1389 l 521 1215 l 347 1215 l 347 1042 l 868 1042 l 868 868 l 174 868 z "},"Ѳ":{"ha":1042,"x_min":0,"x_max":868,"o":"m 174 868 l 174 1042 l 694 1042 l 694 868 l 174 868 m 0 1042 l 0 1910 l 174 1910 l 174 1563 l 694 1563 l 694 1910 l 868 1910 l 868 1042 l 694 1042 l 694 1389 l 174 1389 l 174 1042 l 0 1042 m 174 1910 l 174 2083 l 694 2083 l 694 1910 l 174 1910 z "},"ѳ":{"ha":1042,"x_min":0,"x_max":868,"o":"m 174 868 l 174 1042 l 694 1042 l 694 868 l 174 868 m 0 1042 l 0 1563 l 174 1563 l 174 1389 l 694 1389 l 694 1563 l 868 1563 l 868 1042 l 694 1042 l 694 1215 l 174 1215 l 174 1042 l 0 1042 m 174 1563 l 174 1736 l 694 1736 l 694 1563 l 174 1563 z "},"Ѵ":{"ha":1042,"x_min":0,"x_max":868,"o":"m 347 868 l 347 1042 l 521 1042 l 521 868 l 347 868 m 174 1042 l 174 1389 l 347 1389 l 347 1042 l 174 1042 m 521 1042 l 521 1563 l 694 1563 l 694 1042 l 521 1042 m 0 1389 l 0 2083 l 174 2083 l 174 1389 l 0 1389 m 694 1563 l 694 2083 l 868 2083 l 868 1563 l 694 1563 z "},"ѵ":{"ha":1042,"x_min":0,"x_max":868,"o":"m 347 868 l 347 1042 l 521 1042 l 521 868 l 347 868 m 174 1042 l 174 1215 l 347 1215 l 347 1042 l 174 1042 m 521 1042 l 521 1389 l 694 1389 l 694 1042 l 521 1042 m 0 1215 l 0 1736 l 174 1736 l 174 1215 l 0 1215 m 694 1389 l 694 1736 l 868 1736 l 868 1389 l 694 1389 z "},"Ҋ":{"ha":1215,"x_min":0,"x_max":1042,"o":"m 347 1563 l 347 1736 l 521 1736 l 521 1563 l 347 1563 m 0 868 l 0 2083 l 174 2083 l 174 1563 l 347 1563 l 347 1389 l 174 1389 l 174 868 l 0 868 m 694 694 l 694 1736 l 521 1736 l 521 1910 l 694 1910 l 694 2083 l 868 2083 l 868 1042 l 1042 1042 l 1042 868 l 868 868 l 868 694 l 694 694 m 174 2083 l 174 2431 l 347 2431 l 347 2257 l 521 2257 l 521 2431 l 694 2431 l 694 2083 l 174 2083 z "},"ҋ":{"ha":1215,"x_min":0,"x_max":1042,"o":"m 347 1215 l 347 1389 l 521 1389 l 521 1215 l 347 1215 m 0 868 l 0 1736 l 174 1736 l 174 1215 l 347 1215 l 347 1042 l 174 1042 l 174 868 l 0 868 m 694 694 l 694 1389 l 521 1389 l 521 1563 l 694 1563 l 694 1736 l 868 1736 l 868 1042 l 1042 1042 l 1042 868 l 868 868 l 868 694 l 694 694 m 174 1910 l 174 2257 l 347 2257 l 347 2083 l 521 2083 l 521 2257 l 694 2257 l 694 1910 l 174 1910 z "},"Ҍ":{"ha":1215,"x_min":0,"x_max":1042,"o":"m 868 1042 l 868 1563 l 1042 1563 l 1042 1042 l 868 1042 m 174 868 l 174 1910 l 0 1910 l 0 2083 l 521 2083 l 521 1910 l 347 1910 l 347 1736 l 868 1736 l 868 1563 l 347 1563 l 347 1042 l 868 1042 l 868 868 l 174 868 z "},"ҍ":{"ha":1042,"x_min":0,"x_max":868,"o":"m 694 1042 l 694 1215 l 868 1215 l 868 1042 l 694 1042 m 174 868 l 174 1736 l 0 1736 l 0 1910 l 174 1910 l 174 2083 l 347 2083 l 347 1910 l 521 1910 l 521 1736 l 347 1736 l 347 1389 l 694 1389 l 694 1215 l 347 1215 l 347 1042 l 694 1042 l 694 868 l 174 868 z "},"Ҏ":{"ha":1042,"x_min":0,"x_max":868,"o":"m 347 1736 l 347 1910 l 174 1910 l 174 1736 l 347 1736 m 0 868 l 0 2083 l 694 2083 l 694 1910 l 521 1910 l 521 1736 l 694 1736 l 694 1910 l 868 1910 l 868 1389 l 694 1389 l 694 1563 l 174 1563 l 174 868 l 0 868 z "},"ҏ":{"ha":1042,"x_min":0,"x_max":868,"o":"m 694 868 l 694 1042 l 868 1042 l 868 868 l 694 868 m 694 1215 l 694 1563 l 868 1563 l 868 1215 l 694 1215 m 0 694 l 0 1736 l 174 1736 l 174 1563 l 347 1563 l 347 1389 l 174 1389 l 174 1215 l 347 1215 l 347 1389 l 521 1389 l 521 1215 l 694 1215 l 694 1042 l 174 1042 l 174 694 l 0 694 m 347 1563 l 347 1736 l 694 1736 l 694 1563 l 347 1563 z "},"Ґ":{"ha":1042,"x_min":0,"x_max":868,"o":"m 0 868 l 0 2083 l 694 2083 l 694 2257 l 868 2257 l 868 1910 l 174 1910 l 174 868 l 0 868 z "},"ґ":{"ha":1042,"x_min":0,"x_max":868,"o":"m 0 868 l 0 1736 l 694 1736 l 694 1910 l 868 1910 l 868 1563 l 174 1563 l 174 868 l 0 868 z "},"Ғ":{"ha":1215,"x_min":0,"x_max":1042,"o":"m 174 868 l 174 1389 l 0 1389 l 0 1563 l 174 1563 l 174 2083 l 1042 2083 l 1042 1910 l 347 1910 l 347 1563 l 694 1563 l 694 1389 l 347 1389 l 347 868 l 174 868 z "},"ғ":{"ha":1215,"x_min":0,"x_max":1042,"o":"m 174 868 l 174 1215 l 0 1215 l 0 1389 l 174 1389 l 174 1736 l 1042 1736 l 1042 1563 l 347 1563 l 347 1389 l 694 1389 l 694 1215 l 347 1215 l 347 868 l 174 868 z "},"Җ":{"ha":1215,"x_min":0,"x_max":1042,"o":"m 0 868 l 0 1563 l 174 1563 l 174 868 l 0 868 m 868 694 l 868 868 l 694 868 l 694 1563 l 868 1563 l 868 1042 l 1042 1042 l 1042 694 l 868 694 m 0 1736 l 0 2083 l 174 2083 l 174 1736 l 0 1736 m 347 868 l 347 1563 l 174 1563 l 174 1736 l 347 1736 l 347 2083 l 521 2083 l 521 1736 l 694 1736 l 694 1563 l 521 1563 l 521 868 l 347 868 m 694 1736 l 694 2083 l 868 2083 l 868 1736 l 694 1736 z "},"җ":{"ha":1215,"x_min":0,"x_max":1042,"o":"m 0 868 l 0 1215 l 174 1215 l 174 868 l 0 868 m 868 694 l 868 868 l 694 868 l 694 1215 l 868 1215 l 868 1042 l 1042 1042 l 1042 694 l 868 694 m 0 1389 l 0 1736 l 174 1736 l 174 1389 l 0 1389 m 347 868 l 347 1215 l 174 1215 l 174 1389 l 347 1389 l 347 1736 l 521 1736 l 521 1389 l 694 1389 l 694 1215 l 521 1215 l 521 868 l 347 868 m 694 1389 l 694 1736 l 868 1736 l 868 1389 l 694 1389 z "},"Ҙ":{"ha":1042,"x_min":0,"x_max":868,"o":"m 347 694 l 347 868 l 174 868 l 174 1042 l 694 1042 l 694 868 l 521 868 l 521 694 l 347 694 m 0 1042 l 0 1215 l 174 1215 l 174 1042 l 0 1042 m 694 1042 l 694 1563 l 868 1563 l 868 1042 l 694 1042 m 347 1563 l 347 1736 l 694 1736 l 694 1563 l 347 1563 m 694 1736 l 694 1910 l 868 1910 l 868 1736 l 694 1736 m 0 1910 l 0 2083 l 694 2083 l 694 1910 l 0 1910 z "},"ҙ":{"ha":1042,"x_min":0,"x_max":868,"o":"m 347 694 l 347 868 l 0 868 l 0 1042 l 694 1042 l 694 868 l 521 868 l 521 694 l 347 694 m 694 1042 l 694 1215 l 868 1215 l 868 1042 l 694 1042 m 347 1215 l 347 1389 l 694 1389 l 694 1215 l 347 1215 m 694 1389 l 694 1563 l 868 1563 l 868 1389 l 694 1389 m 0 1563 l 0 1736 l 694 1736 l 694 1563 l 0 1563 z "},"Қ":{"ha":1215,"x_min":0,"x_max":1042,"o":"m 868 694 l 868 868 l 694 868 l 694 1389 l 868 1389 l 868 1042 l 1042 1042 l 1042 694 l 868 694 m 521 1389 l 521 1563 l 694 1563 l 694 1389 l 521 1389 m 521 1736 l 521 1910 l 694 1910 l 694 1736 l 521 1736 m 0 868 l 0 2083 l 174 2083 l 174 1736 l 521 1736 l 521 1563 l 174 1563 l 174 868 l 0 868 m 694 1910 l 694 2083 l 868 2083 l 868 1910 l 694 1910 z "},"қ":{"ha":868,"x_min":0,"x_max":694,"o":"m 521 868 l 521 1042 l 694 1042 l 694 868 l 521 868 m 347 1042 l 347 1215 l 521 1215 l 521 1042 l 347 1042 m 347 1389 l 347 1563 l 521 1563 l 521 1389 l 347 1389 m 0 868 l 0 1736 l 174 1736 l 174 1389 l 347 1389 l 347 1215 l 174 1215 l 174 868 l 0 868 m 521 1563 l 521 1736 l 694 1736 l 694 1563 l 521 1563 z "},"Ҝ":{"ha":1042,"x_min":0,"x_max":868,"o":"m 694 868 l 694 1563 l 868 1563 l 868 868 l 694 868 m 0 868 l 0 2083 l 174 2083 l 174 1736 l 347 1736 l 347 1910 l 521 1910 l 521 1736 l 694 1736 l 694 1563 l 521 1563 l 521 1389 l 347 1389 l 347 1563 l 174 1563 l 174 868 l 0 868 m 694 1736 l 694 2083 l 868 2083 l 868 1736 l 694 1736 z "},"ҝ":{"ha":1042,"x_min":0,"x_max":868,"o":"m 694 868 l 694 1215 l 868 1215 l 868 868 l 694 868 m 0 868 l 0 1736 l 174 1736 l 174 1389 l 347 1389 l 347 1563 l 521 1563 l 521 1389 l 694 1389 l 694 1215 l 521 1215 l 521 1042 l 347 1042 l 347 1215 l 174 1215 l 174 868 l 0 868 m 694 1389 l 694 1736 l 868 1736 l 868 1389 l 694 1389 z "},"Ҡ":{"ha":1215,"x_min":0,"x_max":1042,"o":"m 868 868 l 868 1389 l 1042 1389 l 1042 868 l 868 868 m 694 1389 l 694 1563 l 868 1563 l 868 1389 l 694 1389 m 694 1736 l 694 1910 l 868 1910 l 868 1736 l 694 1736 m 174 868 l 174 1910 l 0 1910 l 0 2083 l 347 2083 l 347 1736 l 694 1736 l 694 1563 l 347 1563 l 347 868 l 174 868 m 868 1910 l 868 2083 l 1042 2083 l 1042 1910 l 868 1910 z "},"ҡ":{"ha":1042,"x_min":0,"x_max":868,"o":"m 694 868 l 694 1042 l 868 1042 l 868 868 l 694 868 m 521 1042 l 521 1215 l 694 1215 l 694 1042 l 521 1042 m 521 1389 l 521 1563 l 694 1563 l 694 1389 l 521 1389 m 174 868 l 174 1563 l 0 1563 l 0 1736 l 347 1736 l 347 1389 l 521 1389 l 521 1215 l 347 1215 l 347 868 l 174 868 m 694 1563 l 694 1736 l 868 1736 l 868 1563 l 694 1563 z "},"Ң":{"ha":1215,"x_min":0,"x_max":1042,"o":"m 868 694 l 868 868 l 694 868 l 694 1563 l 174 1563 l 174 868 l 0 868 l 0 2083 l 174 2083 l 174 1736 l 694 1736 l 694 2083 l 868 2083 l 868 1042 l 1042 1042 l 1042 694 l 868 694 z "},"ң":{"ha":1215,"x_min":0,"x_max":1042,"o":"m 868 694 l 868 868 l 694 868 l 694 1215 l 174 1215 l 174 868 l 0 868 l 0 1736 l 174 1736 l 174 1389 l 694 1389 l 694 1736 l 868 1736 l 868 1042 l 1042 1042 l 1042 694 l 868 694 z "},"Ҫ":{"ha":1042,"x_min":0,"x_max":868,"o":"m 347 694 l 347 868 l 174 868 l 174 1042 l 694 1042 l 694 868 l 521 868 l 521 694 l 347 694 m 694 1042 l 694 1215 l 868 1215 l 868 1042 l 694 1042 m 0 1042 l 0 1910 l 174 1910 l 174 1042 l 0 1042 m 694 1736 l 694 1910 l 868 1910 l 868 1736 l 694 1736 m 174 1910 l 174 2083 l 694 2083 l 694 1910 l 174 1910 z "},"ҫ":{"ha":1042,"x_min":0,"x_max":868,"o":"m 347 694 l 347 868 l 174 868 l 174 1042 l 694 1042 l 694 868 l 521 868 l 521 694 l 347 694 m 694 1042 l 694 1215 l 868 1215 l 868 1042 l 694 1042 m 0 1042 l 0 1563 l 174 1563 l 174 1042 l 0 1042 m 694 1389 l 694 1563 l 868 1563 l 868 1389 l 694 1389 m 174 1563 l 174 1736 l 694 1736 l 694 1563 l 174 1563 z "},"Ү":{"ha":1042,"x_min":0,"x_max":868,"o":"m 347 868 l 347 1736 l 521 1736 l 521 868 l 347 868 m 174 1736 l 174 1910 l 347 1910 l 347 1736 l 174 1736 m 521 1736 l 521 1910 l 694 1910 l 694 1736 l 521 1736 m 0 1910 l 0 2083 l 174 2083 l 174 1910 l 0 1910 m 694 1910 l 694 2083 l 868 2083 l 868 1910 l 694 1910 z "},"ү":{"ha":1042,"x_min":0,"x_max":868,"o":"m 347 694 l 347 1389 l 521 1389 l 521 694 l 347 694 m 174 1389 l 174 1563 l 347 1563 l 347 1389 l 174 1389 m 521 1389 l 521 1563 l 694 1563 l 694 1389 l 521 1389 m 0 1563 l 0 1736 l 174 1736 l 174 1563 l 0 1563 m 694 1563 l 694 1736 l 868 1736 l 868 1563 l 694 1563 z "},"Ұ":{"ha":1042,"x_min":0,"x_max":868,"o":"m 347 868 l 347 1215 l 174 1215 l 174 1389 l 347 1389 l 347 1736 l 521 1736 l 521 1389 l 694 1389 l 694 1215 l 521 1215 l 521 868 l 347 868 m 174 1736 l 174 1910 l 347 1910 l 347 1736 l 174 1736 m 521 1736 l 521 1910 l 694 1910 l 694 1736 l 521 1736 m 0 1910 l 0 2083 l 174 2083 l 174 1910 l 0 1910 m 694 1910 l 694 2083 l 868 2083 l 868 1910 l 694 1910 z "},"ұ":{"ha":1042,"x_min":0,"x_max":868,"o":"m 347 694 l 347 1042 l 174 1042 l 174 1215 l 347 1215 l 347 1389 l 521 1389 l 521 1215 l 694 1215 l 694 1042 l 521 1042 l 521 694 l 347 694 m 174 1389 l 174 1563 l 347 1563 l 347 1389 l 174 1389 m 521 1389 l 521 1563 l 694 1563 l 694 1389 l 521 1389 m 0 1563 l 0 1736 l 174 1736 l 174 1563 l 0 1563 m 694 1563 l 694 1736 l 868 1736 l 868 1563 l 694 1563 z "},"Ҳ":{"ha":1215,"x_min":0,"x_max":1042,"o":"m 0 868 l 0 1389 l 174 1389 l 174 868 l 0 868 m 868 694 l 868 868 l 694 868 l 694 1389 l 868 1389 l 868 1042 l 1042 1042 l 1042 694 l 868 694 m 174 1389 l 174 1563 l 347 1563 l 347 1389 l 174 1389 m 521 1389 l 521 1563 l 694 1563 l 694 1389 l 521 1389 m 347 1563 l 347 1736 l 521 1736 l 521 1563 l 347 1563 m 174 1736 l 174 1910 l 347 1910 l 347 1736 l 174 1736 m 521 1736 l 521 1910 l 694 1910 l 694 1736 l 521 1736 m 0 1910 l 0 2083 l 174 2083 l 174 1910 l 0 1910 m 694 1910 l 694 2083 l 868 2083 l 868 1910 l 694 1910 z "},"ҳ":{"ha":1215,"x_min":0,"x_max":1042,"o":"m 0 868 l 0 1042 l 174 1042 l 174 868 l 0 868 m 868 694 l 868 868 l 694 868 l 694 1042 l 1042 1042 l 1042 694 l 868 694 m 174 1042 l 174 1215 l 347 1215 l 347 1042 l 174 1042 m 521 1042 l 521 1215 l 694 1215 l 694 1042 l 521 1042 m 347 1215 l 347 1389 l 521 1389 l 521 1215 l 347 1215 m 174 1389 l 174 1563 l 347 1563 l 347 1389 l 174 1389 m 521 1389 l 521 1563 l 694 1563 l 694 1389 l 521 1389 m 0 1563 l 0 1736 l 174 1736 l 174 1563 l 0 1563 m 694 1563 l 694 1736 l 868 1736 l 868 1563 l 694 1563 z "},"Ҷ":{"ha":1215,"x_min":0,"x_max":1042,"o":"m 0 1736 l 0 2083 l 174 2083 l 174 1736 l 0 1736 m 868 694 l 868 868 l 694 868 l 694 1563 l 174 1563 l 174 1736 l 694 1736 l 694 2083 l 868 2083 l 868 1042 l 1042 1042 l 1042 694 l 868 694 z "},"ҷ":{"ha":1215,"x_min":0,"x_max":1042,"o":"m 0 1389 l 0 1736 l 174 1736 l 174 1389 l 0 1389 m 868 694 l 868 868 l 694 868 l 694 1215 l 174 1215 l 174 1389 l 694 1389 l 694 1736 l 868 1736 l 868 1042 l 1042 1042 l 1042 694 l 868 694 z "},"Ҹ":{"ha":1042,"x_min":0,"x_max":868,"o":"m 0 1736 l 0 2083 l 174 2083 l 174 1736 l 0 1736 m 694 868 l 694 1563 l 521 1563 l 521 1389 l 347 1389 l 347 1563 l 174 1563 l 174 1736 l 347 1736 l 347 1910 l 521 1910 l 521 1736 l 694 1736 l 694 2083 l 868 2083 l 868 868 l 694 868 z "},"ҹ":{"ha":1042,"x_min":0,"x_max":868,"o":"m 0 1389 l 0 1736 l 174 1736 l 174 1389 l 0 1389 m 694 868 l 694 1215 l 521 1215 l 521 1042 l 347 1042 l 347 1215 l 174 1215 l 174 1389 l 347 1389 l 347 1563 l 521 1563 l 521 1389 l 694 1389 l 694 1736 l 868 1736 l 868 868 l 694 868 z "},"Һ":{"ha":1042,"x_min":0,"x_max":868,"o":"m 694 868 l 694 1563 l 868 1563 l 868 868 l 694 868 m 0 868 l 0 2083 l 174 2083 l 174 1736 l 694 1736 l 694 1563 l 174 1563 l 174 868 l 0 868 z "},"һ":{"ha":1042,"x_min":0,"x_max":868,"o":"m 694 868 l 694 1563 l 868 1563 l 868 868 l 694 868 m 347 1563 l 347 1736 l 694 1736 l 694 1563 l 347 1563 m 0 868 l 0 2083 l 174 2083 l 174 1563 l 347 1563 l 347 1389 l 174 1389 l 174 868 l 0 868 z "},"Ӏ":{"ha":347,"x_min":0,"x_max":174,"o":"m 0 868 l 0 2083 l 174 2083 l 174 868 l 0 868 z "},"Ӂ":{"ha":1042,"x_min":0,"x_max":868,"o":"m 0 868 l 0 1563 l 174 1563 l 174 868 l 0 868 m 694 868 l 694 1563 l 868 1563 l 868 868 l 694 868 m 0 1736 l 0 2083 l 174 2083 l 174 1736 l 0 1736 m 694 1736 l 694 2083 l 868 2083 l 868 1736 l 694 1736 m 347 868 l 347 1563 l 174 1563 l 174 1736 l 347 1736 l 347 2083 l 174 2083 l 174 2431 l 347 2431 l 347 2257 l 521 2257 l 521 2431 l 694 2431 l 694 2083 l 521 2083 l 521 1736 l 694 1736 l 694 1563 l 521 1563 l 521 868 l 347 868 z "},"ӂ":{"ha":1042,"x_min":0,"x_max":868,"o":"m 0 868 l 0 1215 l 174 1215 l 174 868 l 0 868 m 694 868 l 694 1215 l 868 1215 l 868 868 l 694 868 m 0 1389 l 0 1736 l 174 1736 l 174 1389 l 0 1389 m 347 868 l 347 1215 l 174 1215 l 174 1389 l 347 1389 l 347 1736 l 521 1736 l 521 1389 l 694 1389 l 694 1215 l 521 1215 l 521 868 l 347 868 m 694 1389 l 694 1736 l 868 1736 l 868 1389 l 694 1389 m 174 1910 l 174 2257 l 347 2257 l 347 2083 l 521 2083 l 521 2257 l 694 2257 l 694 1910 l 174 1910 z "},"Ӆ":{"ha":1215,"x_min":0,"x_max":1042,"o":"m 694 694 l 694 1910 l 347 1910 l 347 868 l 0 868 l 0 1042 l 174 1042 l 174 2083 l 868 2083 l 868 1042 l 1042 1042 l 1042 868 l 868 868 l 868 694 l 694 694 z "},"ӆ":{"ha":1215,"x_min":0,"x_max":1042,"o":"m 694 694 l 694 1563 l 347 1563 l 347 868 l 0 868 l 0 1042 l 174 1042 l 174 1736 l 868 1736 l 868 1042 l 1042 1042 l 1042 868 l 868 868 l 868 694 l 694 694 z "},"Ӈ":{"ha":1042,"x_min":0,"x_max":868,"o":"m 347 694 l 347 868 l 694 868 l 694 694 l 347 694 m 0 868 l 0 2083 l 174 2083 l 174 1736 l 694 1736 l 694 2083 l 868 2083 l 868 868 l 694 868 l 694 1563 l 174 1563 l 174 868 l 0 868 z "},"ӈ":{"ha":1042,"x_min":0,"x_max":868,"o":"m 347 694 l 347 868 l 694 868 l 694 694 l 347 694 m 0 868 l 0 1736 l 174 1736 l 174 1389 l 694 1389 l 694 1736 l 868 1736 l 868 868 l 694 868 l 694 1215 l 174 1215 l 174 868 l 0 868 z "},"Ӊ":{"ha":1215,"x_min":0,"x_max":1042,"o":"m 694 694 l 694 1563 l 174 1563 l 174 868 l 0 868 l 0 2083 l 174 2083 l 174 1736 l 694 1736 l 694 2083 l 868 2083 l 868 1042 l 1042 1042 l 1042 868 l 868 868 l 868 694 l 694 694 z "},"ӊ":{"ha":1215,"x_min":0,"x_max":1042,"o":"m 694 694 l 694 1215 l 174 1215 l 174 868 l 0 868 l 0 1736 l 174 1736 l 174 1389 l 694 1389 l 694 1736 l 868 1736 l 868 1042 l 1042 1042 l 1042 868 l 868 868 l 868 694 l 694 694 z "},"Ӎ":{"ha":1215,"x_min":0,"x_max":1042,"o":"m 347 1563 l 347 1736 l 521 1736 l 521 1563 l 347 1563 m 0 868 l 0 2083 l 174 2083 l 174 1910 l 347 1910 l 347 1736 l 174 1736 l 174 868 l 0 868 m 694 694 l 694 1736 l 521 1736 l 521 1910 l 694 1910 l 694 2083 l 868 2083 l 868 1042 l 1042 1042 l 1042 868 l 868 868 l 868 694 l 694 694 z "},"ӎ":{"ha":1042,"x_min":0,"x_max":868,"o":"m 347 1215 l 347 1389 l 521 1389 l 521 1215 l 347 1215 m 0 868 l 0 1736 l 174 1736 l 174 1563 l 347 1563 l 347 1389 l 174 1389 l 174 868 l 0 868 m 694 868 l 694 1389 l 521 1389 l 521 1563 l 694 1563 l 694 1736 l 868 1736 l 868 868 l 694 868 z "},"ӏ":{"ha":347,"x_min":0,"x_max":174,"o":"m 0 868 l 0 1736 l 174 1736 l 174 868 l 0 868 z "},"Ӓ":{"ha":1042,"x_min":0,"x_max":868,"o":"m 0 868 l 0 1910 l 174 1910 l 174 1736 l 694 1736 l 694 1910 l 868 1910 l 868 868 l 694 868 l 694 1563 l 174 1563 l 174 868 l 0 868 m 174 1910 l 174 2083 l 694 2083 l 694 1910 l 174 1910 m 174 2257 l 174 2431 l 347 2431 l 347 2257 l 174 2257 m 521 2257 l 521 2431 l 694 2431 l 694 2257 l 521 2257 z "},"ӓ":{"ha":1042,"x_min":0,"x_max":868,"o":"m 0 1042 l 0 1215 l 174 1215 l 174 1042 l 0 1042 m 174 868 l 174 1042 l 694 1042 l 694 1215 l 174 1215 l 174 1389 l 694 1389 l 694 1563 l 868 1563 l 868 868 l 174 868 m 174 1563 l 174 1736 l 694 1736 l 694 1563 l 174 1563 m 174 1910 l 174 2083 l 347 2083 l 347 1910 l 174 1910 m 521 1910 l 521 2083 l 694 2083 l 694 1910 l 521 1910 z "},"Ӕ":{"ha":1736,"x_min":0,"x_max":1563,"o":"m 0 868 l 0 1910 l 174 1910 l 174 1736 l 694 1736 l 694 1910 l 174 1910 l 174 2083 l 1563 2083 l 1563 1910 l 868 1910 l 868 1736 l 1215 1736 l 1215 1563 l 868 1563 l 868 1042 l 1563 1042 l 1563 868 l 694 868 l 694 1563 l 174 1563 l 174 868 l 0 868 z "},"ӕ":{"ha":1736,"x_min":0,"x_max":1563,"o":"m 174 868 l 174 1042 l 694 1042 l 694 868 l 174 868 m 868 868 l 868 1042 l 1563 1042 l 1563 868 l 868 868 m 0 1042 l 0 1215 l 174 1215 l 174 1042 l 0 1042 m 694 1042 l 694 1215 l 174 1215 l 174 1389 l 694 1389 l 694 1563 l 868 1563 l 868 1389 l 1389 1389 l 1389 1563 l 1563 1563 l 1563 1215 l 868 1215 l 868 1042 l 694 1042 m 174 1563 l 174 1736 l 694 1736 l 694 1563 l 174 1563 m 868 1563 l 868 1736 l 1389 1736 l 1389 1563 l 868 1563 z "},"Ә":{"ha":1042,"x_min":0,"x_max":868,"o":"m 174 868 l 174 1042 l 694 1042 l 694 868 l 174 868 m 0 1042 l 0 1736 l 694 1736 l 694 1910 l 868 1910 l 868 1042 l 694 1042 l 694 1563 l 174 1563 l 174 1042 l 0 1042 m 174 1910 l 174 2083 l 694 2083 l 694 1910 l 174 1910 z "},"ә":{"ha":1042,"x_min":0,"x_max":868,"o":"m 174 868 l 174 1042 l 694 1042 l 694 868 l 174 868 m 0 1042 l 0 1389 l 694 1389 l 694 1563 l 868 1563 l 868 1042 l 694 1042 l 694 1215 l 174 1215 l 174 1042 l 0 1042 m 174 1563 l 174 1736 l 694 1736 l 694 1563 l 174 1563 z "},"Ӣ":{"ha":1042,"x_min":0,"x_max":868,"o":"m 347 1563 l 347 1736 l 521 1736 l 521 1563 l 347 1563 m 0 868 l 0 2083 l 174 2083 l 174 1563 l 347 1563 l 347 1389 l 174 1389 l 174 868 l 0 868 m 694 868 l 694 1736 l 521 1736 l 521 1910 l 694 1910 l 694 2083 l 868 2083 l 868 868 l 694 868 m 174 2257 l 174 2431 l 694 2431 l 694 2257 l 174 2257 z "},"ӣ":{"ha":1042,"x_min":0,"x_max":868,"o":"m 347 1215 l 347 1389 l 521 1389 l 521 1215 l 347 1215 m 0 868 l 0 1736 l 174 1736 l 174 1215 l 347 1215 l 347 1042 l 174 1042 l 174 868 l 0 868 m 694 868 l 694 1389 l 521 1389 l 521 1563 l 694 1563 l 694 1736 l 868 1736 l 868 868 l 694 868 m 174 1910 l 174 2083 l 694 2083 l 694 1910 l 174 1910 z "},"Ӥ":{"ha":1042,"x_min":0,"x_max":868,"o":"m 347 1563 l 347 1736 l 521 1736 l 521 1563 l 347 1563 m 0 868 l 0 2083 l 174 2083 l 174 1563 l 347 1563 l 347 1389 l 174 1389 l 174 868 l 0 868 m 694 868 l 694 1736 l 521 1736 l 521 1910 l 694 1910 l 694 2083 l 868 2083 l 868 868 l 694 868 m 174 2257 l 174 2431 l 347 2431 l 347 2257 l 174 2257 m 521 2257 l 521 2431 l 694 2431 l 694 2257 l 521 2257 z "},"ӥ":{"ha":1042,"x_min":0,"x_max":868,"o":"m 347 1215 l 347 1389 l 521 1389 l 521 1215 l 347 1215 m 0 868 l 0 1736 l 174 1736 l 174 1215 l 347 1215 l 347 1042 l 174 1042 l 174 868 l 0 868 m 694 868 l 694 1389 l 521 1389 l 521 1563 l 694 1563 l 694 1736 l 868 1736 l 868 868 l 694 868 m 174 1910 l 174 2083 l 347 2083 l 347 1910 l 174 1910 m 521 1910 l 521 2083 l 694 2083 l 694 1910 l 521 1910 z "},"Ӧ":{"ha":1042,"x_min":0,"x_max":868,"o":"m 174 868 l 174 1042 l 694 1042 l 694 868 l 174 868 m 0 1042 l 0 1910 l 174 1910 l 174 1042 l 0 1042 m 694 1042 l 694 1910 l 868 1910 l 868 1042 l 694 1042 m 174 1910 l 174 2083 l 694 2083 l 694 1910 l 174 1910 m 174 2257 l 174 2431 l 347 2431 l 347 2257 l 174 2257 m 521 2257 l 521 2431 l 694 2431 l 694 2257 l 521 2257 z "},"ӧ":{"ha":1042,"x_min":0,"x_max":868,"o":"m 174 868 l 174 1042 l 694 1042 l 694 868 l 174 868 m 0 1042 l 0 1563 l 174 1563 l 174 1042 l 0 1042 m 694 1042 l 694 1563 l 868 1563 l 868 1042 l 694 1042 m 174 1563 l 174 1736 l 694 1736 l 694 1563 l 174 1563 m 174 1910 l 174 2083 l 347 2083 l 347 1910 l 174 1910 m 521 1910 l 521 2083 l 694 2083 l 694 1910 l 521 1910 z "},"Ө":{"ha":1042,"x_min":0,"x_max":868,"o":"m 174 868 l 174 1042 l 694 1042 l 694 868 l 174 868 m 0 1042 l 0 1910 l 174 1910 l 174 1563 l 694 1563 l 694 1910 l 868 1910 l 868 1042 l 694 1042 l 694 1389 l 174 1389 l 174 1042 l 0 1042 m 174 1910 l 174 2083 l 694 2083 l 694 1910 l 174 1910 z "},"ө":{"ha":1042,"x_min":0,"x_max":868,"o":"m 174 868 l 174 1042 l 694 1042 l 694 868 l 174 868 m 0 1042 l 0 1563 l 174 1563 l 174 1389 l 694 1389 l 694 1563 l 868 1563 l 868 1042 l 694 1042 l 694 1215 l 174 1215 l 174 1042 l 0 1042 m 174 1563 l 174 1736 l 694 1736 l 694 1563 l 174 1563 z "},"Ӭ":{"ha":1042,"x_min":0,"x_max":868,"o":"m 174 868 l 174 1042 l 694 1042 l 694 868 l 174 868 m 0 1042 l 0 1215 l 174 1215 l 174 1042 l 0 1042 m 0 1736 l 0 1910 l 174 1910 l 174 1736 l 0 1736 m 694 1042 l 694 1563 l 347 1563 l 347 1736 l 694 1736 l 694 1910 l 868 1910 l 868 1042 l 694 1042 m 174 1910 l 174 2083 l 694 2083 l 694 1910 l 174 1910 m 174 2257 l 174 2431 l 347 2431 l 347 2257 l 174 2257 m 521 2257 l 521 2431 l 694 2431 l 694 2257 l 521 2257 z "},"ӭ":{"ha":1042,"x_min":0,"x_max":868,"o":"m 174 868 l 174 1042 l 694 1042 l 694 868 l 174 868 m 0 1042 l 0 1215 l 174 1215 l 174 1042 l 0 1042 m 0 1389 l 0 1563 l 174 1563 l 174 1389 l 0 1389 m 694 1042 l 694 1215 l 347 1215 l 347 1389 l 694 1389 l 694 1563 l 868 1563 l 868 1042 l 694 1042 m 174 1563 l 174 1736 l 694 1736 l 694 1563 l 174 1563 z "},"Ӯ":{"ha":1042,"x_min":0,"x_max":868,"o":"m 0 868 l 0 1042 l 521 1042 l 521 868 l 0 868 m 521 1042 l 521 1215 l 694 1215 l 694 1042 l 521 1042 m 0 1736 l 0 2083 l 174 2083 l 174 1736 l 0 1736 m 694 1215 l 694 1563 l 174 1563 l 174 1736 l 694 1736 l 694 2083 l 868 2083 l 868 1215 l 694 1215 m 174 2257 l 174 2431 l 694 2431 l 694 2257 l 174 2257 z "},"ӯ":{"ha":1042,"x_min":0,"x_max":868,"o":"m 0 694 l 0 868 l 694 868 l 694 694 l 0 694 m 0 1215 l 0 1736 l 174 1736 l 174 1215 l 0 1215 m 694 868 l 694 1042 l 174 1042 l 174 1215 l 694 1215 l 694 1736 l 868 1736 l 868 868 l 694 868 m 174 1910 l 174 2083 l 694 2083 l 694 1910 l 174 1910 z "},"Ӱ":{"ha":1042,"x_min":0,"x_max":868,"o":"m 0 868 l 0 1042 l 521 1042 l 521 868 l 0 868 m 521 1042 l 521 1215 l 694 1215 l 694 1042 l 521 1042 m 0 1736 l 0 2083 l 174 2083 l 174 1736 l 0 1736 m 694 1215 l 694 1563 l 174 1563 l 174 1736 l 694 1736 l 694 2083 l 868 2083 l 868 1215 l 694 1215 m 174 2257 l 174 2431 l 347 2431 l 347 2257 l 174 2257 m 521 2257 l 521 2431 l 694 2431 l 694 2257 l 521 2257 z "},"ӱ":{"ha":1042,"x_min":0,"x_max":868,"o":"m 0 694 l 0 868 l 694 868 l 694 694 l 0 694 m 0 1215 l 0 1736 l 174 1736 l 174 1215 l 0 1215 m 694 868 l 694 1042 l 174 1042 l 174 1215 l 694 1215 l 694 1736 l 868 1736 l 868 868 l 694 868 m 174 1910 l 174 2083 l 347 2083 l 347 1910 l 174 1910 m 521 1910 l 521 2083 l 694 2083 l 694 1910 l 521 1910 z "},"Ẁ":{"ha":1042,"x_min":0,"x_max":868,"o":"m 347 1215 l 347 1389 l 521 1389 l 521 1215 l 347 1215 m 0 868 l 0 2083 l 174 2083 l 174 1215 l 347 1215 l 347 1042 l 174 1042 l 174 868 l 0 868 m 694 868 l 694 1042 l 521 1042 l 521 1215 l 694 1215 l 694 2083 l 868 2083 l 868 868 l 694 868 m 347 2083 l 347 2257 l 521 2257 l 521 2083 l 347 2083 m 174 2257 l 174 2431 l 347 2431 l 347 2257 l 174 2257 z "},"ẁ":{"ha":1042,"x_min":0,"x_max":868,"o":"m 0 1042 l 0 1736 l 174 1736 l 174 1042 l 0 1042 m 174 868 l 174 1042 l 347 1042 l 347 1389 l 521 1389 l 521 1042 l 694 1042 l 694 1736 l 868 1736 l 868 868 l 174 868 m 347 1910 l 347 2083 l 521 2083 l 521 1910 l 347 1910 m 174 2083 l 174 2257 l 347 2257 l 347 2083 l 174 2083 z "},"Ẃ":{"ha":1042,"x_min":0,"x_max":868,"o":"m 347 1215 l 347 1389 l 521 1389 l 521 1215 l 347 1215 m 0 868 l 0 2083 l 174 2083 l 174 1215 l 347 1215 l 347 1042 l 174 1042 l 174 868 l 0 868 m 694 868 l 694 1042 l 521 1042 l 521 1215 l 694 1215 l 694 2083 l 868 2083 l 868 868 l 694 868 m 347 2083 l 347 2257 l 521 2257 l 521 2083 l 347 2083 m 521 2257 l 521 2431 l 694 2431 l 694 2257 l 521 2257 z "},"ẃ":{"ha":1042,"x_min":0,"x_max":868,"o":"m 0 1042 l 0 1736 l 174 1736 l 174 1042 l 0 1042 m 174 868 l 174 1042 l 347 1042 l 347 1389 l 521 1389 l 521 1042 l 694 1042 l 694 1736 l 868 1736 l 868 868 l 174 868 m 347 1910 l 347 2083 l 521 2083 l 521 1910 l 347 1910 m 521 2083 l 521 2257 l 694 2257 l 694 2083 l 521 2083 z "},"Ẅ":{"ha":1042,"x_min":0,"x_max":868,"o":"m 347 1215 l 347 1389 l 521 1389 l 521 1215 l 347 1215 m 0 868 l 0 2083 l 174 2083 l 174 1215 l 347 1215 l 347 1042 l 174 1042 l 174 868 l 0 868 m 694 868 l 694 1042 l 521 1042 l 521 1215 l 694 1215 l 694 2083 l 868 2083 l 868 868 l 694 868 m 174 2257 l 174 2431 l 347 2431 l 347 2257 l 174 2257 m 521 2257 l 521 2431 l 694 2431 l 694 2257 l 521 2257 z "},"ẅ":{"ha":1042,"x_min":0,"x_max":868,"o":"m 0 1042 l 0 1736 l 174 1736 l 174 1042 l 0 1042 m 174 868 l 174 1042 l 347 1042 l 347 1389 l 521 1389 l 521 1042 l 694 1042 l 694 1736 l 868 1736 l 868 868 l 174 868 m 174 1910 l 174 2083 l 347 2083 l 347 1910 l 174 1910 m 521 1910 l 521 2083 l 694 2083 l 694 1910 l 521 1910 z "},"ẞ":{"ha":1042,"x_min":0,"x_max":868,"o":"m 347 868 l 347 1042 l 694 1042 l 694 868 l 347 868 m 694 1042 l 694 1563 l 868 1563 l 868 1042 l 694 1042 m 0 868 l 0 2083 l 868 2083 l 868 1910 l 694 1910 l 694 1563 l 347 1563 l 347 1736 l 521 1736 l 521 1910 l 174 1910 l 174 868 l 0 868 z "},"Ỳ":{"ha":1042,"x_min":0,"x_max":868,"o":"m 347 868 l 347 1736 l 521 1736 l 521 868 l 347 868 m 174 1736 l 174 1910 l 347 1910 l 347 1736 l 174 1736 m 521 1736 l 521 1910 l 694 1910 l 694 1736 l 521 1736 m 0 1910 l 0 2083 l 174 2083 l 174 1910 l 0 1910 m 694 1910 l 694 2083 l 868 2083 l 868 1910 l 694 1910 m 347 2083 l 347 2257 l 521 2257 l 521 2083 l 347 2083 m 174 2257 l 174 2431 l 347 2431 l 347 2257 l 174 2257 z "},"ỳ":{"ha":1042,"x_min":0,"x_max":868,"o":"m 0 694 l 0 868 l 694 868 l 694 694 l 0 694 m 0 1215 l 0 1736 l 174 1736 l 174 1215 l 0 1215 m 694 868 l 694 1042 l 174 1042 l 174 1215 l 694 1215 l 694 1736 l 868 1736 l 868 868 l 694 868 m 347 1910 l 347 2083 l 521 2083 l 521 1910 l 347 1910 m 174 2083 l 174 2257 l 347 2257 l 347 2083 l 174 2083 z "},"‘":{"ha":521,"x_min":0,"x_max":347,"o":"m 0 1563 l 0 1910 l 174 1910 l 174 1563 l 0 1563 m 174 1910 l 174 2083 l 347 2083 l 347 1910 l 174 1910 z "},"’":{"ha":521,"x_min":0,"x_max":347,"o":"m 0 1563 l 0 1736 l 174 1736 l 174 1563 l 0 1563 m 174 1736 l 174 2083 l 347 2083 l 347 1736 l 174 1736 z "},"‚":{"ha":521,"x_min":0,"x_max":347,"o":"m 0 694 l 0 868 l 174 868 l 174 694 l 0 694 m 174 868 l 174 1215 l 347 1215 l 347 868 l 174 868 z "},"‛":{"ha":521,"x_min":0,"x_max":347,"o":"m 174 1563 l 174 1736 l 347 1736 l 347 1563 l 174 1563 m 0 1736 l 0 2083 l 174 2083 l 174 1736 l 0 1736 z "},"“":{"ha":868,"x_min":0,"x_max":694,"o":"m 0 1563 l 0 1910 l 174 1910 l 174 1563 l 0 1563 m 347 1563 l 347 1910 l 521 1910 l 521 1563 l 347 1563 m 174 1910 l 174 2083 l 347 2083 l 347 1910 l 174 1910 m 521 1910 l 521 2083 l 694 2083 l 694 1910 l 521 1910 z "},"”":{"ha":868,"x_min":0,"x_max":694,"o":"m 0 1563 l 0 1736 l 174 1736 l 174 1563 l 0 1563 m 347 1563 l 347 1736 l 521 1736 l 521 1563 l 347 1563 m 174 1736 l 174 2083 l 347 2083 l 347 1736 l 174 1736 m 521 1736 l 521 2083 l 694 2083 l 694 1736 l 521 1736 z "},"„":{"ha":868,"x_min":0,"x_max":694,"o":"m 0 694 l 0 868 l 174 868 l 174 694 l 0 694 m 347 694 l 347 868 l 521 868 l 521 694 l 347 694 m 174 868 l 174 1215 l 347 1215 l 347 868 l 174 868 m 521 868 l 521 1215 l 694 1215 l 694 868 l 521 868 z "},"‟":{"ha":868,"x_min":0,"x_max":694,"o":"m 174 1563 l 174 1736 l 347 1736 l 347 1563 l 174 1563 m 521 1563 l 521 1736 l 694 1736 l 694 1563 l 521 1563 m 0 1736 l 0 2083 l 174 2083 l 174 1736 l 0 1736 m 347 1736 l 347 2083 l 521 2083 l 521 1736 l 347 1736 z "},"†":{"ha":694,"x_min":0,"x_max":521,"o":"m 174 1042 l 174 1736 l 0 1736 l 0 1910 l 174 1910 l 174 2083 l 347 2083 l 347 1910 l 521 1910 l 521 1736 l 347 1736 l 347 1042 l 174 1042 z "},"‡":{"ha":694,"x_min":0,"x_max":521,"o":"m 174 1042 l 174 1215 l 0 1215 l 0 1389 l 174 1389 l 174 1736 l 0 1736 l 0 1910 l 174 1910 l 174 2083 l 347 2083 l 347 1910 l 521 1910 l 521 1736 l 347 1736 l 347 1389 l 521 1389 l 521 1215 l 347 1215 l 347 1042 l 174 1042 z "},"•":{"ha":521,"x_min":0,"x_max":347,"o":"m 0 1215 l 0 1563 l 347 1563 l 347 1215 l 0 1215 z "},"‣":{"ha":694,"x_min":0,"x_max":521,"o":"m 0 868 l 0 1736 l 174 1736 l 174 1563 l 347 1563 l 347 1389 l 521 1389 l 521 1215 l 347 1215 l 347 1042 l 174 1042 l 174 868 l 0 868 z "},"…":{"ha":1042,"x_min":0,"x_max":868,"o":"m 0 868 l 0 1215 l 174 1215 l 174 868 l 0 868 m 347 868 l 347 1215 l 521 1215 l 521 868 l 347 868 m 694 868 l 694 1215 l 868 1215 l 868 868 l 694 868 z "},"‰":{"ha":1389,"x_min":0,"x_max":1215,"o":"m 0 868 l 0 1042 l 174 1042 l 174 868 l 0 868 m 694 868 l 694 1215 l 868 1215 l 868 868 l 694 868 m 1042 868 l 1042 1215 l 1215 1215 l 1215 868 l 1042 868 m 174 1042 l 174 1389 l 347 1389 l 347 1042 l 174 1042 m 347 1389 l 347 1563 l 521 1563 l 521 1389 l 347 1389 m 521 1563 l 521 1910 l 694 1910 l 694 1563 l 521 1563 m 0 1736 l 0 2083 l 174 2083 l 174 1736 l 0 1736 m 694 1910 l 694 2083 l 868 2083 l 868 1910 l 694 1910 z "},"′":{"ha":694,"x_min":0,"x_max":521,"o":"m 0 1563 l 0 1736 l 174 1736 l 174 1563 l 0 1563 m 174 1736 l 174 1910 l 347 1910 l 347 1736 l 174 1736 m 347 1910 l 347 2083 l 521 2083 l 521 1910 l 347 1910 z "},"″":{"ha":1042,"x_min":0,"x_max":868,"o":"m 0 1563 l 0 1736 l 174 1736 l 174 1563 l 0 1563 m 347 1563 l 347 1736 l 521 1736 l 521 1563 l 347 1563 m 174 1736 l 174 1910 l 347 1910 l 347 1736 l 174 1736 m 521 1736 l 521 1910 l 694 1910 l 694 1736 l 521 1736 m 347 1910 l 347 2083 l 521 2083 l 521 1910 l 347 1910 m 694 1910 l 694 2083 l 868 2083 l 868 1910 l 694 1910 z "},"‵":{"ha":694,"x_min":0,"x_max":521,"o":"m 347 1563 l 347 1736 l 521 1736 l 521 1563 l 347 1563 m 174 1736 l 174 1910 l 347 1910 l 347 1736 l 174 1736 m 0 1910 l 0 2083 l 174 2083 l 174 1910 l 0 1910 z "},"‶":{"ha":1042,"x_min":0,"x_max":868,"o":"m 347 1563 l 347 1736 l 521 1736 l 521 1563 l 347 1563 m 694 1563 l 694 1736 l 868 1736 l 868 1563 l 694 1563 m 174 1736 l 174 1910 l 347 1910 l 347 1736 l 174 1736 m 521 1736 l 521 1910 l 694 1910 l 694 1736 l 521 1736 m 0 1910 l 0 2083 l 174 2083 l 174 1910 l 0 1910 m 347 1910 l 347 2083 l 521 2083 l 521 1910 l 347 1910 z "},"‹":{"ha":521,"x_min":0,"x_max":347,"o":"m 174 868 l 174 1042 l 347 1042 l 347 868 l 174 868 m 0 1042 l 0 1389 l 174 1389 l 174 1042 l 0 1042 m 174 1389 l 174 1563 l 347 1563 l 347 1389 l 174 1389 z "},"›":{"ha":521,"x_min":0,"x_max":347,"o":"m 0 868 l 0 1042 l 174 1042 l 174 868 l 0 868 m 174 1042 l 174 1389 l 347 1389 l 347 1042 l 174 1042 m 0 1389 l 0 1563 l 174 1563 l 174 1389 l 0 1389 z "},"⁄":{"ha":694,"x_min":-347,"x_max":521,"o":"m -347 868 l -347 1042 l -174 1042 l -174 868 l -347 868 m -174 1042 l -174 1389 l 0 1389 l 0 1042 l -174 1042 m 0 1389 l 0 1563 l 174 1563 l 174 1389 l 0 1389 m 174 1563 l 174 1910 l 347 1910 l 347 1563 l 174 1563 m 347 1910 l 347 2083 l 521 2083 l 521 1910 l 347 1910 z "},"⁰":{"ha":694,"x_min":0,"x_max":521,"o":"m 174 1389 l 174 1563 l 347 1563 l 347 1389 l 174 1389 m 0 1563 l 0 1910 l 174 1910 l 174 1563 l 0 1563 m 347 1563 l 347 1910 l 521 1910 l 521 1563 l 347 1563 m 174 1910 l 174 2083 l 347 2083 l 347 1910 l 174 1910 z "},"ⁱ":{"ha":347,"x_min":0,"x_max":174,"o":"m 0 1389 l 0 1736 l 174 1736 l 174 1389 l 0 1389 m 0 1910 l 0 2083 l 174 2083 l 174 1910 l 0 1910 z "},"⁴":{"ha":694,"x_min":0,"x_max":521,"o":"m 347 1389 l 347 1563 l 0 1563 l 0 1910 l 174 1910 l 174 1736 l 347 1736 l 347 1910 l 174 1910 l 174 2083 l 521 2083 l 521 1389 l 347 1389 z "},"⁵":{"ha":694,"x_min":0,"x_max":521,"o":"m 0 1389 l 0 1563 l 347 1563 l 347 1389 l 0 1389 m 347 1563 l 347 1736 l 521 1736 l 521 1563 l 347 1563 m 0 1736 l 0 2083 l 521 2083 l 521 1910 l 347 1910 l 347 1736 l 0 1736 z "},"⁶":{"ha":694,"x_min":0,"x_max":521,"o":"m 174 1389 l 174 1563 l 347 1563 l 347 1389 l 174 1389 m 347 1563 l 347 1736 l 521 1736 l 521 1563 l 347 1563 m 0 1563 l 0 1910 l 174 1910 l 174 2083 l 521 2083 l 521 1910 l 347 1910 l 347 1736 l 174 1736 l 174 1563 l 0 1563 z "},"⁷":{"ha":694,"x_min":0,"x_max":521,"o":"m 0 1389 l 0 1563 l 174 1563 l 174 1389 l 0 1389 m 174 1563 l 174 1736 l 347 1736 l 347 1563 l 174 1563 m 347 1736 l 347 1910 l 0 1910 l 0 2083 l 521 2083 l 521 1736 l 347 1736 z "},"⁸":{"ha":694,"x_min":0,"x_max":521,"o":"m 174 1389 l 174 1563 l 347 1563 l 347 1389 l 174 1389 m 0 1563 l 0 1910 l 174 1910 l 174 2083 l 347 2083 l 347 1910 l 521 1910 l 521 1563 l 347 1563 l 347 1736 l 174 1736 l 174 1563 l 0 1563 z "},"⁹":{"ha":694,"x_min":0,"x_max":521,"o":"m 0 1736 l 0 1910 l 174 1910 l 174 1736 l 0 1736 m 0 1389 l 0 1563 l 174 1563 l 174 1736 l 347 1736 l 347 1910 l 521 1910 l 521 1563 l 347 1563 l 347 1389 l 0 1389 m 174 1910 l 174 2083 l 347 2083 l 347 1910 l 174 1910 z "},"₀":{"ha":694,"x_min":0,"x_max":521,"o":"m 174 868 l 174 1042 l 347 1042 l 347 868 l 174 868 m 0 1042 l 0 1389 l 174 1389 l 174 1042 l 0 1042 m 347 1042 l 347 1389 l 521 1389 l 521 1042 l 347 1042 m 174 1389 l 174 1563 l 347 1563 l 347 1389 l 174 1389 z "},"₁":{"ha":694,"x_min":0,"x_max":521,"o":"m 0 868 l 0 1042 l 174 1042 l 174 1215 l 0 1215 l 0 1389 l 174 1389 l 174 1563 l 347 1563 l 347 1042 l 521 1042 l 521 868 l 0 868 z "},"₂":{"ha":694,"x_min":0,"x_max":521,"o":"m 0 868 l 0 1042 l 174 1042 l 174 1215 l 347 1215 l 347 1042 l 521 1042 l 521 868 l 0 868 m 347 1215 l 347 1389 l 521 1389 l 521 1215 l 347 1215 m 0 1389 l 0 1563 l 347 1563 l 347 1389 l 0 1389 z "},"₃":{"ha":694,"x_min":0,"x_max":521,"o":"m 0 868 l 0 1042 l 347 1042 l 347 868 l 0 868 m 347 1042 l 347 1215 l 174 1215 l 174 1389 l 0 1389 l 0 1563 l 347 1563 l 347 1389 l 521 1389 l 521 1042 l 347 1042 z "},"₄":{"ha":694,"x_min":0,"x_max":521,"o":"m 347 868 l 347 1042 l 0 1042 l 0 1389 l 174 1389 l 174 1215 l 347 1215 l 347 1389 l 174 1389 l 174 1563 l 521 1563 l 521 868 l 347 868 z "},"₅":{"ha":694,"x_min":0,"x_max":521,"o":"m 0 868 l 0 1042 l 347 1042 l 347 868 l 0 868 m 347 1042 l 347 1215 l 521 1215 l 521 1042 l 347 1042 m 0 1215 l 0 1563 l 521 1563 l 521 1389 l 347 1389 l 347 1215 l 0 1215 z "},"₆":{"ha":694,"x_min":0,"x_max":521,"o":"m 174 868 l 174 1042 l 347 1042 l 347 868 l 174 868 m 347 1042 l 347 1215 l 521 1215 l 521 1042 l 347 1042 m 0 1042 l 0 1389 l 174 1389 l 174 1563 l 521 1563 l 521 1389 l 347 1389 l 347 1215 l 174 1215 l 174 1042 l 0 1042 z "},"₇":{"ha":694,"x_min":0,"x_max":521,"o":"m 0 868 l 0 1042 l 174 1042 l 174 868 l 0 868 m 174 1042 l 174 1215 l 347 1215 l 347 1042 l 174 1042 m 347 1215 l 347 1389 l 0 1389 l 0 1563 l 521 1563 l 521 1215 l 347 1215 z "},"₈":{"ha":694,"x_min":0,"x_max":521,"o":"m 174 868 l 174 1042 l 347 1042 l 347 868 l 174 868 m 0 1042 l 0 1389 l 174 1389 l 174 1563 l 347 1563 l 347 1389 l 521 1389 l 521 1042 l 347 1042 l 347 1215 l 174 1215 l 174 1042 l 0 1042 z "},"₉":{"ha":694,"x_min":0,"x_max":521,"o":"m 0 1215 l 0 1389 l 174 1389 l 174 1215 l 0 1215 m 0 868 l 0 1042 l 174 1042 l 174 1215 l 347 1215 l 347 1389 l 521 1389 l 521 1042 l 347 1042 l 347 868 l 0 868 m 174 1389 l 174 1563 l 347 1563 l 347 1389 l 174 1389 z "},"₩":{"ha":1042,"x_min":0,"x_max":868,"o":"m 694 1563 l 694 1736 l 174 1736 l 174 1563 l 694 1563 m 0 868 l 0 2083 l 174 2083 l 174 1910 l 694 1910 l 694 2083 l 868 2083 l 868 868 l 694 868 l 694 1042 l 521 1042 l 521 1215 l 694 1215 l 694 1389 l 521 1389 l 521 1215 l 347 1215 l 347 1389 l 174 1389 l 174 1215 l 347 1215 l 347 1042 l 174 1042 l 174 868 l 0 868 z "},"€":{"ha":1042,"x_min":0,"x_max":868,"o":"m 174 868 l 174 1042 l 694 1042 l 694 868 l 174 868 m 694 1042 l 694 1215 l 868 1215 l 868 1042 l 694 1042 m 0 1042 l 0 1910 l 174 1910 l 174 1736 l 521 1736 l 521 1563 l 174 1563 l 174 1389 l 521 1389 l 521 1215 l 174 1215 l 174 1042 l 0 1042 m 694 1736 l 694 1910 l 868 1910 l 868 1736 l 694 1736 m 174 1910 l 174 2083 l 694 2083 l 694 1910 l 174 1910 z "},"₮":{"ha":1042,"x_min":0,"x_max":868,"o":"m 0 868 l 0 1042 l 174 1042 l 174 868 l 0 868 m 0 1215 l 0 1389 l 174 1389 l 174 1215 l 0 1215 m 694 1389 l 694 1563 l 868 1563 l 868 1389 l 694 1389 m 347 868 l 347 1042 l 174 1042 l 174 1215 l 347 1215 l 347 1389 l 174 1389 l 174 1563 l 347 1563 l 347 1910 l 0 1910 l 0 2083 l 868 2083 l 868 1736 l 694 1736 l 694 1910 l 521 1910 l 521 1736 l 694 1736 l 694 1563 l 521 1563 l 521 1389 l 694 1389 l 694 1215 l 521 1215 l 521 868 l 347 868 z "},"₱":{"ha":1042,"x_min":0,"x_max":868,"o":"m 0 868 l 0 2083 l 694 2083 l 694 1910 l 174 1910 l 174 1736 l 694 1736 l 694 1910 l 868 1910 l 868 1215 l 694 1215 l 694 1389 l 174 1389 l 174 1215 l 694 1215 l 694 1042 l 174 1042 l 174 868 l 0 868 z "},"₴":{"ha":1042,"x_min":0,"x_max":868,"o":"m 174 868 l 174 1042 l 868 1042 l 868 868 l 174 868 m 0 1042 l 0 1563 l 174 1563 l 174 1389 l 868 1389 l 868 1215 l 174 1215 l 174 1042 l 0 1042 m 174 1563 l 174 1736 l 694 1736 l 694 1910 l 868 1910 l 868 1563 l 174 1563 m 0 1910 l 0 2083 l 694 2083 l 694 1910 l 0 1910 z "},"₸":{"ha":1042,"x_min":0,"x_max":868,"o":"m 347 868 l 347 1563 l 0 1563 l 0 1736 l 868 1736 l 868 1563 l 521 1563 l 521 868 l 347 868 m 0 1910 l 0 2083 l 868 2083 l 868 1910 l 0 1910 z "},"₹":{"ha":1042,"x_min":0,"x_max":868,"o":"m 694 868 l 694 1215 l 868 1215 l 868 868 l 694 868 m 0 1215 l 0 1389 l 694 1389 l 694 1215 l 0 1215 m 694 1389 l 694 1563 l 0 1563 l 0 1736 l 694 1736 l 694 1910 l 868 1910 l 868 1389 l 694 1389 m 0 1910 l 0 2083 l 694 2083 l 694 1910 l 0 1910 z "},"₺":{"ha":1042,"x_min":0,"x_max":868,"o":"m 694 1042 l 694 1389 l 868 1389 l 868 1042 l 694 1042 m 347 1389 l 347 1563 l 521 1563 l 521 1389 l 347 1389 m 521 1563 l 521 1736 l 694 1736 l 694 1563 l 521 1563 m 347 1736 l 347 1910 l 521 1910 l 521 1736 l 347 1736 m 0 868 l 0 2083 l 174 2083 l 174 1736 l 347 1736 l 347 1563 l 174 1563 l 174 1389 l 347 1389 l 347 1215 l 174 1215 l 174 1042 l 694 1042 l 694 868 l 0 868 m 521 1910 l 521 2083 l 694 2083 l 694 1910 l 521 1910 z "},"℅":{"ha":1389,"x_min":0,"x_max":1215,"o":"m 174 868 l 174 1042 l 347 1042 l 347 868 l 174 868 m 868 868 l 868 1042 l 1042 1042 l 1042 868 l 868 868 m 694 1042 l 694 1215 l 868 1215 l 868 1042 l 694 1042 m 1042 1042 l 1042 1215 l 1215 1215 l 1215 1042 l 1042 1042 m 347 1042 l 347 1389 l 521 1389 l 521 1042 l 347 1042 m 868 1215 l 868 1389 l 1042 1389 l 1042 1215 l 868 1215 m 521 1389 l 521 1563 l 694 1563 l 694 1389 l 521 1389 m 174 1563 l 174 1736 l 521 1736 l 521 1563 l 174 1563 m 0 1736 l 0 1910 l 174 1910 l 174 1736 l 0 1736 m 694 1563 l 694 1910 l 868 1910 l 868 1563 l 694 1563 m 174 1910 l 174 2083 l 521 2083 l 521 1910 l 174 1910 m 868 1910 l 868 2083 l 1042 2083 l 1042 1910 l 868 1910 z "},"ℓ":{"ha":868,"x_min":0,"x_max":694,"o":"m 347 868 l 347 1042 l 694 1042 l 694 868 l 347 868 m 174 1042 l 174 1215 l 0 1215 l 0 1389 l 174 1389 l 174 1910 l 347 1910 l 347 1389 l 521 1389 l 521 1215 l 347 1215 l 347 1042 l 174 1042 m 521 1389 l 521 1910 l 694 1910 l 694 1389 l 521 1389 m 347 1910 l 347 2083 l 521 2083 l 521 1910 l 347 1910 z "},"№":{"ha":1563,"x_min":0,"x_max":1389,"o":"m 868 1042 l 868 1215 l 1389 1215 l 1389 1042 l 868 1042 m 1042 1389 l 1042 1563 l 1215 1563 l 1215 1389 l 1042 1389 m 868 1563 l 868 1910 l 1042 1910 l 1042 1563 l 868 1563 m 1215 1563 l 1215 1910 l 1389 1910 l 1389 1563 l 1215 1563 m 0 868 l 0 2083 l 174 2083 l 174 1910 l 347 1910 l 347 1736 l 174 1736 l 174 868 l 0 868 m 521 868 l 521 1563 l 347 1563 l 347 1736 l 521 1736 l 521 2083 l 694 2083 l 694 868 l 521 868 m 1042 1910 l 1042 2083 l 1215 2083 l 1215 1910 l 1042 1910 z "},"℗":{"ha":1389,"x_min":0,"x_max":1215,"o":"m 174 868 l 174 1042 l 1042 1042 l 1042 868 l 174 868 m 347 1215 l 347 1736 l 868 1736 l 868 1389 l 521 1389 l 521 1215 l 347 1215 m 0 1042 l 0 1910 l 174 1910 l 174 1042 l 0 1042 m 1042 1042 l 1042 1910 l 1215 1910 l 1215 1042 l 1042 1042 m 174 1910 l 174 2083 l 1042 2083 l 1042 1910 l 174 1910 z "},"℠":{"ha":1389,"x_min":0,"x_max":1215,"o":"m 0 1389 l 0 1563 l 347 1563 l 347 1389 l 0 1389 m 347 1563 l 347 1736 l 521 1736 l 521 1563 l 347 1563 m 0 1736 l 0 1910 l 174 1910 l 174 2083 l 521 2083 l 521 1910 l 347 1910 l 347 1736 l 0 1736 m 694 1389 l 694 2083 l 868 2083 l 868 1910 l 1042 1910 l 1042 2083 l 1215 2083 l 1215 1389 l 1042 1389 l 1042 1736 l 868 1736 l 868 1389 l 694 1389 z "},"™":{"ha":1389,"x_min":0,"x_max":1215,"o":"m 174 1389 l 174 1910 l 0 1910 l 0 2083 l 521 2083 l 521 1910 l 347 1910 l 347 1389 l 174 1389 m 694 1389 l 694 2083 l 868 2083 l 868 1910 l 1042 1910 l 1042 2083 l 1215 2083 l 1215 1389 l 1042 1389 l 1042 1736 l 868 1736 l 868 1389 l 694 1389 z "},"℮":{"ha":1215,"x_min":0,"x_max":1042,"o":"m 174 868 l 174 1042 l 1042 1042 l 1042 868 l 174 868 m 0 1042 l 0 1736 l 174 1736 l 174 1389 l 868 1389 l 868 1736 l 1042 1736 l 1042 1215 l 174 1215 l 174 1042 l 0 1042 m 174 1736 l 174 1910 l 868 1910 l 868 1736 l 174 1736 z "}}}
